<?xml version="1.0" encoding="UTF-8"?>
<svg version="1.1" xmlns="http://www.w3.org/2000/svg" width="3738" height="7063">
<path d="M0 0 C1.09566212 -0.00177501 2.19132423 -0.00355002 3.32018823 -0.00537882 C6.98250513 -0.01010044 10.64478233 -0.00775027 14.30710101 -0.00541991 C16.97429302 -0.00737401 19.64148206 -0.00972276 22.30867302 -0.01254788 C28.1212182 -0.017906 33.93375529 -0.01956685 39.74630275 -0.01879714 C48.44808892 -0.01765917 57.14986571 -0.02225088 65.85164977 -0.02792798 C80.68362582 -0.03742876 95.51559997 -0.04214505 110.34757876 -0.04423732 C125.37804437 -0.04636688 140.40850706 -0.05062941 155.43897128 -0.05748004 C156.86313201 -0.05812596 156.86313201 -0.05812596 158.31606366 -0.05878493 C162.18302882 -0.06054331 166.04999396 -0.06231296 169.9169591 -0.06409795 C216.77916244 -0.08568739 263.64136636 -0.09657485 310.50357354 -0.10557419 C325.70038742 -0.10850878 340.89720116 -0.11187876 356.09401488 -0.1155414 C357.70248436 -0.11592884 357.70248436 -0.11592884 359.34344817 -0.1163241 C363.68180162 -0.11737035 368.02015507 -0.11841877 372.35850851 -0.11946992 C446.56579211 -0.13743368 520.77307593 -0.15281234 594.98036139 -0.16022895 C600.80815237 -0.16081292 606.63594334 -0.16141019 612.46373431 -0.16200657 C614.19779181 -0.16218375 614.19779181 -0.16218375 615.96688078 -0.16236451 C627.67900392 -0.16356188 639.39112707 -0.16477065 651.10325021 -0.16599704 C653.45154916 -0.16624227 655.79984811 -0.16648613 658.14814706 -0.16672861 C733.56493084 -0.17451812 808.98169905 -0.19690169 884.39847603 -0.22940504 C938.59275615 -0.25275398 992.78703317 -0.27430389 1046.98131824 -0.28141135 C1048.65346757 -0.28163188 1048.65346757 -0.28163188 1050.3593977 -0.28185687 C1074.83258369 -0.28504185 1099.30576965 -0.28709263 1123.77895583 -0.28808442 C1133.62621929 -0.28849915 1143.47348274 -0.28905404 1153.32074618 -0.28964633 C1154.937302 -0.28973733 1154.937302 -0.28973733 1156.5865155 -0.28983017 C1191.28557735 -0.29184524 1225.98462081 -0.3060768 1260.68367625 -0.32659133 C1295.63934426 -0.34718428 1330.59499102 -0.3550601 1365.55066448 -0.34551357 C1370.38482723 -0.34419518 1375.21899 -0.34301711 1380.0531528 -0.34192294 C1381.47454646 -0.34159317 1381.47454646 -0.34159317 1382.92465514 -0.34125673 C1397.90725379 -0.33814679 1412.8898117 -0.34845186 1427.87240092 -0.36439849 C1442.6179165 -0.37981294 1457.36337596 -0.38087444 1472.10889352 -0.36685025 C1480.74466017 -0.35906299 1489.38025493 -0.36208825 1498.01600426 -0.38148742 C1503.76508558 -0.39329627 1509.51404245 -0.39035691 1515.26311721 -0.37587277 C1518.51333565 -0.36808425 1521.7631591 -0.36840068 1525.01336561 -0.38249181 C1555.42070379 -0.50566303 1584.15324669 4.60033609 1611.53446841 18.12880117 C1612.64894351 18.6767333 1612.64894351 18.6767333 1613.78593326 19.23573476 C1622.97047681 23.80122076 1631.47200086 28.73704902 1639.53446841 35.12880117 C1640.40716372 35.81071523 1641.27985904 36.49262929 1642.17899966 37.19520742 C1644.65166311 39.14887104 1647.09756981 41.13079511 1649.53446841 43.12880117 C1650.49159732 43.89837148 1650.49159732 43.89837148 1651.46806216 44.68348867 C1655.26622466 47.81337758 1658.49692767 51.20630281 1661.67118716 54.96473867 C1662.9257248 56.42179077 1664.22175531 57.84400495 1665.55399966 59.23036367 C1696.28472883 91.45610128 1708.70983762 136.93111463 1707.81571841 180.51942617 C1706.84782181 208.3787167 1698.1591095 234.13995248 1688.72196841 260.12880117 C1687.77916262 262.74479345 1686.83936829 265.36186482 1685.89945865 267.97889882 C1683.77968107 273.87575828 1681.65023447 279.76906343 1679.51532912 285.66046125 C1677.38818536 291.53058964 1675.26962636 297.40379603 1673.15165591 303.27723867 C1670.42657273 310.82914924 1667.69370056 318.37820671 1664.95634341 325.92567617 C1660.13653974 339.21597832 1655.3408239 352.51495623 1650.54618335 365.81435186 C1649.3800189 369.04900364 1648.21370286 372.28360076 1647.04740787 375.51820546 C1645.63352634 379.43950879 1644.21967261 383.36082213 1642.80590701 387.28216726 C1639.49631596 396.46185337 1636.18560193 405.64113394 1632.87431216 414.82020742 C1624.42090243 438.25396079 1615.97014123 461.68865516 1607.53446841 485.12880117 C1598.62223984 509.89314937 1589.69309718 534.65138869 1580.76212955 559.40898305 C1577.51401231 568.41311726 1574.26627129 577.41738707 1571.01884341 586.42176992 C1570.67910495 587.36378507 1570.67910495 587.36378507 1570.33250308 588.32483083 C1568.73314489 592.75948281 1567.13380434 597.19414116 1565.53446841 601.62880117 C1563.70635585 606.69781607 1561.87823379 611.76682754 1560.05009341 616.83583242 C1559.7104758 617.77751523 1559.7104758 617.77751523 1559.36399722 618.73822194 C1556.10970483 627.761599 1552.85497772 636.78481917 1549.60000491 645.80795079 C1547.4947321 651.64403369 1545.3895647 657.4801546 1543.28446841 663.31630117 C1543.05416934 663.95477987 1542.82387027 664.59325856 1542.58659244 665.2510851 C1536.22981164 682.87480596 1529.87856298 700.50050926 1523.53446841 718.12880117 C1518.79322596 731.30325893 1514.04962882 744.47686172 1509.30009341 757.64833242 C1509.0757594 758.27046432 1508.85142539 758.89259622 1508.62029338 759.5335806 C1506.09106081 766.54756472 1503.560889 773.56120889 1501.02934146 780.57435781 C1500.10259581 783.14195978 1499.1759271 785.70958952 1498.24931216 788.27723867 C1497.90322437 789.23621336 1497.90322437 789.23621336 1497.55014491 790.21456128 C1494.32618525 799.14896551 1491.11167897 808.08672395 1487.9040668 817.02700979 C1486.12322863 821.99052531 1484.33999961 826.95318087 1482.55624843 831.91565019 C1481.10042502 835.96652581 1479.64782589 840.01853852 1478.19760871 844.07142431 C1477.09019821 847.16322808 1475.9779561 850.25329375 1474.86649966 853.34364492 C1474.47064166 854.45321553 1474.07478366 855.56278615 1473.66692996 856.70598012 C1473.29684314 857.7323055 1472.92675632 858.75863088 1472.54545474 859.81605703 C1472.22764544 860.70240331 1471.90983615 861.58874959 1471.58239627 862.50195485 C1470.40541628 865.45229683 1468.95501758 868.28770283 1467.53446841 871.12880117 C1338.17446841 871.12880117 1208.81446841 871.12880117 1075.53446841 871.12880117 C1076.39472207 866.8275329 1077.57402523 862.92893158 1079.06181216 858.83192617 C1079.32169925 858.10792119 1079.58158633 857.38391622 1079.84934878 856.6379717 C1080.71982108 854.21688505 1081.59573912 851.79780972 1082.47196841 849.37880117 C1083.09880005 847.64080829 1083.72550591 845.90277004 1084.35209537 844.16468984 C1090.38730606 827.44864587 1096.52374087 810.76961849 1102.66338992 794.09172231 C1107.80951763 780.11224179 1112.9267406 766.12235221 1118.03446841 752.12880117 C1124.5514808 734.27704469 1131.09083861 716.43366207 1137.64921451 698.59706289 C1143.86705012 681.68509424 1150.05689679 664.7630246 1156.23625064 647.83696157 C1161.90042218 632.32321407 1167.58384898 616.81669023 1173.28446841 601.31630117 C1180.22985672 582.43091406 1187.13846684 563.53225951 1194.03446841 544.62880117 C1201.2922971 524.73349505 1208.56779346 504.84488183 1215.87773013 484.96864492 C1221.61686568 469.36271969 1227.33196235 453.74814655 1233.03446841 438.12880117 C1239.14174704 421.40258902 1245.25845851 404.67988282 1251.39530826 387.96449453 C1252.18998826 385.79987143 1252.98442589 383.63515934 1253.77860904 381.4703539 C1254.87485428 378.48252535 1255.97207778 375.49505803 1257.06962466 372.50770742 C1257.3926607 371.62692022 1257.71569674 370.74613302 1258.04852176 369.83865529 C1258.34818347 369.02376134 1258.64784518 368.20886739 1258.95658755 367.36927968 C1259.34361598 366.31547864 1259.34361598 366.31547864 1259.73846316 365.24038869 C1260.63694681 362.85695357 1261.58847608 360.493782 1262.53446841 358.12880117 C870.49446841 358.12880117 478.45446841 358.12880117 74.53446841 358.12880117 C73.04946841 363.57380117 73.04946841 363.57380117 71.53446841 369.12880117 C70.85355875 371.33733976 70.15437787 373.54042107 69.42826724 375.73451406 C69.03903079 376.91571828 68.64979434 378.0969225 68.24876285 379.3139208 C67.833866 380.56380788 67.41896914 381.81369497 66.99149966 383.10145742 C66.54647868 384.44956449 66.10176411 385.79777274 65.65733218 387.14607412 C64.71396447 390.00679384 63.76912809 392.86702199 62.82307315 395.72685415 C60.30760578 403.3322214 57.80327087 410.94125658 55.30009341 418.55067617 C55.04938146 419.312621 54.7986695 420.07456582 54.54036021 420.85959989 C50.15318161 434.19722828 45.84904452 447.55996249 41.59696841 460.94130117 C34.96128195 481.81339295 28.13393578 502.61993663 21.27915835 523.42079335 C14.96949881 542.56868375 8.70330474 561.72734236 2.59696841 580.94130117 C-4.20769115 602.35204913 -11.2216798 623.69148462 -18.256387 645.0274294 C-25.08157364 665.72923645 -31.84867216 686.44585115 -38.45088315 707.22010976 C-44.74052572 726.99842323 -51.22548705 746.71071299 -57.721246 766.42200643 C-64.03078456 785.56948762 -70.29682448 804.72774896 -76.40303159 823.94130117 C-83.20783348 845.35249695 -90.22194003 866.69238993 -97.25683331 888.02876836 C-103.74320767 907.70275474 -110.19251152 927.3854715 -116.46553159 947.12880117 C-122.9936321 967.67495581 -129.71502358 988.15494499 -136.46553159 1008.62880117 C-143.55475839 1030.13004171 -150.5936676 1051.64346379 -157.45088315 1073.22010976 C-163.74052572 1092.99842323 -170.22548705 1112.71071299 -176.721246 1132.42200643 C-183.03078456 1151.56948762 -189.29682448 1170.72774896 -195.40303159 1189.94130117 C-202.20769115 1211.35204913 -209.2216798 1232.69148462 -216.256387 1254.0274294 C-223.08157364 1274.72923645 -229.84867216 1295.44585115 -236.45088315 1316.22010976 C-242.74052572 1335.99842323 -249.22548705 1355.71071299 -255.721246 1375.42200643 C-262.03078456 1394.56948762 -268.29682448 1413.72774896 -274.40303159 1432.94130117 C-281.20769115 1454.35204913 -288.2216798 1475.69148462 -295.256387 1497.0274294 C-302.08157364 1517.72923645 -308.84867216 1538.44585115 -315.45088315 1559.22010976 C-321.74052572 1578.99842323 -328.22548705 1598.71071299 -334.721246 1618.42200643 C-341.03078456 1637.56948762 -347.29682448 1656.72774896 -353.40303159 1675.94130117 C-360.20783348 1697.35249695 -367.22194003 1718.69238993 -374.25683331 1740.02876836 C-380.74320767 1759.70275474 -387.19251152 1779.3854715 -393.46553159 1799.12880117 C-399.9936321 1819.67495581 -406.71502358 1840.15494499 -413.46553159 1860.62880117 C-420.23664027 1881.1652067 -426.97830153 1901.70792101 -433.52803159 1922.31630117 C-440.70454016 1944.89667107 -448.09348192 1967.40553738 -455.51326776 1989.90688306 C-456.45846388 1992.77351541 -457.40306184 1995.64034479 -458.34770894 1998.5071581 C-458.97572737 2000.41183392 -459.60495978 2002.31610934 -460.23428464 2004.2203539 C-465.05192944 2018.83324141 -469.74146318 2033.48418909 -474.46553159 2048.12880117 C-317.05553159 2048.45880117 -159.64553159 2048.78880117 2.53446841 2049.12880117 C3.19446841 2046.15880117 3.85446841 2043.18880117 4.53446841 2040.12880117 C4.9748457 2038.57659571 5.43904607 2037.03051277 5.94703555 2035.49910146 C6.21011004 2034.69878499 6.47318454 2033.89846853 6.74423099 2033.07390004 C7.02676227 2032.22931234 7.30929355 2031.38472463 7.60038638 2030.51454335 C7.90327075 2029.59730489 8.20615512 2028.68006643 8.5182178 2027.73503286 C9.51693903 2024.71387552 10.52181342 2021.69480249 11.52665591 2018.67567617 C12.23533349 2016.5352904 12.94358736 2014.39476431 13.65144229 2012.25410634 C15.52045609 2006.6052385 17.39452609 2000.95806165 19.26988101 1995.31129628 C22.22781658 1986.40184417 25.17784531 1977.48976907 28.12862086 1968.57794362 C29.21171582 1965.30804287 30.29599778 1962.03853736 31.3803699 1958.76905996 C34.65046735 1948.90201333 37.90324868 1939.03027447 41.08598208 1929.13466054 C41.36016593 1928.28323602 41.63434978 1927.4318115 41.91684222 1926.55458623 C43.16833911 1922.66553709 44.41455352 1918.77494766 45.65052676 1914.8809374 C57.94269108 1876.39529466 77.83322708 1840.48076866 104.53446841 1810.12880117 C105.16997622 1809.38243398 105.80548404 1808.63606679 106.46024966 1807.86708242 C110.88853093 1802.68548434 115.67863752 1797.9074192 120.53446841 1793.12880117 C121.32337466 1792.33731679 122.11228091 1791.54583242 122.92509341 1790.73036367 C139.32749715 1774.37706892 157.12551277 1761.11961745 177.53446841 1750.12880117 C178.21042056 1749.76061269 178.88637271 1749.39242421 179.58280826 1749.01307851 C223.88371014 1725.09433741 272.97723936 1719.74687689 322.45588281 1719.49346523 C327.41082203 1719.4651051 332.36562634 1719.42061796 337.32046747 1719.37887752 C349.27108376 1719.28199408 361.22179759 1719.21301662 373.17262094 1719.14758589 C377.62874599 1719.12268676 382.0848576 1719.09575026 386.5409701 1719.06871084 C418.25920902 1718.8763413 449.97760244 1718.73459976 481.69615775 1718.60645961 C491.46921939 1718.56692494 501.24227338 1718.52577188 511.01532435 1718.48368627 C511.73039398 1718.48060787 512.44546362 1718.47752948 513.18220202 1718.47435779 C516.09699757 1718.46180509 519.01179308 1718.44924288 521.92658853 1718.43666867 C548.77507075 1718.32084806 575.62356453 1718.20796945 602.47206759 1718.0970915 C628.33722068 1717.99027245 654.20236883 1717.88236877 680.06751132 1717.77301389 C681.7075923 1717.76608141 683.34767329 1717.75914909 684.98775427 1717.75221694 C691.58277754 1717.72434031 698.17780079 1717.69645763 704.772824 1717.66856668 C723.19992623 1717.59064069 741.62702936 1717.51292553 760.05413318 1717.43537408 C760.89264182 1717.43184512 761.73115047 1717.42831617 762.59506847 1717.42468027 C789.23248446 1717.31258885 815.86990424 1717.2014233 842.50732684 1717.09091264 C843.79924228 1717.08555271 843.79924228 1717.08555271 845.11725702 1717.08008449 C859.09389411 1717.02210088 873.0705314 1716.96416712 887.04716871 1716.906237 C942.35040181 1716.67701385 997.65362204 1716.44491295 1052.95683169 1716.2101 C1066.88443503 1716.1509671 1080.81203839 1716.09183885 1094.7396419 1716.03274614 C1096.0270882 1716.02728345 1096.0270882 1716.02728345 1097.34054351 1716.02171041 C1123.92377635 1715.9089242 1150.50701197 1715.79681577 1177.09025073 1715.68543512 C1177.92858902 1715.68192257 1178.76692732 1715.67841002 1179.6306698 1715.67479103 C1198.06118586 1715.59757714 1216.49170265 1715.52053902 1234.92222009 1715.44365692 C1241.52186566 1715.41612642 1248.12151119 1715.38858852 1254.72115672 1715.36104932 C1256.3621151 1715.3542023 1258.00307348 1715.34735602 1259.64403186 1715.3405105 C1283.86663866 1715.23946155 1308.08924053 1715.13729799 1332.31183923 1715.03432613 C1360.72500948 1714.91354127 1389.13818689 1714.79465973 1417.55137619 1714.67843901 C1420.47530891 1714.66647176 1423.39924158 1714.65449652 1426.32317424 1714.642515 C1427.04044844 1714.6395766 1427.75772265 1714.6366382 1428.49673244 1714.63361076 C1438.87139692 1714.5910674 1449.24605454 1714.54709415 1459.62070918 1714.50221997 C1487.26174237 1714.38304826 1514.90275718 1714.27445155 1542.54394135 1714.19665866 C1545.03292069 1714.18963533 1547.5219 1714.18260126 1550.01087928 1714.17555672 C1551.25785911 1714.17203213 1552.50483894 1714.16850754 1553.78960604 1714.16487614 C1562.70849067 1714.13892215 1571.62733284 1714.10617107 1580.54618448 1714.07089115 C1594.49170973 1714.01574295 1608.43721002 1713.97177898 1622.38281762 1713.94369937 C1629.40386328 1713.92927207 1636.42481314 1713.91006411 1643.44579807 1713.87699907 C1649.97994767 1713.84623054 1656.51401767 1713.83134679 1663.04823897 1713.82665332 C1665.4297017 1713.8224833 1667.81116264 1713.81322996 1670.1925812 1713.79813848 C1713.43404867 1713.53525023 1755.87604177 1722.99559866 1790.53446841 1750.12880117 C1791.37751529 1750.76817617 1792.22056216 1751.40755117 1793.08915591 1752.06630117 C1829.13172375 1780.3014285 1851.16270652 1821.15011475 1856.82011294 1866.41420156 C1860.78233274 1901.90761056 1853.067394 1934.95795696 1840.78446841 1968.00380117 C1840.03724792 1970.03901065 1839.29101721 1972.07458377 1838.54569888 1974.11049062 C1836.60541831 1979.40330864 1834.65289362 1984.69152268 1832.69767642 1989.97883779 C1830.81999642 1995.06358893 1828.95465541 2000.15285256 1827.08915591 2005.24208242 C1824.48827135 2012.33477657 1821.88394374 2019.42618456 1819.27458072 2026.51576406 C1814.17239124 2040.3787088 1809.09977906 2054.25234531 1804.03446841 2068.12880117 C1797.97028938 2084.74004836 1791.8882887 2101.34458034 1785.78446841 2117.94130117 C1778.58934113 2137.50576006 1771.43450305 2157.0847625 1764.29058719 2176.66795903 C1757.37076989 2195.63655597 1750.43145922 2214.59778204 1743.46073794 2233.54774648 C1736.95683319 2251.23106561 1730.49156097 2268.92835297 1724.03446841 2286.62880117 C1716.77666208 2306.52411539 1709.50114333 2326.41272059 1702.19120669 2346.28895742 C1696.45207135 2361.89488209 1690.73677289 2377.50938253 1685.03446841 2393.12880117 C1678.97009506 2409.73997768 1672.88828889 2426.34457984 1666.78446841 2442.94130117 C1660.08745273 2461.15133178 1653.4240152 2479.37346596 1646.77434039 2497.60082036 C1639.77340626 2516.79030238 1632.77017708 2535.97893197 1625.73368716 2555.1554125 C1624.99349075 2557.17298823 1624.25372266 2559.19072117 1623.51444888 2561.20863515 C1622.4925122 2563.99762102 1621.46880468 2566.78595094 1620.44462466 2569.57411367 C1620.16526568 2570.33736959 1619.88590671 2571.10062551 1619.5980823 2571.8870104 C1615.9992855 2581.66890056 1612.24559456 2591.38709502 1608.53446841 2601.12880117 C1483.46446841 2601.12880117 1358.39446841 2601.12880117 1229.53446841 2601.12880117 C1232.90934038 2589.87922793 1232.90934038 2589.87922793 1234.84916568 2584.75453359 C1235.28661105 2583.59377309 1235.72405643 2582.43301259 1236.17475772 2581.23707753 C1236.65007413 2579.98612042 1237.12544831 2578.73518525 1237.60087466 2577.48426992 C1238.10796276 2576.14238406 1238.61473904 2574.80038034 1239.12122989 2573.45826894 C1240.20671871 2570.58381727 1241.29429864 2567.71016924 1242.38355899 2564.83714467 C1244.130106 2560.23034465 1245.87181902 2555.62172607 1247.61283755 2551.01283437 C1249.73968595 2545.38349262 1251.86760582 2539.75455836 1253.99704146 2534.12619478 C1259.5678464 2519.40183354 1265.1214899 2504.67101696 1270.67212558 2489.93904287 C1271.47690475 2487.80320038 1272.28182133 2485.66740972 1273.08677554 2483.5316332 C1284.22265011 2453.98414678 1295.31169352 2424.41915602 1306.39193606 2394.85077077 C1310.49657335 2383.89732425 1314.60288963 2372.94450824 1318.71024966 2361.99208242 C1319.00549533 2361.20479253 1319.300741 2360.41750264 1319.6049335 2359.60635549 C1321.95612511 2353.33679292 1324.30740771 2347.06726447 1326.65869784 2340.79773885 C1328.63164921 2335.53701356 1330.60456632 2330.27627541 1332.57743716 2325.01551992 C1332.84441409 2324.30362005 1333.11139102 2323.59172017 1333.38645816 2322.85824758 C1336.47510568 2314.62218962 1339.56269256 2306.3857361 1342.64774966 2298.14833242 C1348.17182925 2283.40048447 1353.70966065 2268.65789823 1359.26493716 2253.92176992 C1359.65341956 2252.89126264 1359.65341956 2252.89126264 1360.04975009 2251.83993703 C1361.40416461 2248.24722115 1362.75864497 2244.6545301 1364.11314273 2241.0618456 C1364.38858165 2240.33126691 1364.66402057 2239.60068822 1364.94780612 2238.84797078 C1365.50459982 2237.37112681 1366.06139811 2235.89428456 1366.61820102 2234.41744405 C1375.67599134 2210.39241298 1384.70909531 2186.35821811 1393.72196841 2162.31630117 C1394.29596205 2160.78527447 1394.86995699 2159.25424826 1395.44395328 2157.72322255 C1400.42283293 2144.44260133 1405.40018153 2131.16140823 1410.3715198 2117.87796193 C1411.81270764 2114.02728731 1413.25456317 2110.17686288 1414.69648623 2106.32646352 C1415.6279645 2103.83796568 1416.55819784 2101.34900512 1417.48832583 2098.86000234 C1418.02708626 2097.42093442 1418.56590032 2095.98188659 1419.10478091 2094.54286367 C1419.55611392 2093.33581777 1420.00744693 2092.12877187 1420.47245669 2090.88514882 C1421.53446841 2088.12880117 1421.53446841 2088.12880117 1422.53446841 2086.12880117 C1421.67369063 2086.13924742 1420.81291286 2086.14969367 1419.9260509 2086.16045648 C1354.63562162 2086.94207101 1289.3442428 2087.30682628 1224.05009341 2087.59364492 C1222.97605652 2087.59836788 1221.90201963 2087.60309084 1220.79543617 2087.60795692 C1193.26887759 2087.72887605 1165.7422994 2087.84502954 1138.21571427 2087.95972506 C1112.41219993 2088.06728053 1086.60870357 2088.17885277 1060.80520904 2088.29104537 C1048.12062779 2088.34619518 1035.43604579 2088.40117322 1022.75146365 2088.45611745 C1021.48339744 2088.46161058 1020.21533123 2088.46710372 1018.90883877 2088.47276331 C988.96097429 2088.60245957 959.01310305 2088.73056414 929.06523013 2088.85829335 C927.76046649 2088.86385908 926.45570285 2088.86942481 925.11140092 2088.87515919 C894.60555438 2089.00528049 864.09970598 2089.13495546 833.59385562 2089.26417714 C822.96354553 2089.30921293 812.33323547 2089.35425746 801.70292544 2089.39930898 C800.39043764 2089.40487061 799.07794984 2089.41043225 797.72568968 2089.41616242 C767.70280705 2089.54339584 737.67992741 2089.67127651 707.65705752 2089.80148488 C706.3925659 2089.80696887 705.12807428 2089.81245286 703.82526474 2089.81810302 C691.19662914 2089.87289062 678.56799412 2089.92781232 665.93935993 2089.98292259 C638.96577563 2090.10061264 611.99218511 2090.21631567 585.01857425 2090.32775971 C565.39665281 2090.40887029 545.77474496 2090.49277912 526.15284747 2090.57949215 C515.55796064 2090.6262297 504.96307222 2090.67172201 494.36816478 2090.7135523 C432.9453277 2090.95012311 432.9453277 2090.95012311 371.53446841 2092.12880117 C370.55715297 2095.0504082 369.57986745 2097.97202524 368.60259891 2100.89364797 C368.32797777 2101.71459589 368.05335663 2102.53554381 367.77041364 2103.38136894 C361.8180254 2121.17683339 355.92663986 2138.99059445 350.13297915 2156.83836538 C344.73685205 2173.46028857 339.29622562 2190.06741752 333.84351993 2206.67084295 C331.79607108 2212.90538863 329.74906602 2219.14008001 327.70243716 2225.37489492 C327.47990645 2226.05280521 327.25737575 2226.7307155 327.02810168 2227.42916852 C322.82956177 2240.22058755 318.6469837 2253.01718544 314.47196841 2265.81630117 C308.51011618 2284.09282403 302.52673023 2302.36223131 296.53446841 2320.62880117 C290.52170492 2338.95797742 284.51753055 2357.28990319 278.53446841 2375.62880117 C272.59210012 2393.842377 266.63038731 2412.04956839 260.65946841 2430.25380117 C260.23305595 2431.55387017 259.806644 2432.85393934 259.38023257 2434.15400869 C259.16917188 2434.79750327 258.95811118 2435.44099786 258.74065471 2436.10399228 C257.67710582 2439.34662758 256.613585 2442.58927208 255.55009341 2445.83192617 C255.33981887 2446.4730623 255.12954432 2447.11419843 254.91289783 2447.77476293 C250.40630925 2461.51599352 245.90673276 2475.25951628 241.40946841 2489.00380117 C241.04194461 2490.12699758 240.6744208 2491.25019399 240.29575992 2492.40742666 C238.4478192 2498.05507823 236.6000022 2503.70277027 234.75224185 2509.35048085 C231.38936318 2519.62897175 228.02537309 2529.90709891 224.66148257 2540.18525869 C222.78576716 2545.9164251 220.91012125 2551.64761427 219.03446841 2557.37880117 C218.28446875 2559.67046794 217.53446875 2561.96213461 216.78446841 2564.25380117 C216.41321841 2565.38817617 216.04196841 2566.52255117 215.65946841 2567.69130117 C194.28446819 2633.00380186 194.28446819 2633.00380186 193.15971255 2636.44055349 C192.40889741 2638.73471198 191.65808361 2641.02887092 190.90727115 2643.32303029 C189.04475368 2649.01407551 187.18221377 2654.70511338 185.31962466 2660.39613515 C181.7956991 2671.16334627 178.27201334 2681.93063574 174.74906802 2692.69816762 C173.07981164 2697.80007683 171.41040994 2702.90193848 169.74101138 2708.00380117 C168.94309968 2710.44242081 168.14524714 2712.88105982 167.34745669 2715.31971914 C166.24327573 2718.69493049 165.13889338 2722.07007589 164.03446841 2725.44520742 C163.70825503 2726.442544 163.38204165 2727.43988057 163.04594302 2728.46743947 C162.7430939 2729.39282018 162.44024478 2730.31820089 162.12821841 2731.27162343 C161.86718326 2732.06947759 161.6061481 2732.86733175 161.33720279 2733.6893633 C160.41065657 2736.50505426 159.47183726 2739.31669463 158.53446841 2742.12880117 C356.53446841 2742.45880117 554.53446841 2742.78880117 758.53446841 2743.12880117 C757.19276076 2749.16648561 755.78823519 2754.71692104 753.72587466 2760.48036367 C753.30863383 2761.66733342 753.30863383 2761.66733342 752.8829639 2762.87828237 C752.27764527 2764.5987205 751.67002614 2766.3183506 751.06034732 2768.03724843 C749.36541036 2772.81666139 747.68796411 2777.60222889 746.00712466 2782.38661367 C745.64796969 2783.40728933 745.28881473 2784.42796499 744.91877627 2785.47957021 C740.98220782 2796.67550197 737.11328017 2807.89461332 733.24586368 2819.11457998 C727.20783727 2836.6307128 721.14830473 2854.13898331 715.03446841 2871.62880117 C707.34670241 2893.62376704 699.74621443 2915.64867898 692.14456058 2937.67352468 C687.92753087 2949.8902653 683.70060198 2962.10357306 679.47196841 2974.31630117 C679.10276278 2975.38266805 678.73355716 2976.44903493 678.35316348 2977.54771596 C676.4916633 2982.92422651 674.63004798 2988.30069717 672.76835513 2993.67714101 C669.77251941 3002.32910145 666.77761205 3010.9813832 663.78275943 3019.63368398 C662.29519781 3023.93129015 660.80739221 3028.22881174 659.31938052 3032.5262621 C655.79295576 3042.7112973 652.26833909 3052.8969495 648.74906802 3063.08445913 C647.0803235 3067.91479822 645.41070255 3072.74483416 643.74101138 3077.57484609 C642.94272013 3079.88491554 642.14486179 3082.19513466 641.34745669 3084.50551015 C640.24421142 3087.70193087 639.13949701 3090.89784035 638.03446841 3094.09364492 C637.70825503 3095.04005346 637.38204165 3095.98646199 637.04594302 3096.96154958 C636.7430939 3097.83650579 636.44024478 3098.71146199 636.12821841 3099.61293203 C635.86718326 3100.36876073 635.6061481 3101.12458944 635.33720279 3101.90332204 C634.46066516 3104.33341131 633.49389727 3106.73022902 632.53446841 3109.12880117 C436.18446841 3109.12880117 239.83446841 3109.12880117 37.53446841 3109.12880117 C36.54446841 3113.58380117 36.54446841 3113.58380117 35.53446841 3118.12880117 C34.86495924 3120.39476284 34.1604635 3122.65073592 33.41825747 3124.89393789 C33.21580983 3125.50988883 33.01336219 3126.12583978 32.80477977 3126.76045591 C32.14062358 3128.77783673 31.47038453 3130.79313883 30.80009341 3132.80848867 C30.32546061 3134.24642642 29.85123696 3135.68449928 29.37739444 3137.12269765 C28.3727791 3140.16931196 27.36556133 3143.21504766 26.35618472 3146.26008779 C24.76686182 3151.05488888 23.18350202 3155.85164507 21.60136294 3160.6488207 C21.07161786 3162.25487244 20.54186325 3163.86092103 20.01209903 3165.46696645 C19.75122878 3166.25783777 19.49035853 3167.04870908 19.22158313 3167.86354619 C18.43428314 3170.2496272 17.64640776 3172.63551746 16.85835147 3175.02134877 C13.01051899 3186.67198661 9.19561883 3198.33296516 5.40946841 3210.00380117 C-0.30389298 3227.59917364 -6.06910883 3245.17741219 -11.84053159 3262.75380117 C-18.08456829 3281.76979886 -24.32105982 3300.7881627 -30.52803159 3319.81630117 C-36.44926272 3337.96747798 -42.39008421 3356.11218465 -48.34053159 3374.25380117 C-50.04370293 3379.4464943 -51.74685187 3384.63919478 -53.44990659 3389.83192617 C-53.66017547 3390.4730453 -53.87044435 3391.11416444 -54.08708501 3391.77471143 C-58.59367942 3405.51595915 -63.09326161 3419.25949909 -67.59053159 3433.00380117 C-67.95805539 3434.12699758 -68.3255792 3435.25019399 -68.70424008 3436.40742666 C-70.5521808 3442.05507823 -72.3999978 3447.70277027 -74.24775815 3453.35048085 C-77.61063682 3463.62897175 -80.97462691 3473.90709891 -84.33851743 3484.18525869 C-86.21423284 3489.9164251 -88.08987875 3495.64761427 -89.96553159 3501.37880117 C-90.71553125 3503.67046794 -91.46553125 3505.96213461 -92.21553159 3508.25380117 C-92.58678159 3509.38817617 -92.95803159 3510.52255117 -93.34053159 3511.69130117 C-114.71553137 3577.00380052 -114.71553137 3577.00380052 -115.84056211 3580.44139272 C-116.59046172 3582.73275377 -117.34035999 3585.02411526 -118.09025693 3587.31547719 C-119.96678191 3593.04932333 -121.84333021 3598.78316184 -123.71992612 3604.51698476 C-127.07670519 3614.77349153 -130.43333767 3625.03004612 -133.78906369 3635.28689748 C-135.26887387 3639.80994025 -136.74879283 3644.33294742 -138.2287457 3648.8559435 C-138.96809565 3651.11555654 -139.70741465 3653.37517969 -140.44670224 3655.63481313 C-144.64445032 3668.46475207 -148.84630195 3681.29333295 -153.05616117 3694.11930257 C-153.72730664 3696.16412897 -154.39834704 3698.20898982 -155.06935239 3700.2538622 C-155.51472509 3701.61110124 -155.96009863 3702.96834001 -156.40547299 3704.32557851 C-156.62498624 3704.99453397 -156.84449948 3705.66348943 -157.07066464 3706.35271627 C-158.53910127 3710.82736916 -160.00879244 3715.30160885 -161.47871518 3719.77577382 C-162.26732898 3722.17859286 -163.05590491 3724.58142433 -163.84443784 3726.98426992 C-164.17827985 3727.9993311 -164.51212186 3729.01439229 -164.85608029 3730.06021291 C-169.12093238 3743.06352981 -173.27763082 3756.09977655 -177.46553159 3769.12880117 C217.04946841 3769.62380117 217.04946841 3769.62380117 619.53446841 3770.12880117 C618.83959435 3775.68779363 618.00598635 3780.69882419 616.5386188 3786.03480703 C616.33584764 3786.78930041 616.13307647 3787.54379379 615.92416072 3788.3211506 C615.24854649 3790.83004655 614.56531776 3793.33680312 613.88212466 3795.84364492 C613.39372401 3797.65159755 612.9058274 3799.45968642 612.4183948 3801.26790029 C611.36844501 3805.15900283 610.31520419 3809.04919374 609.25938296 3812.93870717 C607.57782024 3819.1338049 605.90382679 3825.33093155 604.23124576 3831.52845937 C602.47549491 3838.03298911 600.71937522 3844.53741744 598.96086001 3851.04120046 C593.05264702 3872.89352342 587.18125644 3894.75566333 581.32057071 3916.62077504 C579.96937434 3921.66142521 578.61648175 3926.70161809 577.26297927 3931.74164945 C576.22461755 3935.60914897 575.18737092 3939.47694701 574.15037227 3943.34481221 C573.68448209 3945.08180532 573.2182223 3946.81869936 572.75146556 3948.5554598 C563.46509873 3983.11514148 554.5492714 4017.76496128 545.8837086 4052.48505014 C544.53081287 4057.90337015 543.17512196 4063.32099094 541.81982303 4068.73871022 C539.17906443 4079.29676343 536.54077381 4089.85543175 533.90338158 4100.41432632 C530.80900668 4112.80236036 527.71210031 4125.18976116 524.61513317 4137.57714736 C518.90388312 4160.42163435 513.19509834 4183.26673651 507.48751092 4206.1121388 C502.32475596 4226.77672482 497.16029077 4247.44088261 491.99418521 4268.10463125 C491.66342734 4269.42762232 491.33266948 4270.75061339 491.00191163 4272.07360447 C490.83835988 4272.72779113 490.67480813 4273.38197778 490.50630027 4274.05598827 C489.68225173 4277.35208153 488.85820563 4280.6481754 488.03416228 4283.94426996 C487.87144067 4284.59513968 487.70871906 4285.2460094 487.5410665 4285.91660245 C482.23458067 4307.14209665 476.92988488 4328.36803823 471.6253175 4349.59401195 C469.78804956 4356.94563172 467.95050814 4364.29718305 466.11273431 4371.64867637 C449.41021907 4438.45202225 449.41021907 4438.45202225 432.87771516 4505.2975737 C422.93991668 4545.70340363 412.82854473 4586.06582063 402.72687912 4626.43093457 C399.87642676 4637.82135251 397.02764386 4649.21218782 394.17896426 4660.60304922 C389.07923387 4680.99498231 383.97862241 4701.38669489 378.87724185 4721.77821523 C378.5751373 4722.98580562 378.27303275 4724.19339601 377.96177351 4725.43758005 C375.51295248 4735.22612491 373.0640871 4745.01465867 370.61521983 4754.80319196 C368.47402411 4763.36191848 366.33284616 4771.92064944 364.19169497 4780.4793871 C363.88997972 4781.68541998 363.58826447 4782.89145286 363.27740633 4784.13403219 C358.18856194 4804.47557095 353.10069746 4824.8173547 348.01348853 4845.15930253 C345.18248915 4856.47929257 342.35100051 4867.79915976 339.51820254 4879.11869985 C329.26815029 4920.07723614 319.02541248 4961.03701549 308.94133162 5002.03677303 C299.23561845 5041.49614609 289.3665462 5080.91455862 279.50105441 5120.33423334 C276.76254465 5131.27686719 274.0257102 5142.21991987 271.28897703 5153.16299814 C266.38890467 5172.75630264 261.48795117 5192.3493866 256.58622622 5211.94227773 C256.15101309 5213.68188856 256.15101309 5213.68188856 255.70700777 5215.45664304 C253.35526106 5224.85689084 251.00346992 5234.25712751 248.65167689 5243.65736371 C246.59533398 5251.8766788 244.53900888 5260.09599835 242.4827106 5268.3153246 C242.19294333 5269.47356555 241.90317606 5270.6318065 241.60462797 5271.82514566 C236.71466406 5291.37115527 231.82568272 5310.91741052 226.93735671 5330.46382982 C224.21814081 5341.33668922 221.49843729 5352.20942616 218.77741885 5363.08183461 C215.73553 5375.23649553 212.6946489 5387.39140805 209.65556216 5399.54676992 C209.41333238 5400.515609 209.1711026 5401.48444808 208.92153253 5402.48264593 C202.10198634 5429.76145229 195.33116368 5457.05181281 188.61381219 5484.35595578 C180.91652817 5515.64307921 173.10808675 5546.90168314 165.26665568 5578.15295583 C162.91489423 5587.52584208 160.56657348 5596.8995891 158.21871829 5606.27345449 C157.8126109 5607.89477627 157.40650118 5609.51609747 157.00038916 5611.13741809 C156.3870411 5613.58608993 155.77369332 5616.03476184 155.16035176 5618.4834353 C152.89393805 5627.53166553 150.62710767 5636.57979132 148.35990787 5645.6278246 C148.05179655 5646.8574543 148.05179655 5646.8574543 147.73746075 5648.11192501 C144.3584989 5661.59642597 140.97613498 5675.08007188 137.59288708 5688.56349802 C134.08385964 5702.54864305 130.57928419 5716.53489857 127.07868665 5730.52215606 C124.93486662 5739.08749726 122.78744834 5747.65191974 120.63531735 5756.21517658 C119.17475505 5762.02801732 117.71841786 5767.84190579 116.26550452 5773.65666306 C115.42801436 5777.00784704 114.58856953 5780.35851082 113.74404407 5783.70792943 C112.83280846 5787.32602469 111.92870778 5790.94582692 111.02648807 5794.5661791 C110.7557051 5795.63406462 110.48492214 5796.70195015 110.20593363 5797.80219585 C109.96822078 5798.7623858 109.73050792 5799.72257576 109.48559165 5800.71186239 C109.17157967 5801.96424931 109.17157967 5801.96424931 108.85122401 5803.24193698 C108.74669466 5803.86460216 108.64216531 5804.48726734 108.53446841 5805.12880117 C108.86446841 5805.45880117 109.19446841 5805.78880117 109.53446841 5806.12880117 C113.01997795 5802.73863991 116.42611737 5799.31734217 119.59696841 5795.62880117 C123.05832073 5791.61518814 126.66145726 5787.74577144 130.28446841 5783.87880117 C136.41333757 5777.33599438 142.48794349 5770.74777815 148.53446841 5764.12880117 C150.34612586 5762.14886204 152.15883156 5760.16988555 153.97196841 5758.19130117 C154.64908877 5757.45230581 154.64908877 5757.45230581 155.33988833 5756.69838125 C159.23418539 5752.45087248 163.14308139 5748.21694059 167.05375552 5743.98451406 C170.38899644 5740.37353548 173.71505326 5736.75432953 177.03446841 5733.12880117 C181.36183258 5728.40237172 185.70511771 5723.69090051 190.05399966 5718.98426992 C193.38914032 5715.37335535 196.71513092 5711.75424471 200.03446841 5708.12880117 C204.36183258 5703.40237172 208.70511771 5698.69090051 213.05399966 5693.98426992 C216.38914032 5690.37335535 219.71513092 5686.75424471 223.03446841 5683.12880117 C227.36183258 5678.40237172 231.70511771 5673.69090051 236.05399966 5668.98426992 C239.38914032 5665.37335535 242.71513092 5661.75424471 246.03446841 5658.12880117 C250.36183258 5653.40237172 254.70511771 5648.69090051 259.05399966 5643.98426992 C262.38914032 5640.37335535 265.71513092 5636.75424471 269.03446841 5633.12880117 C273.36183258 5628.40237172 277.70511771 5623.69090051 282.05399966 5618.98426992 C285.38914032 5615.37335535 288.71513092 5611.75424471 292.03446841 5608.12880117 C296.36183258 5603.40237172 300.70511771 5598.69090051 305.05399966 5593.98426992 C308.38914032 5590.37335535 311.71513092 5586.75424471 315.03446841 5583.12880117 C319.36183258 5578.40237172 323.70511771 5573.69090051 328.05399966 5568.98426992 C331.38914032 5565.37335535 334.71513092 5561.75424471 338.03446841 5558.12880117 C342.36183258 5553.40237172 346.70511771 5548.69090051 351.05399966 5543.98426992 C354.38914032 5540.37335535 357.71513092 5536.75424471 361.03446841 5533.12880117 C365.36183258 5528.40237172 369.70511771 5523.69090051 374.05399966 5518.98426992 C377.38914032 5515.37335535 380.71513092 5511.75424471 384.03446841 5508.12880117 C388.36183258 5503.40237172 392.70511771 5498.69090051 397.05399966 5493.98426992 C400.38914032 5490.37335535 403.71513092 5486.75424471 407.03446841 5483.12880117 C411.36183258 5478.40237172 415.70511771 5473.69090051 420.05399966 5468.98426992 C423.38914032 5465.37335535 426.71513092 5461.75424471 430.03446841 5458.12880117 C433.85782109 5453.95286265 437.69212646 5449.78727345 441.53446841 5445.62880117 C447.2177611 5439.47731124 452.87915962 5433.306013 458.53446841 5427.12880117 C464.69370846 5420.40115252 470.86371425 5413.68384364 477.05375552 5406.98451406 C480.38899644 5403.37353548 483.71505326 5399.75432953 487.03446841 5396.12880117 C491.36183258 5391.40237172 495.70511771 5386.69090051 500.05399966 5381.98426992 C503.38914032 5378.37335535 506.71513092 5374.75424471 510.03446841 5371.12880117 C514.36183258 5366.40237172 518.70511771 5361.69090051 523.05399966 5356.98426992 C526.38914032 5353.37335535 529.71513092 5349.75424471 533.03446841 5346.12880117 C537.36183258 5341.40237172 541.70511771 5336.69090051 546.05399966 5331.98426992 C549.38914032 5328.37335535 552.71513092 5324.75424471 556.03446841 5321.12880117 C560.36183258 5316.40237172 564.70511771 5311.69090051 569.05399966 5306.98426992 C572.38914032 5303.37335535 575.71513092 5299.75424471 579.03446841 5296.12880117 C583.36183258 5291.40237172 587.70511771 5286.69090051 592.05399966 5281.98426992 C595.38914032 5278.37335535 598.71513092 5274.75424471 602.03446841 5271.12880117 C606.36183258 5266.40237172 610.70511771 5261.69090051 615.05399966 5256.98426992 C618.38914032 5253.37335535 621.71513092 5249.75424471 625.03446841 5246.12880117 C629.36183258 5241.40237172 633.70511771 5236.69090051 638.05399966 5231.98426992 C641.38914032 5228.37335535 644.71513092 5224.75424471 648.03446841 5221.12880117 C652.36183258 5216.40237172 656.70511771 5211.69090051 661.05399966 5206.98426992 C664.38914032 5203.37335535 667.71513092 5199.75424471 671.03446841 5196.12880117 C675.36183258 5191.40237172 679.70511771 5186.69090051 684.05399966 5181.98426992 C687.38914032 5178.37335535 690.71513092 5174.75424471 694.03446841 5171.12880117 C698.36183258 5166.40237172 702.70511771 5161.69090051 707.05399966 5156.98426992 C710.38914032 5153.37335535 713.71513092 5149.75424471 717.03446841 5146.12880117 C721.36183258 5141.40237172 725.70511771 5136.69090051 730.05399966 5131.98426992 C733.38914032 5128.37335535 736.71513092 5124.75424471 740.03446841 5121.12880117 C744.36183258 5116.40237172 748.70511771 5111.69090051 753.05399966 5106.98426992 C756.38914032 5103.37335535 759.71513092 5099.75424471 763.03446841 5096.12880117 C767.36183258 5091.40237172 771.70511771 5086.69090051 776.05399966 5081.98426992 C779.38914032 5078.37335535 782.71513092 5074.75424471 786.03446841 5071.12880117 C790.36183258 5066.40237172 794.70511771 5061.69090051 799.05399966 5056.98426992 C802.38914032 5053.37335535 805.71513092 5049.75424471 809.03446841 5046.12880117 C813.36183258 5041.40237172 817.70511771 5036.69090051 822.05399966 5031.98426992 C825.38914032 5028.37335535 828.71513092 5024.75424471 832.03446841 5021.12880117 C835.85782109 5016.95286265 839.69212646 5012.78727345 843.53446841 5008.62880117 C849.2177611 5002.47731124 854.87915962 4996.306013 860.53446841 4990.12880117 C866.69370846 4983.40115252 872.86371425 4976.68384364 879.05375552 4969.98451406 C882.38899644 4966.37353548 885.71505326 4962.75432953 889.03446841 4959.12880117 C893.36183258 4954.40237172 897.70511771 4949.69090051 902.05399966 4944.98426992 C905.38914032 4941.37335535 908.71513092 4937.75424471 912.03446841 4934.12880117 C916.36183258 4929.40237172 920.70511771 4924.69090051 925.05399966 4919.98426992 C928.38914032 4916.37335535 931.71513092 4912.75424471 935.03446841 4909.12880117 C939.36183258 4904.40237172 943.70511771 4899.69090051 948.05399966 4894.98426992 C951.38914032 4891.37335535 954.71513092 4887.75424471 958.03446841 4884.12880117 C962.36183258 4879.40237172 966.70511771 4874.69090051 971.05399966 4869.98426992 C974.38914032 4866.37335535 977.71513092 4862.75424471 981.03446841 4859.12880117 C985.36183258 4854.40237172 989.70511771 4849.69090051 994.05399966 4844.98426992 C997.38914032 4841.37335535 1000.71513092 4837.75424471 1004.03446841 4834.12880117 C1008.36183258 4829.40237172 1012.70511771 4824.69090051 1017.05399966 4819.98426992 C1020.38914032 4816.37335535 1023.71513092 4812.75424471 1027.03446841 4809.12880117 C1031.36183258 4804.40237172 1035.70511771 4799.69090051 1040.05399966 4794.98426992 C1043.38914032 4791.37335535 1046.71513092 4787.75424471 1050.03446841 4784.12880117 C1054.36183258 4779.40237172 1058.70511771 4774.69090051 1063.05399966 4769.98426992 C1066.38914032 4766.37335535 1069.71513092 4762.75424471 1073.03446841 4759.12880117 C1077.36183258 4754.40237172 1081.70511771 4749.69090051 1086.05399966 4744.98426992 C1089.38914032 4741.37335535 1092.71513092 4737.75424471 1096.03446841 4734.12880117 C1100.36183258 4729.40237172 1104.70511771 4724.69090051 1109.05399966 4719.98426992 C1112.38914032 4716.37335535 1115.71513092 4712.75424471 1119.03446841 4709.12880117 C1123.36183258 4704.40237172 1127.70511771 4699.69090051 1132.05399966 4694.98426992 C1135.38914032 4691.37335535 1138.71513092 4687.75424471 1142.03446841 4684.12880117 C1146.36183258 4679.40237172 1150.70511771 4674.69090051 1155.05399966 4669.98426992 C1158.38914032 4666.37335535 1161.71513092 4662.75424471 1165.03446841 4659.12880117 C1169.36183258 4654.40237172 1173.70511771 4649.69090051 1178.05399966 4644.98426992 C1181.38914032 4641.37335535 1184.71513092 4637.75424471 1188.03446841 4634.12880117 C1192.36183258 4629.40237172 1196.70511771 4624.69090051 1201.05399966 4619.98426992 C1204.38914032 4616.37335535 1207.71513092 4612.75424471 1211.03446841 4609.12880117 C1214.85782109 4604.95286265 1218.69212646 4600.78727345 1222.53446841 4596.62880117 C1228.2177611 4590.47731124 1233.87915962 4584.306013 1239.53446841 4578.12880117 C1245.69370846 4571.40115252 1251.86371425 4564.68384364 1258.05375552 4557.98451406 C1261.38899644 4554.37353548 1264.71505326 4550.75432953 1268.03446841 4547.12880117 C1272.36183258 4542.40237172 1276.70511771 4537.69090051 1281.05399966 4532.98426992 C1284.38914032 4529.37335535 1287.71513092 4525.75424471 1291.03446841 4522.12880117 C1295.36183258 4517.40237172 1299.70511771 4512.69090051 1304.05399966 4507.98426992 C1307.38914032 4504.37335535 1310.71513092 4500.75424471 1314.03446841 4497.12880117 C1318.36183258 4492.40237172 1322.70511771 4487.69090051 1327.05399966 4482.98426992 C1330.38914032 4479.37335535 1333.71513092 4475.75424471 1337.03446841 4472.12880117 C1341.36183258 4467.40237172 1345.70511771 4462.69090051 1350.05399966 4457.98426992 C1353.38914032 4454.37335535 1356.71513092 4450.75424471 1360.03446841 4447.12880117 C1364.36183258 4442.40237172 1368.70511771 4437.69090051 1373.05399966 4432.98426992 C1376.38914032 4429.37335535 1379.71513092 4425.75424471 1383.03446841 4422.12880117 C1387.36183258 4417.40237172 1391.70511771 4412.69090051 1396.05399966 4407.98426992 C1399.38914032 4404.37335535 1402.71513092 4400.75424471 1406.03446841 4397.12880117 C1410.36183258 4392.40237172 1414.70511771 4387.69090051 1419.05399966 4382.98426992 C1422.38914032 4379.37335535 1425.71513092 4375.75424471 1429.03446841 4372.12880117 C1433.36183258 4367.40237172 1437.70511771 4362.69090051 1442.05399966 4357.98426992 C1445.38914032 4354.37335535 1448.71513092 4350.75424471 1452.03446841 4347.12880117 C1456.36183258 4342.40237172 1460.70511771 4337.69090051 1465.05399966 4332.98426992 C1468.38914032 4329.37335535 1471.71513092 4325.75424471 1475.03446841 4322.12880117 C1479.36183258 4317.40237172 1483.70511771 4312.69090051 1488.05399966 4307.98426992 C1491.38914032 4304.37335535 1494.71513092 4300.75424471 1498.03446841 4297.12880117 C1502.36183258 4292.40237172 1506.70511771 4287.69090051 1511.05399966 4282.98426992 C1514.38914032 4279.37335535 1517.71513092 4275.75424471 1521.03446841 4272.12880117 C1525.36183258 4267.40237172 1529.70511771 4262.69090051 1534.05399966 4257.98426992 C1537.38914032 4254.37335535 1540.71513092 4250.75424471 1544.03446841 4247.12880117 C1548.36183258 4242.40237172 1552.70511771 4237.69090051 1557.05399966 4232.98426992 C1560.38914032 4229.37335535 1563.71513092 4225.75424471 1567.03446841 4222.12880117 C1571.36183258 4217.40237172 1575.70511771 4212.69090051 1580.05399966 4207.98426992 C1583.38914032 4204.37335535 1586.71513092 4200.75424471 1590.03446841 4197.12880117 C1594.36183258 4192.40237172 1598.70511771 4187.69090051 1603.05399966 4182.98426992 C1606.38914032 4179.37335535 1609.71513092 4175.75424471 1613.03446841 4172.12880117 C1616.85782143 4167.95286228 1620.6922023 4163.78734385 1624.53446841 4159.62880117 C1628.45576582 4155.38305252 1632.3748597 4151.13531882 1636.28446841 4146.87880117 C1637.10431216 4145.98676992 1637.92415591 4145.09473867 1638.76884341 4144.17567617 C1642.38842223 4140.18800459 1645.95658228 4136.15392306 1649.53446841 4132.12880117 C1473.97446841 4131.79880117 1298.41446841 4131.46880117 1117.53446841 4131.12880117 C1120.90921048 4118.75474692 1120.90921048 4118.75474692 1122.65653872 4113.21595937 C1123.04895251 4111.96834829 1123.4413663 4110.7207372 1123.84567142 4109.43531972 C1124.26794858 4108.10006441 1124.69025681 4106.76481893 1125.11259341 4105.42958242 C1125.56036576 4104.00837965 1126.00793662 4102.58711339 1126.45532107 4101.16578847 C1127.40355848 4098.15452354 1128.35303564 4095.14365368 1129.3035419 4092.13310415 C1130.8058026 4087.37479039 1132.30510504 4082.61554796 1133.80375552 4077.85609609 C1134.05376661 4077.06212832 1134.3037777 4076.26816055 1134.56136489 4075.45013314 C1135.06533216 4073.84965938 1135.56929151 4072.24918312 1136.0732429 4070.64870435 C1136.82692203 4068.25543693 1137.58086348 4065.86225228 1138.33486819 4063.46908742 C1142.27390834 4050.96553723 1146.19250368 4038.45569274 1150.09696841 4025.94130117 C1151.28813026 4022.12481859 1152.4795591 4018.30841945 1153.67118716 4014.49208242 C1153.9742377 4013.5215241 1154.27728824 4012.55096578 1154.58952212 4011.5509966 C1157.13487798 4003.40209142 1159.68724719 3995.25538987 1162.24149966 3987.10926992 C1162.55142982 3986.1208183 1162.55142982 3986.1208183 1162.86762118 3985.11239797 C1164.16078353 3980.98825691 1165.45407353 3976.86415589 1166.74738193 3972.74006063 C1166.96587047 3972.04334501 1167.18435901 3971.34662938 1167.40946841 3970.62880117 C1167.62795695 3969.93208555 1167.84644549 3969.23536992 1168.0715549 3968.51754171 C1173.61099203 3950.85295651 1179.14410006 3933.18641637 1184.66337466 3915.51551992 C1184.92177001 3914.68822566 1185.18016536 3913.86093141 1185.44639087 3913.00856763 C1186.49715206 3909.64430708 1187.54787094 3906.28003331 1188.59855723 3902.91574937 C1197.44092615 3874.60260177 1206.29547283 3846.29334097 1215.18576312 3817.99519902 C1215.90295611 3815.71203293 1216.61985841 3813.42877575 1217.33668399 3811.14549428 C1218.45293403 3807.59016603 1219.57003056 3804.03510487 1220.68782115 3800.48026067 C1221.28520491 3798.57992165 1221.88188877 3796.67936265 1222.47854495 3794.77879506 C1222.83908465 3793.63302999 1223.19962436 3792.48726491 1223.57108951 3791.30677968 C1223.87985019 3790.32451909 1224.18861087 3789.3422585 1224.50672793 3788.33023244 C1225.35422573 3785.69026057 1226.22057692 3783.05856891 1227.09870219 3780.42871171 C1227.36786594 3779.62228713 1227.63702969 3778.81586254 1227.91434991 3777.98500085 C1228.11898902 3777.37245495 1228.32362812 3776.75990906 1228.53446841 3776.12880117 C1317.65526538 3776.07891419 1406.77606442 3776.03159108 1504.10101199 3776.00177175 C1505.4742034 3776.0013534 1506.84739481 3776.00093504 1508.22058622 3776.00051668 C1537.04566227 3775.9917482 1565.87073847 3775.9835981 1594.6958149 3775.97616213 C1609.17609021 3775.97242601 1623.65636549 3775.9685711 1638.13664074 3775.96460384 C1640.32090491 3775.9640061 1642.50516909 3775.96341174 1644.68943326 3775.96281753 C1678.31504718 3775.95364002 1711.94065785 3775.94191822 1745.56626773 3775.92280751 C1746.28898143 3775.92239682 1747.01169513 3775.92198612 1747.75630924 3775.92156298 C1759.40823328 3775.91492605 1771.06015719 3775.90807515 1782.71208109 3775.90119585 C1816.28244882 3775.88137913 1849.85281403 3775.86315052 1883.42318702 3775.85538179 C1884.11386883 3775.85522118 1884.80455064 3775.85506058 1885.5161622 3775.8548951 C1900.68010337 3775.85139741 1915.84404457 3775.84871304 1931.00798602 3775.84679822 C1937.10990292 3775.84601338 1943.2118198 3775.84511151 1949.31373668 3775.84416944 C1950.31546467 3775.84401902 1950.31546467 3775.84401902 1951.33742959 3775.84386555 C1973.50200157 3775.84047729 1995.66655369 3775.82665433 2017.83111785 3775.80830507 C2039.43573683 3775.79064061 2061.04033736 3775.78389792 2082.64496332 3775.78829703 C2095.48111064 3775.79057899 2108.3171904 3775.78449351 2121.15332553 3775.76640854 C2129.73123515 3775.75514865 2138.30910059 3775.75481743 2146.88701328 3775.76330573 C2151.77242047 3775.76782922 2156.6577 3775.76766442 2161.54309344 3775.75415162 C2165.99594833 3775.74192916 2170.44857704 3775.74377048 2174.90142882 3775.75638124 C2176.49425848 3775.75850716 2178.08710522 3775.75570661 2179.67991302 3775.74709543 C2193.65303145 3775.67640076 2207.12792358 3777.53571778 2220.59696841 3781.37880117 C2221.33535953 3781.58859609 2222.07375064 3781.79839101 2222.83451724 3782.01454335 C2240.43098606 3787.22413553 2256.68264593 3796.09284785 2270.53446841 3808.12880117 C2271.3530231 3808.82618398 2272.17157779 3809.52356679 2273.01493716 3810.24208242 C2298.32723424 3832.33638203 2314.15579071 3862.12151999 2319.53446841 3895.12880117 C2319.71880435 3896.17036367 2319.90314029 3897.21192617 2320.09306216 3898.28505117 C2322.65694844 3920.61128214 2319.58274928 3941.97861492 2312.53446841 3963.12880117 C2312.15419497 3964.27091054 2311.77392154 3965.41301992 2311.38212466 3966.58973867 C2304.60263277 3985.44448717 2292.62430833 4001.33447689 2278.90702701 4015.67958242 C2276.98758079 4017.70623356 2275.13642306 4019.79050183 2273.28446841 4021.87880117 C2267.1869146 4028.68076552 2260.8794539 4035.28790156 2254.60868716 4041.92958242 C2251.36885685 4045.36465674 2248.1384122 4048.80849575 2244.90946841 4052.25380117 C2244.29321597 4052.91130361 2243.67696353 4053.56880605 2243.04203677 4054.24623281 C2236.52941168 4061.19766091 2230.03119607 4068.16251894 2223.53446841 4075.12880117 C2215.74726731 4083.47882652 2207.95185037 4091.82094369 2200.1401813 4100.14808828 C2195.93160521 4104.63545735 2191.73048432 4109.12968704 2187.53446841 4113.62880117 C2182.70898214 4118.80285529 2177.87501651 4123.96883553 2173.03446841 4129.12880117 C2165.85448265 4136.78306801 2158.6922066 4144.45373351 2151.53446841 4152.12880117 C2143.74797299 4160.47806983 2135.95304069 4168.81922128 2128.14237857 4177.14589101 C2121.59391455 4184.12854482 2115.06344918 4191.12793472 2108.53446841 4198.12880117 C2100.74797299 4206.47806983 2092.95304069 4214.81922128 2085.14237857 4223.14589101 C2078.59391455 4230.12854482 2072.06344918 4237.12793472 2065.53446841 4244.12880117 C2057.74726731 4252.47882652 2049.95185037 4260.82094369 2042.1401813 4269.14808828 C2037.93160521 4273.63545735 2033.73048432 4278.12968704 2029.53446841 4282.62880117 C2024.70898214 4287.80285529 2019.87501651 4292.96883553 2015.03446841 4298.12880117 C2007.85448265 4305.78306801 2000.6922066 4313.45373351 1993.53446841 4321.12880117 C1985.74797299 4329.47806983 1977.95304069 4337.81922128 1970.14237857 4346.14589101 C1963.59391455 4353.12854482 1957.06344918 4360.12793472 1950.53446841 4367.12880117 C1942.74797299 4375.47806983 1934.95304069 4383.81922128 1927.14237857 4392.14589101 C1920.59391455 4399.12854482 1914.06344918 4406.12793472 1907.53446841 4413.12880117 C1899.74726731 4421.47882652 1891.95185037 4429.82094369 1884.1401813 4438.14808828 C1879.93160521 4442.63545735 1875.73048432 4447.12968704 1871.53446841 4451.62880117 C1866.70898214 4456.80285529 1861.87501651 4461.96883553 1857.03446841 4467.12880117 C1849.85448265 4474.78306801 1842.6922066 4482.45373351 1835.53446841 4490.12880117 C1827.74797299 4498.47806983 1819.95304069 4506.81922128 1812.14237857 4515.14589101 C1805.59391455 4522.12854482 1799.06344918 4529.12793472 1792.53446841 4536.12880117 C1784.74797299 4544.47806983 1776.95304069 4552.81922128 1769.14237857 4561.14589101 C1762.59391455 4568.12854482 1756.06344918 4575.12793472 1749.53446841 4582.12880117 C1741.74726731 4590.47882652 1733.95185037 4598.82094369 1726.1401813 4607.14808828 C1721.93160521 4611.63545735 1717.73048432 4616.12968704 1713.53446841 4620.62880117 C1708.70898214 4625.80285529 1703.87501651 4630.96883553 1699.03446841 4636.12880117 C1691.85448265 4643.78306801 1684.6922066 4651.45373351 1677.53446841 4659.12880117 C1669.74797299 4667.47806983 1661.95304069 4675.81922128 1654.14237857 4684.14589101 C1647.59391455 4691.12854482 1641.06344918 4698.12793472 1634.53446841 4705.12880117 C1626.74726731 4713.47882652 1618.95185037 4721.82094369 1611.1401813 4730.14808828 C1606.93160521 4734.63545735 1602.73048432 4739.12968704 1598.53446841 4743.62880117 C1593.70898214 4748.80285529 1588.87501651 4753.96883553 1584.03446841 4759.12880117 C1576.85448265 4766.78306801 1569.6922066 4774.45373351 1562.53446841 4782.12880117 C1554.74797299 4790.47806983 1546.95304069 4798.81922128 1539.14237857 4807.14589101 C1532.59391455 4814.12854482 1526.06344918 4821.12793472 1519.53446841 4828.12880117 C1511.74797299 4836.47806983 1503.95304069 4844.81922128 1496.14237857 4853.14589101 C1489.59391455 4860.12854482 1483.06344918 4867.12793472 1476.53446841 4874.12880117 C1468.74726731 4882.47882652 1460.95185037 4890.82094369 1453.1401813 4899.14808828 C1448.93160521 4903.63545735 1444.73048432 4908.12968704 1440.53446841 4912.62880117 C1435.70898214 4917.80285529 1430.87501651 4922.96883553 1426.03446841 4928.12880117 C1418.85448265 4935.78306801 1411.6922066 4943.45373351 1404.53446841 4951.12880117 C1396.74797299 4959.47806983 1388.95304069 4967.81922128 1381.14237857 4976.14589101 C1374.59391455 4983.12854482 1368.06344918 4990.12793472 1361.53446841 4997.12880117 C1353.74797299 5005.47806983 1345.95304069 5013.81922128 1338.14237857 5022.14589101 C1331.59391455 5029.12854482 1325.06344918 5036.12793472 1318.53446841 5043.12880117 C1310.74726731 5051.47882652 1302.95185037 5059.82094369 1295.1401813 5068.14808828 C1290.93160521 5072.63545735 1286.73048432 5077.12968704 1282.53446841 5081.62880117 C1277.70898214 5086.80285529 1272.87501651 5091.96883553 1268.03446841 5097.12880117 C1260.85448265 5104.78306801 1253.6922066 5112.45373351 1246.53446841 5120.12880117 C1238.74797299 5128.47806983 1230.95304069 5136.81922128 1223.14237857 5145.14589101 C1216.59391455 5152.12854482 1210.06344918 5159.12793472 1203.53446841 5166.12880117 C1195.74726731 5174.47882652 1187.95185037 5182.82094369 1180.1401813 5191.14808828 C1175.93160521 5195.63545735 1171.73048432 5200.12968704 1167.53446841 5204.62880117 C1162.70898214 5209.80285529 1157.87501651 5214.96883553 1153.03446841 5220.12880117 C1145.85448265 5227.78306801 1138.6922066 5235.45373351 1131.53446841 5243.12880117 C1123.74797299 5251.47806983 1115.95304069 5259.81922128 1108.14237857 5268.14589101 C1101.59391455 5275.12854482 1095.06344918 5282.12793472 1088.53446841 5289.12880117 C1080.74797299 5297.47806983 1072.95304069 5305.81922128 1065.14237857 5314.14589101 C1058.59391455 5321.12854482 1052.06344918 5328.12793472 1045.53446841 5335.12880117 C1037.74726731 5343.47882652 1029.95185037 5351.82094369 1022.1401813 5360.14808828 C1017.93160521 5364.63545735 1013.73048432 5369.12968704 1009.53446841 5373.62880117 C1004.70898214 5378.80285529 999.87501651 5383.96883553 995.03446841 5389.12880117 C987.85448265 5396.78306801 980.6922066 5404.45373351 973.53446841 5412.12880117 C965.74797299 5420.47806983 957.95304069 5428.81922128 950.14237857 5437.14589101 C943.59391455 5444.12854482 937.06344918 5451.12793472 930.53446841 5458.12880117 C922.74797299 5466.47806983 914.95304069 5474.81922128 907.14237857 5483.14589101 C900.59391455 5490.12854482 894.06344918 5497.12793472 887.53446841 5504.12880117 C879.74726731 5512.47882652 871.95185037 5520.82094369 864.1401813 5529.14808828 C859.93160521 5533.63545735 855.73048432 5538.12968704 851.53446841 5542.62880117 C846.70898214 5547.80285529 841.87501651 5552.96883553 837.03446841 5558.12880117 C829.85448265 5565.78306801 822.6922066 5573.45373351 815.53446841 5581.12880117 C807.74797299 5589.47806983 799.95304069 5597.81922128 792.14237857 5606.14589101 C785.59391455 5613.12854482 779.06344918 5620.12793472 772.53446841 5627.12880117 C764.74797299 5635.47806983 756.95304069 5643.81922128 749.14237857 5652.14589101 C742.59391455 5659.12854482 736.06344918 5666.12793472 729.53446841 5673.12880117 C721.74726731 5681.47882652 713.95185037 5689.82094369 706.1401813 5698.14808828 C701.93160521 5702.63545735 697.73048432 5707.12968704 693.53446841 5711.62880117 C688.70898214 5716.80285529 683.87501651 5721.96883553 679.03446841 5727.12880117 C671.85448265 5734.78306801 664.6922066 5742.45373351 657.53446841 5750.12880117 C649.74797299 5758.47806983 641.95304069 5766.81922128 634.14237857 5775.14589101 C627.59391455 5782.12854482 621.06344918 5789.12793472 614.53446841 5796.12880117 C606.74726731 5804.47882652 598.95185037 5812.82094369 591.1401813 5821.14808828 C586.93160521 5825.63545735 582.73048432 5830.12968704 578.53446841 5834.62880117 C573.70898214 5839.80285529 568.87501651 5844.96883553 564.03446841 5850.12880117 C556.85448265 5857.78306801 549.6922066 5865.45373351 542.53446841 5873.12880117 C534.74797299 5881.47806983 526.95304069 5889.81922128 519.14237857 5898.14589101 C512.59391455 5905.12854482 506.06344918 5912.12793472 499.53446841 5919.12880117 C491.74797299 5927.47806983 483.95304069 5935.81922128 476.14237857 5944.14589101 C469.59391455 5951.12854482 463.06344918 5958.12793472 456.53446841 5965.12880117 C448.74726731 5973.47882652 440.95185037 5981.82094369 433.1401813 5990.14808828 C428.93160521 5994.63545735 424.73048432 5999.12968704 420.53446841 6003.62880117 C415.70898214 6008.80285529 410.87501651 6013.96883553 406.03446841 6019.12880117 C398.85448265 6026.78306801 391.6922066 6034.45373351 384.53446841 6042.12880117 C376.74797299 6050.47806983 368.95304069 6058.81922128 361.14237857 6067.14589101 C354.59391455 6074.12854482 348.06344918 6081.12793472 341.53446841 6088.12880117 C333.74797299 6096.47806983 325.95304069 6104.81922128 318.14237857 6113.14589101 C311.59391455 6120.12854482 305.06344918 6127.12793472 298.53446841 6134.12880117 C290.74726731 6142.47882652 282.95185037 6150.82094369 275.1401813 6159.14808828 C270.93160521 6163.63545735 266.73048432 6168.12968704 262.53446841 6172.62880117 C257.70898214 6177.80285529 252.87501651 6182.96883553 248.03446841 6188.12880117 C240.85448265 6195.78306801 233.6922066 6203.45373351 226.53446841 6211.12880117 C218.74797299 6219.47806983 210.95304069 6227.81922128 203.14237857 6236.14589101 C196.59391455 6243.12854482 190.06344918 6250.12793472 183.53446841 6257.12880117 C175.74797299 6265.47806983 167.95304069 6273.81922128 160.14237857 6282.14589101 C153.59391455 6289.12854482 147.06344918 6296.12793472 140.53446841 6303.12880117 C132.74726731 6311.47882652 124.95185037 6319.82094369 117.1401813 6328.14808828 C112.93160521 6332.63545735 108.73048432 6337.12968704 104.53446841 6341.62880117 C99.70898214 6346.80285529 94.87501651 6351.96883553 90.03446841 6357.12880117 C82.85448265 6364.78306801 75.6922066 6372.45373351 68.53446841 6380.12880117 C60.74797299 6388.47806983 52.95304069 6396.81922128 45.14237857 6405.14589101 C38.59391455 6412.12854482 32.06344918 6419.12793472 25.53446841 6426.12880117 C24.38084605 6427.36580222 23.22720019 6428.60278137 22.07353091 6429.83973867 C21.50126773 6430.45333242 20.92900455 6431.06692617 20.33940005 6431.69911367 C18.58388039 6433.58032628 16.82675429 6435.46002989 15.06962466 6437.33973867 C12.73583951 6439.83742225 10.41128949 6442.34323868 8.09306216 6444.85536367 C1.10210762 6452.40749424 -6.02881271 6459.81628362 -13.27949643 6467.11900502 C-14.6687227 6468.51912522 -16.05353481 6469.92362097 -17.43818784 6471.32826406 C-23.46695262 6477.36530405 -29.76391032 6482.85275489 -36.46553159 6488.12880117 C-37.25830503 6488.76052236 -38.05107846 6489.39224355 -38.86787534 6490.04310781 C-51.07380577 6499.68677387 -63.70085437 6507.89036008 -77.46553159 6515.12880117 C-78.1717767 6515.50585195 -78.87802182 6515.88290273 -79.60566831 6516.27137929 C-99.10454684 6526.54839074 -121.53656792 6533.64586203 -143.34053159 6536.75380117 C-144.19912778 6536.87859853 -145.05772397 6537.00339589 -145.94233823 6537.131975 C-153.10195918 6538.1400614 -160.23793554 6538.84501825 -167.46553159 6539.12880117 C-168.42330503 6539.17005117 -169.38107846 6539.21130117 -170.36787534 6539.25380117 C-194.45739359 6539.7602825 -218.74281226 6536.09196211 -241.46553159 6528.12880117 C-242.09701108 6527.91530019 -242.72849057 6527.70179921 -243.37910581 6527.48182851 C-289.15138473 6511.94593967 -328.71577816 6479.01548276 -352.43623471 6436.95253164 C-353.1094843 6435.75965346 -353.79020117 6434.57095126 -354.47920346 6433.38710195 C-385.83438436 6379.46291413 -385.0422978 6316.77124517 -370.17926145 6258.03567678 C-366.51269773 6243.52657869 -363.06992126 6228.97601523 -359.73896909 6214.38661367 C-359.19709211 6212.02153419 -358.65499657 6209.65650479 -358.11270261 6207.29152089 C-356.80700089 6201.59499491 -355.50340587 6195.89798997 -354.20074028 6190.20076901 C-352.66234175 6183.47323957 -351.12106805 6176.74636976 -349.57954943 6170.01955467 C-348.78405726 6166.5482055 -347.98866516 6163.07683339 -347.19329953 6159.60545522 C-347.03436217 6158.91177221 -346.87542482 6158.21808919 -346.71167117 6157.50338548 C-345.57473176 6152.54094179 -344.43828466 6147.5783855 -343.3020947 6142.61577016 C-343.05948471 6141.55610856 -343.05948471 6141.55610856 -342.81197351 6140.47503966 C-342.65023089 6139.76858577 -342.48848826 6139.06213188 -342.32184434 6138.3342703 C-336.52616926 6113.02019788 -330.71771971 6087.70906234 -324.90773129 6062.39827138 C-323.43858361 6055.99800165 -321.96970684 6049.59766978 -320.5009129 6043.19731885 C-312.76710531 6009.49713153 -305.02253834 5975.79943292 -297.26947904 5942.10366994 C-289.0943004 5906.572986 -280.93256329 5871.03922932 -272.77803159 5835.50380117 C-272.48455964 5834.22492906 -272.19108769 5832.94605695 -271.88872266 5831.62843114 C-268.7529067 5817.96327869 -265.61732712 5804.29807201 -262.48186886 5790.63283747 C-256.82823602 5765.99267505 -251.17356523 5741.35275084 -245.51862454 5716.71288854 C-244.94090901 5714.19564923 -244.363196 5711.67840934 -243.78548551 5709.16116887 C-232.9476802 5661.93795789 -222.1054929 5614.71575384 -211.26118588 5567.49403554 C-211.10028435 5566.79338696 -210.93938281 5566.09273837 -210.77360547 5565.37085801 C-209.30654199 5558.9825081 -207.83947624 5552.59415872 -206.37239766 5546.20581228 C-201.89127316 5526.69287502 -197.41073849 5507.17980243 -192.93074322 5487.66660589 C-189.77579183 5473.92481029 -186.62070806 5460.18304509 -183.46553159 5446.44130117 C-183.30253536 5445.73140192 -183.13953914 5445.02150268 -182.97160363 5444.29009134 C-174.24819362 5406.29703664 -165.5187019 5368.3053894 -156.77803159 5330.31630117 C-148.43332991 5294.04807477 -140.10189209 5257.77681646 -131.77803159 5221.50380117 C-131.48435948 5220.22406171 -131.19068738 5218.94432225 -130.88811612 5217.62580281 C-127.75250111 5203.9615447 -124.61713446 5190.29722961 -121.48188066 5176.63288862 C-105.54422035 5107.17197907 -89.60167989 5037.71218866 -73.65303159 4968.25380117 C-73.48876266 4967.5383869 -73.32449374 4966.82297263 -73.15524697 4966.08587915 C-64.14160332 4926.83033227 -55.12084829 4887.57642996 -46.08976102 4848.32489187 C-37.97459598 4813.05377639 -29.87304085 4777.77954788 -21.77803159 4742.50380117 C-21.48435948 4741.22406171 -21.19068738 4739.94432225 -20.88811612 4738.62580281 C-17.75250111 4724.9615447 -14.61713446 4711.29722961 -11.48188066 4697.63288862 C4.45577965 4628.17197907 20.39832011 4558.71218866 36.34696841 4489.25380117 C36.51123734 4488.5383869 36.67550626 4487.82297263 36.84475303 4487.08587915 C45.85631292 4447.83940731 54.87479447 4408.59453616 63.90399051 4369.35211736 C73.73815656 4326.61089885 83.55104992 4283.86480522 93.35897231 4241.1175583 C94.73391347 4235.12498229 96.10916063 4229.13247691 97.48513675 4223.14013845 C100.14853188 4211.53936007 102.80780442 4199.93766385 105.45692039 4188.33361703 C106.59916608 4183.33041187 107.74310842 4178.32759506 108.88745111 4173.32486916 C109.82802558 4169.21226301 110.76636111 4165.09915437 111.70305085 4160.9856618 C112.41557284 4157.85965081 113.13141259 4154.7343994 113.84672427 4151.60902578 C114.10509759 4150.47113292 114.36347091 4149.33324006 114.62967372 4148.1608656 C114.86706075 4147.12640113 115.10444777 4146.09193666 115.34902835 4145.02612478 C115.6579648 4143.67225368 115.6579648 4143.67225368 115.97314239 4142.29103166 C116.53446841 4140.12880117 116.53446841 4140.12880117 117.53446841 4138.12880117 C115.9828092 4138.13050991 115.9828092 4138.13050991 114.39980334 4138.13225317 C68.76823109 4138.18230568 23.13665673 4138.22858256 -22.49493527 4138.25583059 C-23.18676057 4138.25624476 -23.87858587 4138.25665893 -24.59137556 4138.25708565 C-39.62987945 4138.26606627 -54.66838363 4138.27437654 -69.70688826 4138.28199716 C-77.08273493 4138.28573887 -84.45858152 4138.28962857 -91.83442807 4138.29359609 C-92.56837806 4138.29398837 -93.30232805 4138.29438064 -94.05851895 4138.29478481 C-117.80915758 4138.30754817 -141.55977467 4138.33006658 -165.31040027 4138.35769283 C-189.73572686 4138.38605199 -214.16104154 4138.40447169 -238.58638431 4138.41054614 C-242.04346478 4138.41141049 -245.50054521 4138.41238739 -248.95762563 4138.4134329 C-249.63796809 4138.41363517 -250.31831054 4138.41383743 -251.01926944 4138.41404583 C-261.93098539 4138.4175785 -272.84266434 4138.43145874 -283.75436525 4138.44929727 C-294.74848464 4138.46704649 -305.74257305 4138.47344207 -316.73670698 4138.4693053 C-322.68375623 4138.46739215 -328.63069769 4138.47023385 -334.57772756 4138.48641759 C-340.03835226 4138.50116797 -345.49879812 4138.50165684 -350.95943158 4138.49149785 C-352.91945461 4138.4902449 -354.87948945 4138.4939211 -356.83948971 4138.50345071 C-375.19383952 4138.5873927 -393.45847733 4136.88118222 -411.27803159 4132.31630117 C-412.31951352 4132.05550771 -413.36099545 4131.79471425 -414.43403745 4131.52601796 C-444.53849761 4123.82670902 -473.16963411 4110.69452392 -497.46553159 4091.12880117 C-498.36014096 4090.42497304 -499.25475034 4089.72114492 -500.17646909 4088.99598867 C-522.31712408 4071.29615273 -540.86356326 4050.50755845 -555.31123471 4026.07753164 C-556.06743869 4024.80087762 -556.83150338 4023.52883969 -557.60420346 4022.26210195 C-589.43411503 3970.06270191 -596.35596261 3905.56461823 -586.27803159 3846.19130117 C-586.10634458 3845.14595205 -585.93465756 3844.10060292 -585.75776792 3843.02357656 C-581.75652993 3820.90743053 -573.7548159 3799.51574024 -566.70099378 3778.22553807 C-565.43564563 3774.40308369 -564.17527148 3770.57898976 -562.9145062 3766.75502187 C-561.07373006 3761.17299488 -559.23169122 3755.59138799 -557.38793588 3750.01034433 C-554.1454297 3740.19479125 -550.91338287 3730.37583627 -547.68818784 3720.55458242 C-547.45427209 3719.84228978 -547.22035634 3719.12999715 -546.97935224 3718.39611989 C-545.80077353 3714.80708117 -544.62237354 3711.21798379 -543.44404721 3707.6288622 C-541.05800295 3700.36147933 -538.66987714 3693.09478028 -536.28193784 3685.82801992 C-535.80042084 3684.36264735 -535.31890432 3682.89727463 -534.83738828 3681.43190175 C-528.87896253 3663.29933696 -522.91714173 3645.16788826 -516.95555234 3627.03636342 C-509.62286375 3604.73472334 -502.29301442 3582.43215218 -494.96553159 3560.12880117 C-486.88353179 3535.52885567 -478.79813248 3510.93003 -470.7103436 3486.3319872 C-463.12602845 3463.26514884 -455.54443306 3440.19741882 -447.96553159 3417.12880117 C-439.88353179 3392.52885567 -431.79813248 3367.93003 -423.7103436 3343.3319872 C-416.12602845 3320.26514884 -408.54443306 3297.19741882 -400.96553159 3274.12880117 C-392.88353179 3249.52885567 -384.79813248 3224.93003 -376.7103436 3200.3319872 C-369.12602845 3177.26514884 -361.54443306 3154.19741882 -353.96553159 3131.12880117 C-345.88353179 3106.52885567 -337.79813248 3081.93003 -329.7103436 3057.3319872 C-322.12602845 3034.26514884 -314.54443306 3011.19741882 -306.96553159 2988.12880117 C-298.88353179 2963.52885567 -290.79813248 2938.93003 -282.7103436 2914.3319872 C-275.12602845 2891.26514884 -267.54443306 2868.19741882 -259.96553159 2845.12880117 C-251.88353179 2820.52885567 -243.79813248 2795.93003 -235.7103436 2771.3319872 C-228.12602845 2748.26514884 -220.54443306 2725.19741882 -212.96553159 2702.12880117 C-204.88353179 2677.52885567 -196.79813248 2652.93003 -188.7103436 2628.3319872 C-183.03359585 2611.06679973 -177.35734646 2593.80144919 -171.68428159 2576.53505117 C-171.44751958 2575.81445264 -171.21075757 2575.09385412 -170.96682096 2574.35141927 C-168.59222118 2567.12413152 -166.21778504 2559.89679004 -163.84363294 2552.66935521 C-158.8607296 2537.50045983 -153.8753347 2522.33239038 -148.88420224 2507.16620046 C-147.27478602 2502.27553296 -145.66578459 2497.38472897 -144.05674863 2492.49393636 C-142.78340722 2488.62369651 -141.50975783 2484.75355865 -140.23530698 2480.88368398 C-139.99290532 2480.14753865 -139.75050366 2479.41139333 -139.5007565 2478.65294057 C-138.85079882 2476.67920704 -138.20071267 2474.70551581 -137.5506146 2472.73182851 C-137.02725831 2471.14026134 -136.50414251 2469.54861508 -135.98115659 2467.95692617 C-135.60022713 2466.7976958 -135.21929768 2465.63846544 -134.8268249 2464.44410688 C-131.39696001 2453.99737429 -128.00152971 2443.53976904 -124.62080503 2433.07704335 C-124.11602432 2431.51570321 -123.61121282 2429.95437301 -123.10637021 2428.39305288 C-121.89240481 2424.63841617 -120.67884773 2420.88364773 -119.46553159 2417.12880117 C-121.1952583 2417.13107949 -121.1952583 2417.13107949 -122.95992899 2417.13340384 C-173.83521832 2417.20014958 -224.71051087 2417.26185079 -275.58583188 2417.29817373 C-276.35732193 2417.29872595 -277.12881198 2417.29927818 -277.92368052 2417.29984714 C-294.69443679 2417.31182168 -311.46519355 2417.32290199 -328.23595102 2417.33306248 C-336.46156652 2417.33805138 -344.6871819 2417.34323766 -352.91279721 2417.34852773 C-354.14055055 2417.34931228 -354.14055055 2417.34931228 -355.39310699 2417.35011269 C-381.87340673 2417.3671264 -408.35367208 2417.39714783 -434.83395103 2417.43399005 C-462.0695541 2417.4718139 -489.30513819 2417.49636454 -516.54076708 2417.50446113 C-520.39679978 2417.50561357 -524.25283241 2417.50691611 -528.10886502 2417.50831014 C-529.2471324 2417.50871468 -529.2471324 2417.50871468 -530.40839508 2417.50912739 C-542.57254898 2417.51383513 -554.73664378 2417.53233531 -566.90077367 2417.5561293 C-579.16082049 2417.57981164 -591.42080935 2417.58864001 -603.68087819 2417.58280668 C-610.31107173 2417.58005166 -616.94112924 2417.58401807 -623.5713017 2417.60562307 C-700.58572397 2417.84386342 -768.617018 2400.86608732 -824.77803159 2345.06630117 C-830.7466111 2339.05188003 -836.3506395 2332.89576607 -841.46553159 2326.12880117 C-841.89672299 2325.56338613 -842.3279144 2324.99797109 -842.77217221 2324.41542226 C-867.65770768 2291.67267052 -884.10075101 2253.8305699 -890.46553159 2213.12880117 C-890.73152158 2211.44862905 -890.73152158 2211.44862905 -891.0028851 2209.73451406 C-892.62581934 2198.33930557 -892.82273515 2187.06369039 -892.77803159 2175.56630117 C-892.77620877 2174.593915 -892.77438596 2173.62152883 -892.77250791 2172.61967641 C-892.72715628 2158.2517788 -892.23439964 2144.2646012 -889.46553159 2130.12880117 C-889.30455991 2129.24240957 -889.14358823 2128.35601796 -888.97773862 2127.44276601 C-886.88107538 2116.01282953 -883.91164463 2104.9386467 -880.42256284 2093.85926992 C-879.83447087 2091.97885755 -879.83447087 2091.97885755 -879.23449826 2090.06045705 C-874.90413718 2076.24045113 -870.44059387 2062.46311046 -865.9671185 2048.6889208 C-864.77443014 2045.0150392 -863.58393957 2041.34044549 -862.39326596 2037.66591054 C-860.65398072 2032.29881519 -858.9141457 2026.93189873 -857.17355275 2021.56522733 C-854.08327353 2012.03693399 -850.99757863 2002.50716389 -847.91475034 1992.97645742 C-847.6893891 1992.27974872 -847.46402787 1991.58304002 -847.23183751 1990.86521894 C-846.09697169 1987.35667581 -844.96218713 1983.84810641 -843.82743955 1980.33952504 C-841.77003992 1973.97828535 -839.7119135 1967.6172808 -837.65384984 1961.25625592 C-836.50771474 1957.71378039 -835.36162546 1954.17129004 -834.21553159 1950.62880117 C-833.75719847 1949.21213443 -833.29886514 1947.79546776 -832.84053159 1946.37880117 C-832.61365659 1945.67755117 -832.38678159 1944.97630117 -832.15303159 1944.25380117 C-809.46553159 1874.12880117 -786.77803159 1804.00380117 -566.09053159 1121.87880117 C-565.75021956 1120.82692758 -565.75021956 1120.82692758 -565.40303254 1119.75380403 C-564.9446961 1118.3371278 -564.48635958 1116.9204516 -564.028023 1115.50377542 C-562.88223672 1111.96225518 -561.73645161 1108.42073456 -560.59066892 1104.87921315 C-558.52760839 1098.50246424 -556.46453961 1092.12571799 -554.40142655 1085.74898607 C-553.2548203 1082.20502008 -552.10822098 1078.66105184 -550.96162534 1075.11708242 C-550.62113062 1074.06466076 -550.62113062 1074.06466076 -550.27375722 1072.99097806 C-547.07667188 1063.10918674 -543.87997435 1053.22727003 -540.68352246 1043.34527379 C-530.87657051 1013.02678552 -521.0639167 982.71015495 -511.2422421 952.3964327 C-503.95760961 929.91297158 -496.67736137 907.42809783 -489.40303159 884.94130117 C-489.17701261 884.24261922 -488.95099362 883.54393728 -488.71812558 882.82408315 C-486.66695677 876.48335052 -484.61587061 870.14259116 -482.5648663 863.80180532 C-479.36672744 853.91460105 -476.16822203 844.02751542 -472.96943784 834.14051992 C-472.74244639 833.43892059 -472.51545495 832.73732126 -472.28158498 832.01446134 C-471.13490795 828.47024672 -469.9882247 824.92603411 -468.84153867 821.38182241 C-466.77864673 815.00576379 -464.71580988 808.62968736 -462.65296865 802.25361234 C-461.50715853 798.71200789 -460.36134488 795.17040459 -459.21553159 791.62880117 C-458.75719824 790.21213451 -458.2988649 788.79546784 -457.84053159 787.37880117 C-435.15303159 717.25380117 -412.46553159 647.12880117 -323.09053159 370.87880117 C-322.75021578 369.82691578 -322.75021578 369.82691578 -322.40302491 368.75378019 C-321.9447141 367.33718337 -321.48640302 365.92058664 -321.02809167 364.50398999 C-319.88191151 360.96125536 -318.73573606 357.41851921 -317.58957028 353.87577993 C-315.5312168 347.51353105 -313.47283131 341.15129253 -311.41426682 334.78911191 C-310.27377942 331.26432846 -309.13332004 327.73953594 -307.99287534 324.21473867 C-307.76685069 323.51616121 -307.54082604 322.81758374 -307.30795217 322.09783727 C-304.73872107 314.15692834 -302.17011391 306.21581812 -299.60273862 298.27430898 C-299.36493711 297.53873958 -299.12713561 296.80317018 -298.882128 296.0453108 C-297.92181977 293.0748279 -296.96152925 290.10433929 -296.00136495 287.13380986 C-293.4195799 279.14635759 -290.83621936 271.15942375 -288.24751401 263.17421132 C-287.34617007 260.39346844 -286.44490389 257.61270037 -285.54365659 254.83192617 C-285.21527515 253.81890243 -285.21527515 253.81890243 -284.88025975 252.78541356 C-282.28892163 244.78959784 -279.71391813 236.78884315 -277.16496396 228.77939016 C-263.77498825 186.70640909 -247.98312298 148.14669255 -220.46553159 113.12880117 C-219.69596128 112.14524648 -218.92639096 111.16169179 -218.13350034 110.14833242 C-204.10848018 92.63600995 -188.13391182 75.65522336 -170.05928159 62.31239492 C-168.53280334 61.17876034 -167.02975352 60.01378203 -165.52803159 58.84755117 C-119.29856401 23.17046206 -58.76719432 -0.12021155 0 0 Z " fill="#B21A1A" transform="translate(1142.4655315876007,249.87119883298874)"/>
<path d="M0 0 C1.09566212 -0.00177501 2.19132423 -0.00355002 3.32018823 -0.00537882 C6.98250513 -0.01010044 10.64478233 -0.00775027 14.30710101 -0.00541991 C16.97429302 -0.00737401 19.64148206 -0.00972276 22.30867302 -0.01254788 C28.1212182 -0.017906 33.93375529 -0.01956685 39.74630275 -0.01879714 C48.44808892 -0.01765917 57.14986571 -0.02225088 65.85164977 -0.02792798 C80.68362582 -0.03742876 95.51559997 -0.04214505 110.34757876 -0.04423732 C125.37804437 -0.04636688 140.40850706 -0.05062941 155.43897128 -0.05748004 C156.86313201 -0.05812596 156.86313201 -0.05812596 158.31606366 -0.05878493 C162.18302882 -0.06054331 166.04999396 -0.06231296 169.9169591 -0.06409795 C216.77916244 -0.08568739 263.64136636 -0.09657485 310.50357354 -0.10557419 C325.70038742 -0.10850878 340.89720116 -0.11187876 356.09401488 -0.1155414 C357.70248436 -0.11592884 357.70248436 -0.11592884 359.34344817 -0.1163241 C363.68180162 -0.11737035 368.02015507 -0.11841877 372.35850851 -0.11946992 C446.56579211 -0.13743368 520.77307593 -0.15281234 594.98036139 -0.16022895 C600.80815237 -0.16081292 606.63594334 -0.16141019 612.46373431 -0.16200657 C614.19779181 -0.16218375 614.19779181 -0.16218375 615.96688078 -0.16236451 C627.67900392 -0.16356188 639.39112707 -0.16477065 651.10325021 -0.16599704 C653.45154916 -0.16624227 655.79984811 -0.16648613 658.14814706 -0.16672861 C733.56493084 -0.17451812 808.98169905 -0.19690169 884.39847603 -0.22940504 C938.59275615 -0.25275398 992.78703317 -0.27430389 1046.98131824 -0.28141135 C1048.65346757 -0.28163188 1048.65346757 -0.28163188 1050.3593977 -0.28185687 C1074.83258369 -0.28504185 1099.30576965 -0.28709263 1123.77895583 -0.28808442 C1133.62621929 -0.28849915 1143.47348274 -0.28905404 1153.32074618 -0.28964633 C1154.937302 -0.28973733 1154.937302 -0.28973733 1156.5865155 -0.28983017 C1191.28557735 -0.29184524 1225.98462081 -0.3060768 1260.68367625 -0.32659133 C1295.63934426 -0.34718428 1330.59499102 -0.3550601 1365.55066448 -0.34551357 C1370.38482723 -0.34419518 1375.21899 -0.34301711 1380.0531528 -0.34192294 C1381.47454646 -0.34159317 1381.47454646 -0.34159317 1382.92465514 -0.34125673 C1397.90725379 -0.33814679 1412.8898117 -0.34845186 1427.87240092 -0.36439849 C1442.6179165 -0.37981294 1457.36337596 -0.38087444 1472.10889352 -0.36685025 C1480.74466017 -0.35906299 1489.38025493 -0.36208825 1498.01600426 -0.38148742 C1503.76508558 -0.39329627 1509.51404245 -0.39035691 1515.26311721 -0.37587277 C1518.51333565 -0.36808425 1521.7631591 -0.36840068 1525.01336561 -0.38249181 C1555.42070379 -0.50566303 1584.15324669 4.60033609 1611.53446841 18.12880117 C1612.64894351 18.6767333 1612.64894351 18.6767333 1613.78593326 19.23573476 C1622.97047681 23.80122076 1631.47200086 28.73704902 1639.53446841 35.12880117 C1640.40716372 35.81071523 1641.27985904 36.49262929 1642.17899966 37.19520742 C1644.65166311 39.14887104 1647.09756981 41.13079511 1649.53446841 43.12880117 C1650.49159732 43.89837148 1650.49159732 43.89837148 1651.46806216 44.68348867 C1655.26622466 47.81337758 1658.49692767 51.20630281 1661.67118716 54.96473867 C1662.9257248 56.42179077 1664.22175531 57.84400495 1665.55399966 59.23036367 C1696.28472883 91.45610128 1708.70983762 136.93111463 1707.81571841 180.51942617 C1706.84782181 208.3787167 1698.1591095 234.13995248 1688.72196841 260.12880117 C1687.77916262 262.74479345 1686.83936829 265.36186482 1685.89945865 267.97889882 C1683.77968107 273.87575828 1681.65023447 279.76906343 1679.51532912 285.66046125 C1677.38818536 291.53058964 1675.26962636 297.40379603 1673.15165591 303.27723867 C1670.42657273 310.82914924 1667.69370056 318.37820671 1664.95634341 325.92567617 C1660.13653974 339.21597832 1655.3408239 352.51495623 1650.54618335 365.81435186 C1649.3800189 369.04900364 1648.21370286 372.28360076 1647.04740787 375.51820546 C1645.63352634 379.43950879 1644.21967261 383.36082213 1642.80590701 387.28216726 C1639.49631596 396.46185337 1636.18560193 405.64113394 1632.87431216 414.82020742 C1624.42090243 438.25396079 1615.97014123 461.68865516 1607.53446841 485.12880117 C1598.62223984 509.89314937 1589.69309718 534.65138869 1580.76212955 559.40898305 C1577.51401231 568.41311726 1574.26627129 577.41738707 1571.01884341 586.42176992 C1570.67910495 587.36378507 1570.67910495 587.36378507 1570.33250308 588.32483083 C1568.73314489 592.75948281 1567.13380434 597.19414116 1565.53446841 601.62880117 C1563.70635585 606.69781607 1561.87823379 611.76682754 1560.05009341 616.83583242 C1559.7104758 617.77751523 1559.7104758 617.77751523 1559.36399722 618.73822194 C1556.10970483 627.761599 1552.85497772 636.78481917 1549.60000491 645.80795079 C1547.4947321 651.64403369 1545.3895647 657.4801546 1543.28446841 663.31630117 C1543.05416934 663.95477987 1542.82387027 664.59325856 1542.58659244 665.2510851 C1536.22981164 682.87480596 1529.87856298 700.50050926 1523.53446841 718.12880117 C1518.79322596 731.30325893 1514.04962882 744.47686172 1509.30009341 757.64833242 C1509.0757594 758.27046432 1508.85142539 758.89259622 1508.62029338 759.5335806 C1506.09106081 766.54756472 1503.560889 773.56120889 1501.02934146 780.57435781 C1500.10259581 783.14195978 1499.1759271 785.70958952 1498.24931216 788.27723867 C1497.90322437 789.23621336 1497.90322437 789.23621336 1497.55014491 790.21456128 C1494.32618525 799.14896551 1491.11167897 808.08672395 1487.9040668 817.02700979 C1486.12322863 821.99052531 1484.33999961 826.95318087 1482.55624843 831.91565019 C1481.10042502 835.96652581 1479.64782589 840.01853852 1478.19760871 844.07142431 C1477.09019821 847.16322808 1475.9779561 850.25329375 1474.86649966 853.34364492 C1474.47064166 854.45321553 1474.07478366 855.56278615 1473.66692996 856.70598012 C1473.29684314 857.7323055 1472.92675632 858.75863088 1472.54545474 859.81605703 C1472.22764544 860.70240331 1471.90983615 861.58874959 1471.58239627 862.50195485 C1470.40541628 865.45229683 1468.95501758 868.28770283 1467.53446841 871.12880117 C1338.17446841 871.12880117 1208.81446841 871.12880117 1075.53446841 871.12880117 C1076.39472207 866.8275329 1077.57402523 862.92893158 1079.06181216 858.83192617 C1079.32169925 858.10792119 1079.58158633 857.38391622 1079.84934878 856.6379717 C1080.71982108 854.21688505 1081.59573912 851.79780972 1082.47196841 849.37880117 C1083.09880005 847.64080829 1083.72550591 845.90277004 1084.35209537 844.16468984 C1090.38730606 827.44864587 1096.52374087 810.76961849 1102.66338992 794.09172231 C1107.80951763 780.11224179 1112.9267406 766.12235221 1118.03446841 752.12880117 C1124.5514808 734.27704469 1131.09083861 716.43366207 1137.64921451 698.59706289 C1143.86705012 681.68509424 1150.05689679 664.7630246 1156.23625064 647.83696157 C1161.90042218 632.32321407 1167.58384898 616.81669023 1173.28446841 601.31630117 C1180.22985672 582.43091406 1187.13846684 563.53225951 1194.03446841 544.62880117 C1201.2922971 524.73349505 1208.56779346 504.84488183 1215.87773013 484.96864492 C1221.61686568 469.36271969 1227.33196235 453.74814655 1233.03446841 438.12880117 C1239.14174704 421.40258902 1245.25845851 404.67988282 1251.39530826 387.96449453 C1252.18998826 385.79987143 1252.98442589 383.63515934 1253.77860904 381.4703539 C1254.87485428 378.48252535 1255.97207778 375.49505803 1257.06962466 372.50770742 C1257.3926607 371.62692022 1257.71569674 370.74613302 1258.04852176 369.83865529 C1258.34818347 369.02376134 1258.64784518 368.20886739 1258.95658755 367.36927968 C1259.34361598 366.31547864 1259.34361598 366.31547864 1259.73846316 365.24038869 C1260.63694681 362.85695357 1261.58847608 360.493782 1262.53446841 358.12880117 C870.49446841 358.12880117 478.45446841 358.12880117 74.53446841 358.12880117 C73.04946841 363.57380117 73.04946841 363.57380117 71.53446841 369.12880117 C70.85355875 371.33733976 70.15437787 373.54042107 69.42826724 375.73451406 C69.03903079 376.91571828 68.64979434 378.0969225 68.24876285 379.3139208 C67.833866 380.56380788 67.41896914 381.81369497 66.99149966 383.10145742 C66.54647868 384.44956449 66.10176411 385.79777274 65.65733218 387.14607412 C64.71396447 390.00679384 63.76912809 392.86702199 62.82307315 395.72685415 C60.30760578 403.3322214 57.80327087 410.94125658 55.30009341 418.55067617 C55.04938146 419.312621 54.7986695 420.07456582 54.54036021 420.85959989 C50.15318161 434.19722828 45.84904452 447.55996249 41.59696841 460.94130117 C34.96128195 481.81339295 28.13393578 502.61993663 21.27915835 523.42079335 C14.96949881 542.56868375 8.70330474 561.72734236 2.59696841 580.94130117 C-4.20769115 602.35204913 -11.2216798 623.69148462 -18.256387 645.0274294 C-25.08157364 665.72923645 -31.84867216 686.44585115 -38.45088315 707.22010976 C-44.74052572 726.99842323 -51.22548705 746.71071299 -57.721246 766.42200643 C-64.03078456 785.56948762 -70.29682448 804.72774896 -76.40303159 823.94130117 C-83.20783348 845.35249695 -90.22194003 866.69238993 -97.25683331 888.02876836 C-103.74320767 907.70275474 -110.19251152 927.3854715 -116.46553159 947.12880117 C-122.9936321 967.67495581 -129.71502358 988.15494499 -136.46553159 1008.62880117 C-143.55475839 1030.13004171 -150.5936676 1051.64346379 -157.45088315 1073.22010976 C-163.74052572 1092.99842323 -170.22548705 1112.71071299 -176.721246 1132.42200643 C-183.03078456 1151.56948762 -189.29682448 1170.72774896 -195.40303159 1189.94130117 C-202.20769115 1211.35204913 -209.2216798 1232.69148462 -216.256387 1254.0274294 C-223.08157364 1274.72923645 -229.84867216 1295.44585115 -236.45088315 1316.22010976 C-242.74052572 1335.99842323 -249.22548705 1355.71071299 -255.721246 1375.42200643 C-262.03078456 1394.56948762 -268.29682448 1413.72774896 -274.40303159 1432.94130117 C-281.20769115 1454.35204913 -288.2216798 1475.69148462 -295.256387 1497.0274294 C-302.08157364 1517.72923645 -308.84867216 1538.44585115 -315.45088315 1559.22010976 C-321.74052572 1578.99842323 -328.22548705 1598.71071299 -334.721246 1618.42200643 C-341.03078456 1637.56948762 -347.29682448 1656.72774896 -353.40303159 1675.94130117 C-360.20783348 1697.35249695 -367.22194003 1718.69238993 -374.25683331 1740.02876836 C-380.74320767 1759.70275474 -387.19251152 1779.3854715 -393.46553159 1799.12880117 C-399.9936321 1819.67495581 -406.71502358 1840.15494499 -413.46553159 1860.62880117 C-420.23664027 1881.1652067 -426.97830153 1901.70792101 -433.52803159 1922.31630117 C-440.70454016 1944.89667107 -448.09348192 1967.40553738 -455.51326776 1989.90688306 C-456.45846388 1992.77351541 -457.40306184 1995.64034479 -458.34770894 1998.5071581 C-458.97572737 2000.41183392 -459.60495978 2002.31610934 -460.23428464 2004.2203539 C-465.05192944 2018.83324141 -469.74146318 2033.48418909 -474.46553159 2048.12880117 C-316.72553159 2048.45880117 -158.98553159 2048.78880117 3.53446841 2049.12880117 C-6.46553159 2081.35102339 -6.46553159 2081.35102339 -10.07881284 2091.94130117 C-11.2035573 2095.27783144 -12.23834143 2098.63723338 -13.26313901 2102.00575429 C-15.44999319 2109.12881581 -17.75783344 2116.20862678 -20.09053159 2123.28505117 C-20.52377918 2124.60291624 -20.95688142 2125.9208291 -21.38984799 2127.23878652 C-22.97576796 2132.065303 -24.56430854 2136.89095599 -26.15278745 2141.71663076 C-27.50236228 2145.81688318 -28.85089676 2149.91747511 -30.19813657 2154.01849538 C-30.81963469 2155.90898639 -31.4426064 2157.79899276 -32.06562924 2159.68898183 C-34.27231668 2166.40431831 -36.39937074 2173.13783636 -38.4646771 2179.89787465 C-40.20073938 2185.5021755 -42.04689193 2191.06982642 -43.88740659 2196.64051992 C-44.30852971 2197.91882869 -44.7294897 2199.19719122 -45.15030026 2200.47560292 C-46.04160807 2203.18310858 -46.93342588 2205.89044532 -47.82566953 2208.59764272 C-55.13817675 2230.78899437 -62.3816862 2252.99961551 -69.46626401 2275.2649706 C-75.91412513 2295.51912022 -82.52988115 2315.71699134 -89.17951035 2335.90561086 C-89.80904528 2337.81724204 -90.43805034 2339.72904769 -91.06704831 2341.64085561 C-91.83403154 2343.97157842 -92.60207564 2346.30195254 -93.37146115 2348.63188344 C-95.00127405 2353.58467359 -96.5999205 2358.54199819 -98.10841489 2363.53314382 C-101.33505655 2374.04786926 -104.79664262 2384.48791567 -108.21553159 2394.94130117 C-108.92005983 2397.09816917 -109.62448774 2399.25506995 -110.32881284 2401.41200429 C-112.03989562 2406.6513151 -113.75221697 2411.8902198 -115.46553159 2417.12880117 C-167.88696732 2417.19734534 -220.30840654 2417.26101848 -272.72987485 2417.29817373 C-273.89556835 2417.29900207 -273.89556835 2417.29900207 -275.08481121 2417.29984714 C-291.97810029 2417.31182165 -308.87138984 2417.32290196 -325.7646801 2417.33306248 C-334.0503807 2417.33805138 -342.33608117 2417.34323766 -350.62178159 2417.34852773 C-351.85850399 2417.34931228 -351.85850399 2417.34931228 -353.12021067 2417.35011269 C-379.79451751 2417.36712675 -406.46879022 2417.39714845 -433.14307642 2417.43399005 C-460.57795252 2417.4718129 -488.01280976 2417.49636431 -515.44771148 2417.50446113 C-519.33185337 2417.50561357 -523.21599519 2417.50691611 -527.100137 2417.50831014 C-528.24670328 2417.50871468 -528.24670328 2417.50871468 -529.41643252 2417.50912739 C-541.66985019 2417.51383535 -553.9232092 2417.53233611 -566.17660305 2417.5561293 C-578.52626638 2417.57981019 -590.87587216 2417.58864036 -603.22555736 2417.58280668 C-609.90437539 2417.58005144 -616.58300227 2417.58402032 -623.26180005 2417.60562307 C-700.40233232 2417.84249348 -768.50964635 2400.97276836 -824.77803159 2345.06630117 C-830.7466111 2339.05188003 -836.3506395 2332.89576607 -841.46553159 2326.12880117 C-841.89672299 2325.56338613 -842.3279144 2324.99797109 -842.77217221 2324.41542226 C-867.65770768 2291.67267052 -884.10075101 2253.8305699 -890.46553159 2213.12880117 C-890.73152158 2211.44862905 -890.73152158 2211.44862905 -891.0028851 2209.73451406 C-892.62581934 2198.33930557 -892.82273515 2187.06369039 -892.77803159 2175.56630117 C-892.77620877 2174.593915 -892.77438596 2173.62152883 -892.77250791 2172.61967641 C-892.72715628 2158.2517788 -892.23439964 2144.2646012 -889.46553159 2130.12880117 C-889.30455991 2129.24240957 -889.14358823 2128.35601796 -888.97773862 2127.44276601 C-886.88107538 2116.01282953 -883.91164463 2104.9386467 -880.42256284 2093.85926992 C-879.83447087 2091.97885755 -879.83447087 2091.97885755 -879.23449826 2090.06045705 C-874.90413718 2076.24045113 -870.44059387 2062.46311046 -865.9671185 2048.6889208 C-864.77443014 2045.0150392 -863.58393957 2041.34044549 -862.39326596 2037.66591054 C-860.65398072 2032.29881519 -858.9141457 2026.93189873 -857.17355275 2021.56522733 C-854.08327353 2012.03693399 -850.99757863 2002.50716389 -847.91475034 1992.97645742 C-847.6893891 1992.27974872 -847.46402787 1991.58304002 -847.23183751 1990.86521894 C-846.09697169 1987.35667581 -844.96218713 1983.84810641 -843.82743955 1980.33952504 C-841.77003992 1973.97828535 -839.7119135 1967.6172808 -837.65384984 1961.25625592 C-836.50771474 1957.71378039 -835.36162546 1954.17129004 -834.21553159 1950.62880117 C-833.75719847 1949.21213443 -833.29886514 1947.79546776 -832.84053159 1946.37880117 C-832.61365659 1945.67755117 -832.38678159 1944.97630117 -832.15303159 1944.25380117 C-809.46553159 1874.12880117 -786.77803159 1804.00380117 -566.09053159 1121.87880117 C-565.75021956 1120.82692758 -565.75021956 1120.82692758 -565.40303254 1119.75380403 C-564.9446961 1118.3371278 -564.48635958 1116.9204516 -564.028023 1115.50377542 C-562.88223672 1111.96225518 -561.73645161 1108.42073456 -560.59066892 1104.87921315 C-558.52760839 1098.50246424 -556.46453961 1092.12571799 -554.40142655 1085.74898607 C-553.2548203 1082.20502008 -552.10822098 1078.66105184 -550.96162534 1075.11708242 C-550.62113062 1074.06466076 -550.62113062 1074.06466076 -550.27375722 1072.99097806 C-547.07667188 1063.10918674 -543.87997435 1053.22727003 -540.68352246 1043.34527379 C-530.87657051 1013.02678552 -521.0639167 982.71015495 -511.2422421 952.3964327 C-503.95760961 929.91297158 -496.67736137 907.42809783 -489.40303159 884.94130117 C-489.17701261 884.24261922 -488.95099362 883.54393728 -488.71812558 882.82408315 C-486.66695677 876.48335052 -484.61587061 870.14259116 -482.5648663 863.80180532 C-479.36672744 853.91460105 -476.16822203 844.02751542 -472.96943784 834.14051992 C-472.74244639 833.43892059 -472.51545495 832.73732126 -472.28158498 832.01446134 C-471.13490795 828.47024672 -469.9882247 824.92603411 -468.84153867 821.38182241 C-466.77864673 815.00576379 -464.71580988 808.62968736 -462.65296865 802.25361234 C-461.50715853 798.71200789 -460.36134488 795.17040459 -459.21553159 791.62880117 C-458.75719824 790.21213451 -458.2988649 788.79546784 -457.84053159 787.37880117 C-435.15303159 717.25380117 -412.46553159 647.12880117 -323.09053159 370.87880117 C-322.75021578 369.82691578 -322.75021578 369.82691578 -322.40302491 368.75378019 C-321.9447141 367.33718337 -321.48640302 365.92058664 -321.02809167 364.50398999 C-319.88191151 360.96125536 -318.73573606 357.41851921 -317.58957028 353.87577993 C-315.5312168 347.51353105 -313.47283131 341.15129253 -311.41426682 334.78911191 C-310.27377942 331.26432846 -309.13332004 327.73953594 -307.99287534 324.21473867 C-307.76685069 323.51616121 -307.54082604 322.81758374 -307.30795217 322.09783727 C-304.73872107 314.15692834 -302.17011391 306.21581812 -299.60273862 298.27430898 C-299.36493711 297.53873958 -299.12713561 296.80317018 -298.882128 296.0453108 C-297.92181977 293.0748279 -296.96152925 290.10433929 -296.00136495 287.13380986 C-293.4195799 279.14635759 -290.83621936 271.15942375 -288.24751401 263.17421132 C-287.34617007 260.39346844 -286.44490389 257.61270037 -285.54365659 254.83192617 C-285.21527515 253.81890243 -285.21527515 253.81890243 -284.88025975 252.78541356 C-282.28892163 244.78959784 -279.71391813 236.78884315 -277.16496396 228.77939016 C-263.77498825 186.70640909 -247.98312298 148.14669255 -220.46553159 113.12880117 C-219.69596128 112.14524648 -218.92639096 111.16169179 -218.13350034 110.14833242 C-204.10848018 92.63600995 -188.13391182 75.65522336 -170.05928159 62.31239492 C-168.53280334 61.17876034 -167.02975352 60.01378203 -165.52803159 58.84755117 C-119.29856401 23.17046206 -58.76719432 -0.12021155 0 0 Z " fill="#212121" transform="translate(1142.4655315876007,249.87119883298874)"/>
</svg>
