<?xml version="1.0" encoding="utf-8"?>
<svg xmlns="http://www.w3.org/2000/svg" viewBox="0 0 500 500">
  <path d="M 198.809 -0.076 C 198.888 -0.076 198.967 -0.076 199.048 -0.076 C 199.31 -0.076 199.574 -0.076 199.835 -0.076 C 200.026 -0.076 200.218 -0.076 200.409 -0.076 C 200.826 -0.076 201.242 -0.076 201.659 -0.076 C 202.282 -0.076 202.907 -0.076 203.532 -0.076 C 204.595 -0.076 205.658 -0.076 206.721 -0.076 C 207.799 -0.076 208.878 -0.076 209.956 -0.076 C 210.056 -0.076 210.056 -0.076 210.162 -0.076 C 210.438 -0.076 210.715 -0.076 210.993 -0.076 C 214.352 -0.076 217.714 -0.076 221.075 -0.076 C 222.163 -0.076 223.252 -0.076 224.343 -0.076 C 224.459 -0.076 224.459 -0.076 224.576 -0.076 C 224.888 -0.076 225.198 -0.076 225.508 -0.076 C 230.831 -0.076 236.151 -0.076 241.47 -0.076 C 241.891 -0.076 242.308 -0.076 242.727 -0.076 C 242.85 -0.076 242.85 -0.076 242.977 -0.076 C 243.816 -0.076 244.657 -0.076 245.495 -0.076 C 245.665 -0.076 245.832 -0.076 246.001 -0.076 C 251.41 -0.076 256.817 -0.076 262.226 -0.076 C 266.111 -0.076 269.997 -0.076 273.882 -0.076 C 274.003 -0.076 274.003 -0.076 274.124 -0.076 C 275.879 -0.076 277.634 -0.076 279.391 -0.076 C 280.094 -0.076 280.8 -0.076 281.508 -0.076 C 281.623 -0.076 281.623 -0.076 281.742 -0.076 C 284.23 -0.076 286.719 -0.076 289.205 -0.076 C 291.714 -0.076 294.218 -0.076 296.726 -0.076 C 297.072 -0.076 297.42 -0.076 297.765 -0.076 C 297.867 -0.076 297.867 -0.076 297.971 -0.076 C 299.046 -0.076 300.12 -0.076 301.195 -0.076 C 302.252 -0.076 303.309 -0.076 304.366 -0.076 C 304.986 -0.076 305.605 -0.076 306.223 -0.076 C 306.635 -0.076 307.05 -0.076 307.461 -0.076 C 307.693 -0.076 307.927 -0.076 308.16 -0.076 C 310.34 -0.076 312.401 0.226 314.364 1.333 C 314.444 1.333 314.444 1.333 314.524 1.433 C 315.183 1.735 315.794 2.137 316.371 2.642 C 316.434 2.642 316.498 2.742 316.562 2.742 C 316.74 2.943 316.914 3.044 317.088 3.245 C 317.157 3.245 317.157 3.245 317.228 3.345 C 317.5 3.547 317.732 3.849 317.959 4.151 C 318.049 4.252 318.142 4.351 318.237 4.452 C 320.44 6.867 321.332 10.389 321.268 13.71 C 321.2 15.823 320.575 17.836 319.898 19.849 C 319.831 20.05 319.765 20.251 319.696 20.452 C 319.545 20.855 319.391 21.358 319.238 21.76 C 319.087 22.265 318.935 22.666 318.781 23.068 C 318.586 23.672 318.391 24.275 318.195 24.881 C 317.849 25.885 317.505 26.892 317.161 27.9 C 317.077 28.2 316.993 28.401 316.91 28.602 C 316.809 28.905 316.708 29.206 316.606 29.509 C 316.369 30.314 316.131 30.919 315.893 31.621 C 315.289 33.433 314.683 35.243 314.077 37.056 C 313.438 38.968 312.797 40.879 312.157 42.691 C 311.924 43.395 311.692 44.1 311.459 44.803 C 311.434 44.904 311.434 44.904 311.41 44.904 C 311.295 45.307 311.18 45.608 311.067 46.011 C 310.934 46.312 310.804 46.715 310.672 47.119 C 310.649 47.218 310.649 47.218 310.623 47.218 C 310.39 47.923 310.157 48.628 309.922 49.331 C 309.772 49.734 309.621 50.238 309.469 50.64 C 309.453 50.74 309.436 50.74 309.419 50.84 C 308.964 52.149 308.509 53.559 308.054 54.866 C 307.713 55.873 307.373 56.877 307.034 57.884 C 307.017 57.986 307.001 57.986 306.984 57.986 C 306.803 58.59 306.622 59.093 306.44 59.597 C 306.374 59.797 306.306 60 306.24 60.199 C 306.216 60.3 306.216 60.3 306.192 60.4 C 305.96 61.105 305.73 61.708 305.499 62.413 C 305.37 62.816 305.244 63.218 305.115 63.52 C 305.011 63.923 304.907 64.225 304.803 64.527 C 304.723 64.727 304.644 64.928 304.564 65.232 C 304.534 65.331 304.506 65.331 304.478 65.433 C 304.452 65.533 304.425 65.634 304.397 65.733 C 304.374 65.733 304.352 65.835 304.328 65.934 C 304.244 66.136 304.14 66.337 304.038 66.538 C 294.762 66.538 285.486 66.538 275.931 66.538 C 275.993 66.237 276.075 65.934 276.184 65.634 C 276.202 65.533 276.222 65.533 276.24 65.433 C 276.302 65.232 276.365 65.13 276.427 64.928 C 276.474 64.829 276.517 64.627 276.563 64.527 C 276.997 63.218 277.434 61.91 277.875 60.704 C 278.245 59.597 278.61 58.59 278.976 57.482 C 279.445 56.073 279.913 54.766 280.384 53.357 C 280.83 52.048 281.272 50.74 281.717 49.533 C 282.123 48.326 282.532 47.119 282.938 45.91 C 283.437 44.503 283.932 42.992 284.425 41.584 C 284.947 40.074 285.469 38.565 285.995 37.056 C 286.403 35.849 286.815 34.64 287.224 33.433 C 287.663 32.126 288.101 30.919 288.541 29.609 C 288.598 29.409 288.654 29.308 288.71 29.106 C 288.789 28.905 288.869 28.602 288.948 28.401 C 288.97 28.401 288.993 28.302 289.018 28.2 C 289.039 28.2 289.06 28.101 289.082 27.999 C 289.109 27.999 289.109 27.999 289.139 27.9 C 289.203 27.698 289.27 27.496 289.339 27.295 C 261.226 27.295 233.118 27.295 204.153 27.295 C 204.047 27.698 204.047 27.698 203.937 28.2 C 203.889 28.302 203.84 28.502 203.787 28.705 C 203.76 28.803 203.731 28.803 203.703 28.905 C 203.673 29.005 203.645 29.106 203.613 29.206 C 203.581 29.308 203.549 29.409 203.516 29.509 C 203.449 29.71 203.381 30.011 203.315 30.213 C 203.135 30.816 202.954 31.321 202.773 31.924 C 202.758 32.025 202.738 32.025 202.719 32.126 C 202.406 33.131 202.096 34.137 201.793 35.144 C 201.315 36.752 200.827 38.363 200.337 39.974 C 199.882 41.483 199.432 42.892 198.996 44.4 C 198.508 46.011 198.005 47.62 197.5 49.231 C 197.01 50.84 196.525 52.451 196.053 54.061 C 195.602 55.571 195.135 57.08 194.672 58.59 C 194.218 60 193.769 61.507 193.33 62.916 C 192.844 64.627 192.341 66.237 191.835 67.847 C 191.369 69.357 190.908 70.866 190.458 72.376 C 189.99 73.985 189.508 75.495 189.025 77.104 C 188.515 78.714 188.011 80.426 187.521 82.036 C 187.069 83.545 186.602 85.054 186.137 86.563 C 185.684 88.073 185.236 89.481 184.796 90.991 C 184.312 92.601 183.807 94.211 183.302 95.922 C 182.815 97.431 182.328 99.041 181.855 100.651 C 181.404 102.161 180.939 103.669 180.472 105.179 C 180.021 106.587 179.571 108.098 179.132 109.606 C 178.646 111.216 178.142 112.827 177.638 114.436 C 177.149 116.046 176.664 117.657 176.189 119.167 C 175.739 120.777 175.274 122.285 174.807 123.795 C 174.356 125.204 173.908 126.713 173.468 128.122 C 172.98 129.833 172.477 131.443 171.973 133.053 C 171.509 134.563 171.046 136.072 170.597 137.58 C 170.128 139.191 169.646 140.701 169.161 142.31 C 168.674 143.819 168.193 145.43 167.723 147.04 C 167.208 148.749 166.678 150.461 166.145 152.171 C 166.079 152.373 166.012 152.574 165.944 152.876 C 165.898 152.976 165.853 153.077 165.806 153.279 C 165.464 154.385 165.127 155.493 164.789 156.599 C 176.075 156.599 187.362 156.701 198.991 156.701 C 199.036 156.5 199.085 156.197 199.134 155.994 C 199.166 155.896 199.2 155.794 199.235 155.693 C 199.254 155.593 199.273 155.493 199.292 155.493 C 199.312 155.392 199.335 155.291 199.354 155.291 C 199.376 155.191 199.398 155.191 199.421 155.091 C 199.49 154.788 199.564 154.587 199.635 154.385 C 199.685 154.183 199.736 154.082 199.789 153.883 C 199.922 153.48 200.059 152.976 200.192 152.574 C 200.402 151.869 200.615 151.267 200.826 150.562 C 200.905 150.26 200.983 150.058 201.059 149.758 C 201.294 149.053 201.526 148.248 201.757 147.542 C 201.774 147.443 201.795 147.443 201.814 147.34 C 201.906 147.04 201.995 146.738 202.082 146.437 C 202.964 143.517 204.39 140.701 206.305 138.387 C 206.349 138.387 206.395 138.285 206.442 138.285 C 206.761 137.882 207.104 137.48 207.451 137.078 C 207.507 137.078 207.564 136.977 207.625 136.977 C 208.799 135.669 210.074 134.664 211.539 133.859 C 211.588 133.757 211.635 133.757 211.687 133.757 C 214.862 131.945 218.383 131.543 221.931 131.443 C 222.287 131.443 222.64 131.443 222.994 131.443 C 223.853 131.443 224.71 131.443 225.565 131.443 C 225.886 131.443 226.205 131.443 226.528 131.443 C 228.8 131.443 231.074 131.443 233.349 131.443 C 234.049 131.443 234.751 131.443 235.453 131.443 C 235.504 131.443 235.554 131.443 235.606 131.443 C 235.816 131.443 236.025 131.443 236.232 131.443 C 238.159 131.342 240.084 131.342 242.009 131.342 C 243.863 131.342 245.72 131.342 247.574 131.342 C 247.691 131.342 247.808 131.342 247.927 131.342 C 248.399 131.342 248.872 131.342 249.344 131.342 C 250.666 131.342 251.987 131.342 253.309 131.342 C 253.368 131.342 253.43 131.342 253.492 131.342 C 255.402 131.342 257.31 131.342 259.221 131.342 C 259.313 131.342 259.313 131.342 259.408 131.342 C 260.409 131.342 261.415 131.243 262.415 131.243 C 266.38 131.243 270.345 131.243 274.313 131.243 C 275.311 131.243 276.308 131.243 277.307 131.243 C 277.399 131.243 277.399 131.243 277.495 131.243 C 279.399 131.243 281.306 131.243 283.212 131.243 C 283.272 131.243 283.332 131.243 283.393 131.243 C 284.717 131.14 286.038 131.14 287.359 131.14 C 287.832 131.14 288.305 131.14 288.779 131.14 C 288.897 131.14 289.015 131.14 289.131 131.14 C 290.869 131.14 292.606 131.14 294.342 131.14 C 296.38 131.14 298.418 131.14 300.455 131.14 C 300.665 131.14 300.873 131.14 301.083 131.14 C 301.133 131.14 301.186 131.14 301.24 131.14 C 301.982 131.14 302.727 131.14 303.471 131.041 C 305.453 131.041 307.434 131.041 309.417 131.041 C 309.595 131.041 309.775 131.041 309.953 131.041 C 310.042 131.041 310.132 131.041 310.224 131.041 C 310.863 131.041 311.504 131.041 312.142 131.041 C 313.142 131.041 314.14 131.041 315.141 131.041 C 315.645 131.041 316.149 131.041 316.651 131.041 C 317.12 131.041 317.588 131.041 318.059 131.041 C 318.23 131.041 318.4 131.041 318.57 131.041 C 321.67 131.041 324.713 131.744 327.199 133.859 C 327.26 133.859 327.32 133.959 327.384 133.959 C 329.967 136.173 331.546 139.291 331.951 142.712 C 332.235 145.43 331.684 147.945 330.802 150.461 C 330.749 150.663 330.696 150.864 330.641 150.965 C 330.502 151.367 330.363 151.768 330.222 152.171 C 330.087 152.574 329.955 152.976 329.821 153.378 C 329.635 153.883 329.446 154.485 329.26 154.989 C 328.895 155.994 328.529 157.103 328.168 158.11 C 327.732 159.416 327.297 160.726 326.857 161.933 C 326.343 163.442 325.829 164.951 325.317 166.461 C 324.822 167.869 324.322 169.38 323.824 170.787 C 323.357 172.196 322.894 173.505 322.431 174.913 C 321.911 176.422 321.389 177.931 320.863 179.441 C 320.452 180.649 320.043 181.856 319.634 183.063 C 319.199 184.271 318.764 185.581 318.324 186.788 C 317.845 188.196 317.367 189.604 316.89 191.014 C 316.389 192.523 315.888 193.932 315.381 195.442 C 315.331 195.541 315.276 195.742 315.222 195.844 C 315.15 196.145 315.076 196.346 315.002 196.548 C 314.981 196.548 314.962 196.649 314.942 196.649 C 314.684 197.454 314.415 198.159 314.15 198.963 C 305.18 198.963 296.214 198.963 286.972 198.963 C 287.215 198.058 287.215 198.058 287.354 197.655 C 287.385 197.553 287.416 197.553 287.45 197.454 C 287.484 197.353 287.517 197.252 287.551 197.15 C 287.587 197.051 287.624 196.949 287.66 196.851 C 287.737 196.548 287.814 196.346 287.893 196.145 C 288.018 195.844 288.145 195.442 288.268 195.139 C 288.422 194.636 288.574 194.234 288.726 193.832 C 289.127 192.724 289.523 191.515 289.924 190.409 C 289.98 190.308 290.039 190.108 290.095 189.906 C 290.894 187.692 291.689 185.378 292.484 183.164 C 292.779 182.36 293.07 181.454 293.366 180.649 C 293.388 180.547 293.41 180.547 293.43 180.446 C 293.6 179.945 293.768 179.542 293.936 179.038 C 294.079 178.636 294.22 178.233 294.363 177.831 C 294.381 177.73 294.399 177.73 294.419 177.63 C 294.641 177.026 294.861 176.422 295.083 175.719 C 295.479 174.612 295.877 173.505 296.274 172.397 C 296.304 172.297 296.304 172.297 296.33 172.196 C 296.43 171.895 296.526 171.694 296.623 171.391 C 296.643 171.291 296.662 171.291 296.683 171.191 C 296.722 171.089 296.762 170.989 296.802 170.888 C 297.454 169.077 298.1 167.166 298.745 165.354 C 298.787 165.253 298.829 165.154 298.869 165.052 C 299.227 163.945 299.584 162.939 299.939 161.933 C 300.045 161.631 300.145 161.429 300.25 161.127 C 300.317 160.927 300.384 160.726 300.45 160.524 C 300.486 160.424 300.525 160.323 300.565 160.121 C 300.597 160.121 300.631 160.021 300.665 159.92 C 300.739 159.719 300.739 159.719 300.812 159.518 C 300.75 159.518 300.688 159.518 300.625 159.518 C 295.944 159.617 291.26 159.617 286.581 159.617 C 286.502 159.617 286.426 159.617 286.345 159.617 C 284.371 159.617 282.398 159.617 280.424 159.719 C 278.575 159.719 276.724 159.719 274.875 159.719 C 273.964 159.719 273.055 159.719 272.144 159.719 C 272.053 159.719 271.964 159.719 271.87 159.719 C 269.721 159.719 267.574 159.719 265.428 159.719 C 265.334 159.719 265.24 159.719 265.144 159.719 C 262.956 159.719 260.769 159.719 258.582 159.719 C 257.817 159.719 257.057 159.817 256.294 159.817 C 256.2 159.817 256.107 159.817 256.01 159.817 C 253.857 159.817 251.705 159.817 249.553 159.817 C 249.462 159.817 249.37 159.817 249.277 159.817 C 248.371 159.817 247.465 159.817 246.559 159.817 C 244.627 159.817 242.692 159.817 240.758 159.817 C 239.349 159.817 237.944 159.92 236.538 159.92 C 235.777 159.92 235.017 159.92 234.258 159.92 C 229.852 159.92 229.852 159.92 225.45 160.021 C 225.379 160.221 225.31 160.424 225.238 160.625 C 225.221 160.726 225.2 160.826 225.18 160.826 C 224.752 162.235 224.331 163.543 223.915 164.951 C 223.529 166.258 223.137 167.467 222.748 168.776 C 222.599 169.277 222.452 169.681 222.309 170.184 C 222.291 170.284 222.275 170.284 222.257 170.386 C 221.958 171.291 221.658 172.297 221.358 173.304 C 220.93 174.712 220.501 176.122 220.071 177.53 C 219.642 178.837 219.21 180.247 218.782 181.655 C 218.354 183.063 217.929 184.472 217.5 185.88 C 217.469 185.982 217.44 186.081 217.408 186.183 C 217.394 186.183 217.376 186.283 217.363 186.283 C 217.285 186.585 217.209 186.788 217.134 187.09 C 217.118 187.09 217.103 187.191 217.087 187.191 C 216.765 188.297 216.443 189.303 216.12 190.308 C 216.093 190.409 216.067 190.51 216.041 190.611 C 215.907 191.014 215.774 191.515 215.642 191.918 C 215.4 192.724 215.158 193.529 214.918 194.234 C 214.783 194.736 214.649 195.139 214.513 195.641 C 214.462 195.742 214.408 195.943 214.354 196.145 C 214.327 196.246 214.299 196.346 214.272 196.346 C 212.74 201.379 212.74 201.379 212.659 201.68 C 212.606 201.78 212.552 201.982 212.499 202.183 C 212.364 202.585 212.23 203.089 212.099 203.492 C 211.845 204.297 211.591 205.102 211.338 205.907 C 211.22 206.31 211.101 206.712 210.98 207.114 C 210.924 207.315 210.867 207.517 210.81 207.616 C 210.729 207.919 210.651 208.22 210.571 208.422 C 210.549 208.523 210.524 208.623 210.498 208.723 C 210.478 208.723 210.458 208.825 210.435 208.925 C 210.416 208.925 210.397 209.026 210.378 209.126 C 210.313 209.328 210.244 209.527 210.177 209.729 C 224.373 209.729 238.572 209.729 253.199 209.83 C 253.103 210.233 253.003 210.636 252.856 211.137 C 252.824 211.24 252.824 211.24 252.796 211.339 C 252.751 211.44 252.708 211.541 252.664 211.742 C 252.542 212.046 252.422 212.446 252.301 212.849 C 252.276 212.849 252.251 212.949 252.224 213.051 C 251.942 213.856 251.664 214.761 251.387 215.666 C 250.955 216.974 250.518 218.282 250.081 219.591 C 249.527 221.302 248.984 223.013 248.44 224.722 C 248.137 225.629 247.832 226.534 247.532 227.44 C 247.504 227.54 247.478 227.64 247.451 227.741 C 247.317 228.145 247.184 228.547 247.051 228.949 C 246.836 229.654 246.621 230.257 246.407 230.963 C 246.298 231.264 246.192 231.566 246.085 231.969 C 245.832 232.673 245.579 233.477 245.328 234.282 C 245.207 234.685 245.087 234.987 244.967 235.39 C 244.91 235.592 244.855 235.792 244.797 235.893 C 244.718 236.195 244.638 236.395 244.559 236.698 C 244.535 236.698 244.512 236.8 244.488 236.899 C 244.466 236.899 244.444 236.999 244.423 237.1 C 244.404 237.1 244.385 237.202 244.366 237.301 C 244.303 237.402 244.233 237.603 244.165 237.805 C 230.085 237.805 216.006 237.805 201.501 237.805 C 201.429 238.107 201.429 238.107 201.356 238.509 C 201.31 238.609 201.259 238.811 201.206 239.012 C 201.192 239.012 201.177 239.113 201.162 239.113 C 201.114 239.314 201.065 239.415 201.016 239.616 C 200.984 239.717 200.949 239.818 200.916 239.917 C 200.844 240.221 200.77 240.422 200.701 240.624 C 200.586 241.027 200.473 241.327 200.358 241.73 C 200.321 241.83 200.282 242.032 200.245 242.131 C 200.226 242.131 200.206 242.233 200.188 242.333 C 200.132 242.434 200.073 242.635 200.02 242.837 C 199.742 243.741 199.468 244.647 199.198 245.554 C 198.786 246.86 198.373 248.17 197.959 249.577 C 197.512 250.986 197.066 252.495 196.62 253.905 C 196.195 255.313 195.769 256.721 195.344 258.13 C 195.22 258.532 195.099 258.836 194.976 259.238 C 194.964 259.337 194.947 259.337 194.931 259.44 C 194.608 260.446 194.285 261.552 193.962 262.559 C 193.936 262.66 193.911 262.759 193.883 262.861 C 193.751 263.263 193.619 263.666 193.486 264.169 C 193.244 264.873 193.003 265.678 192.762 266.484 C 192.627 266.887 192.492 267.389 192.359 267.791 C 192.303 267.992 192.251 268.194 192.198 268.295 C 192.172 268.394 192.144 268.497 192.116 268.596 C 190.583 273.628 190.583 273.628 190.503 273.829 C 190.449 274.03 190.396 274.232 190.34 274.432 C 190.208 274.835 190.072 275.238 189.938 275.74 C 189.696 276.546 189.456 277.249 189.217 278.055 C 189.11 278.458 189.004 278.759 188.897 279.062 C 188.844 279.262 188.792 279.465 188.739 279.665 C 188.436 280.571 188.137 281.576 187.834 282.583 C 187.786 282.684 187.737 282.886 187.69 282.985 C 187.658 283.187 187.626 283.289 187.593 283.387 C 187.58 283.387 187.562 283.387 187.546 283.489 C 187.441 283.892 187.334 284.192 187.231 284.495 C 187.173 284.697 187.116 284.898 187.06 285.1 C 187.037 285.199 187.013 285.199 186.988 285.301 C 186.685 286.307 186.384 287.312 186.083 288.318 C 214.372 288.318 214.372 288.318 243.233 288.419 C 243.183 288.822 243.124 289.225 243.017 289.627 C 243.002 289.627 242.987 289.728 242.973 289.828 C 242.927 289.928 242.878 290.131 242.828 290.331 C 242.792 290.433 242.756 290.633 242.723 290.735 C 242.648 291.035 242.572 291.337 242.497 291.64 C 242.375 292.142 242.257 292.646 242.135 293.048 C 242.009 293.553 241.883 294.053 241.757 294.559 C 241.334 296.268 240.913 297.877 240.492 299.589 C 240.395 299.992 240.299 300.395 240.202 300.795 C 240.128 300.998 240.053 301.3 239.979 301.601 C 239.946 301.803 239.911 301.904 239.878 302.003 C 239.211 304.721 238.572 307.337 237.952 309.953 C 237.855 310.357 237.757 310.759 237.66 311.262 C 237.47 312.067 237.282 312.871 237.091 313.676 C 236.87 314.582 236.648 315.589 236.426 316.494 C 236.015 318.205 235.606 320.016 235.198 321.727 C 234.828 323.336 234.457 324.846 234.087 326.456 C 234.064 326.558 234.041 326.658 234.017 326.758 C 234.004 326.858 233.994 326.858 233.981 326.959 C 233.922 327.16 233.862 327.463 233.805 327.663 C 233.793 327.765 233.781 327.765 233.768 327.866 C 233.387 329.475 233.007 331.086 232.627 332.696 C 232.495 333.299 232.363 333.801 232.231 334.404 C 231.034 339.537 231.034 339.537 229.85 344.669 C 229.137 347.689 228.41 350.807 227.686 353.927 C 227.482 354.731 227.277 355.639 227.074 356.543 C 226.709 358.052 226.341 359.662 225.975 361.172 C 225.955 361.273 225.934 361.375 225.912 361.472 C 225.735 362.178 225.559 362.983 225.384 363.688 C 225.23 364.392 225.077 364.996 224.923 365.699 C 224.903 365.801 224.881 365.902 224.859 366.001 C 224.492 367.511 224.128 369.121 223.765 370.631 C 223.561 371.536 223.358 372.342 223.154 373.247 C 222.419 376.367 221.685 379.487 220.962 382.605 C 220.266 385.625 219.558 388.643 218.85 391.662 C 218.656 392.466 218.458 393.373 218.262 394.177 C 217.91 395.687 217.559 397.197 217.207 398.707 C 217.177 398.805 217.177 398.805 217.144 399.007 C 216.977 399.713 216.806 400.416 216.639 401.121 C 216.491 401.725 216.344 402.328 216.198 403.032 C 216.174 403.133 216.155 403.133 216.134 403.234 C 215.783 404.743 215.432 406.253 215.083 407.763 C 214.888 408.567 214.692 409.373 214.497 410.277 C 214.278 411.183 214.062 412.089 213.842 413.095 C 213.825 413.095 213.807 413.196 213.79 413.297 C 213.3 415.31 212.815 417.421 212.333 419.534 C 211.781 421.951 211.223 424.265 210.659 426.679 C 210.491 427.384 210.322 428.189 210.153 428.894 C 210.124 428.994 210.095 429.095 210.065 429.196 C 210.024 429.396 209.979 429.598 209.935 429.799 C 209.774 430.504 209.608 431.207 209.446 431.911 C 209.425 432.013 209.425 432.013 209.403 432.113 C 209.162 433.119 208.918 434.126 208.675 435.131 C 208.425 436.239 208.172 437.247 207.921 438.352 C 207.768 439.057 207.614 439.66 207.459 440.364 C 207.355 440.767 207.25 441.169 207.145 441.673 C 207.085 441.873 207.026 442.175 206.967 442.479 C 206.899 442.68 206.834 442.98 206.77 443.284 C 206.752 443.383 206.732 443.383 206.712 443.485 C 206.694 443.585 206.676 443.687 206.659 443.785 C 206.639 443.785 206.639 443.785 206.614 443.888 C 206.607 443.988 206.599 444.088 206.592 444.088 C 206.616 444.088 206.639 444.088 206.662 444.188 C 206.912 443.888 207.156 443.687 207.384 443.383 C 207.633 443.082 207.892 442.78 208.15 442.479 C 208.591 441.975 209.026 441.471 209.46 440.969 C 209.589 440.767 209.72 440.667 209.849 440.466 C 209.897 440.466 209.897 440.466 209.947 440.364 C 210.227 440.064 210.507 439.762 210.788 439.359 C 211.028 439.157 211.267 438.855 211.504 438.555 C 211.814 438.252 212.126 437.85 212.437 437.447 C 212.676 437.247 212.915 436.943 213.153 436.641 C 213.461 436.339 213.775 435.938 214.085 435.534 C 214.324 435.334 214.563 435.031 214.802 434.728 C 215.112 434.429 215.423 434.026 215.736 433.623 C 215.974 433.421 216.213 433.119 216.451 432.818 C 216.762 432.515 217.071 432.113 217.384 431.711 C 217.624 431.509 217.863 431.207 218.1 430.905 C 218.411 430.504 218.723 430.201 219.034 429.799 C 219.274 429.598 219.511 429.295 219.749 428.994 C 220.059 428.591 220.372 428.289 220.683 427.887 C 220.922 427.686 221.161 427.384 221.399 427.082 C 221.71 426.679 222.019 426.378 222.334 425.976 C 222.571 425.775 222.81 425.471 223.049 425.17 C 223.358 424.868 223.67 424.465 223.982 424.062 C 224.222 423.862 224.46 423.561 224.697 423.258 C 225.007 422.957 225.32 422.554 225.631 422.152 C 225.87 421.951 226.108 421.648 226.347 421.347 C 226.656 421.044 226.969 420.642 227.279 420.239 C 227.518 420.037 227.757 419.736 227.996 419.435 C 228.304 419.032 228.618 418.73 228.93 418.327 C 229.167 418.026 229.406 417.825 229.645 417.523 C 229.919 417.221 230.193 416.919 230.471 416.618 C 230.876 416.114 231.283 415.611 231.689 415.107 C 232.131 414.605 232.572 414.101 233.016 413.599 C 233.257 413.297 233.496 413.095 233.731 412.793 C 234.043 412.392 234.354 412.089 234.666 411.686 C 234.903 411.485 235.141 411.183 235.379 410.882 C 235.693 410.48 236.001 410.176 236.314 409.776 C 236.553 409.472 236.791 409.271 237.029 408.97 C 237.341 408.567 237.651 408.264 237.963 407.863 C 238.202 407.561 238.443 407.36 238.681 407.057 C 238.991 406.655 239.301 406.353 239.611 405.952 C 239.853 405.648 240.092 405.448 240.328 405.147 C 240.639 404.743 240.951 404.44 241.262 404.04 C 241.501 403.736 241.74 403.536 241.977 403.234 C 242.289 402.832 242.6 402.53 242.912 402.127 C 243.151 401.824 243.39 401.624 243.628 401.323 C 243.937 400.92 244.248 400.618 244.562 400.215 C 244.8 399.913 245.039 399.713 245.279 399.41 C 245.586 399.007 245.899 398.707 246.21 398.304 C 246.45 398 246.688 397.799 246.927 397.499 C 247.236 397.097 247.548 396.794 247.86 396.391 C 248.097 396.089 248.334 395.889 248.573 395.587 C 248.884 395.184 249.196 394.883 249.509 394.481 C 249.747 394.177 249.985 393.976 250.224 393.674 C 250.534 393.271 250.845 392.971 251.159 392.568 C 251.397 392.266 251.636 392.064 251.873 391.763 C 252.184 391.36 252.494 391.059 252.807 390.655 C 253.047 390.354 253.285 390.153 253.523 389.851 C 253.834 389.448 254.144 389.146 254.456 388.743 C 254.697 388.443 254.933 388.24 255.171 387.937 C 255.483 387.536 255.793 387.235 256.106 386.832 C 256.345 386.53 256.583 386.229 256.821 386.027 C 257.131 385.625 257.441 385.322 257.755 384.919 C 257.994 384.619 258.233 384.417 258.471 384.114 C 258.743 383.813 259.019 383.41 259.295 383.107 C 259.703 382.705 260.109 382.202 260.515 381.701 C 260.956 381.195 261.399 380.695 261.84 380.19 C 262.08 379.889 262.319 379.586 262.557 379.385 C 262.868 378.983 263.179 378.579 263.491 378.278 C 263.729 377.977 263.967 377.675 264.205 377.474 C 264.517 377.07 264.826 376.667 265.14 376.367 C 265.379 376.065 265.618 375.763 265.856 375.561 C 266.165 375.159 266.477 374.756 266.79 374.455 C 267.028 374.153 267.267 373.851 267.506 373.65 C 267.814 373.247 268.127 372.844 268.438 372.541 C 268.678 372.242 268.916 371.939 269.154 371.737 C 269.466 371.334 269.776 370.932 270.087 370.631 C 270.326 370.329 270.563 370.028 270.802 369.826 C 271.112 369.424 271.425 369.121 271.736 368.718 C 271.976 368.418 272.214 368.116 272.452 367.914 C 272.763 367.511 273.075 367.108 273.386 366.807 C 273.624 366.505 273.864 366.204 274.102 366.001 C 274.412 365.6 274.723 365.198 275.034 364.895 C 275.274 364.593 275.513 364.292 275.751 364.09 C 276.062 363.688 276.373 363.286 276.685 362.983 C 276.922 362.682 277.161 362.381 277.399 362.178 C 277.708 361.775 278.022 361.375 278.334 361.071 C 278.573 360.77 278.811 360.467 279.049 360.265 C 279.359 359.863 279.67 359.462 279.983 359.16 C 280.222 358.857 280.462 358.556 280.699 358.355 C 281.009 357.953 281.32 357.551 281.633 357.248 C 281.872 356.945 282.111 356.643 282.346 356.342 C 282.658 356.039 282.969 355.639 283.281 355.335 C 283.521 355.033 283.757 354.731 283.995 354.43 C 284.309 354.129 284.617 353.726 284.931 353.423 C 285.17 353.121 285.408 352.82 285.645 352.62 C 285.921 352.217 286.197 351.914 286.471 351.612 C 286.878 351.111 287.286 350.708 287.689 350.203 C 288.132 349.701 288.574 349.196 289.018 348.695 C 289.256 348.391 289.496 348.091 289.733 347.788 C 290.043 347.488 290.356 347.085 290.667 346.783 C 290.907 346.481 291.143 346.181 291.383 345.877 C 291.693 345.576 292.005 345.173 292.316 344.87 C 292.554 344.57 292.792 344.266 293.032 343.966 C 293.342 343.663 293.654 343.261 293.965 342.96 C 294.204 342.657 294.442 342.356 294.681 342.054 C 294.99 341.753 295.302 341.35 295.615 341.047 C 295.853 340.745 296.092 340.443 296.33 340.141 C 296.641 339.839 296.951 339.437 297.264 339.136 C 297.503 338.834 297.741 338.532 297.979 338.229 C 298.291 337.927 298.601 337.526 298.914 337.224 C 299.154 336.921 299.39 336.618 299.627 336.317 C 299.939 336.016 300.25 335.613 300.563 335.209 C 300.802 335.009 301.04 334.707 301.278 334.404 C 301.587 334.104 301.899 333.702 302.211 333.399 C 302.451 333.098 302.689 332.794 302.927 332.493 C 303.237 332.191 303.549 331.788 303.861 331.488 C 304.1 331.185 304.337 330.885 304.575 330.581 C 304.886 330.279 305.198 329.876 305.509 329.576 C 305.748 329.274 305.988 328.972 306.224 328.669 C 306.535 328.367 306.847 327.965 307.158 327.663 C 307.397 327.362 307.637 327.06 307.875 326.758 C 308.185 326.456 308.498 326.053 308.807 325.751 C 309.046 325.451 309.285 325.149 309.524 324.846 C 309.834 324.543 310.146 324.14 310.456 323.738 C 310.696 323.538 310.934 323.237 311.173 322.933 C 311.485 322.633 311.795 322.23 312.107 321.827 C 312.346 321.626 312.584 321.324 312.821 321.024 C 313.133 320.72 313.443 320.317 313.756 319.915 C 313.995 319.714 314.233 319.413 314.472 319.11 C 314.745 318.808 315.021 318.507 315.296 318.205 C 315.576 317.802 315.857 317.501 316.138 317.199 C 316.196 317.098 316.256 317.098 316.319 316.997 C 316.576 316.695 316.831 316.394 317.088 316.091 C 304.501 316.091 291.912 315.991 278.942 315.991 C 279.185 315.085 279.185 315.085 279.307 314.582 C 279.337 314.582 279.365 314.381 279.394 314.381 C 279.425 314.28 279.456 314.18 279.484 313.979 C 279.518 313.877 279.548 313.777 279.582 313.676 C 279.649 313.474 279.717 313.273 279.786 312.973 C 279.891 312.672 280.001 312.269 280.109 311.966 C 280.125 311.866 280.144 311.765 280.162 311.765 C 280.197 311.564 280.235 311.462 280.272 311.363 C 280.325 311.161 280.379 311.061 280.432 310.859 C 280.717 309.853 280.995 308.946 281.276 307.94 C 281.363 307.639 281.446 307.337 281.535 307.036 C 281.556 307.036 281.578 306.933 281.597 306.835 C 281.78 306.231 281.965 305.627 282.146 305.022 C 282.171 304.922 282.171 304.922 282.194 304.822 C 282.284 304.52 282.378 304.219 282.471 303.915 C 282.485 303.816 282.501 303.816 282.517 303.714 C 282.535 303.714 282.549 303.614 282.567 303.512 C 282.963 302.205 283.359 300.896 283.754 299.489 C 283.775 299.387 283.792 299.387 283.811 299.286 C 283.887 299.087 283.961 298.785 284.036 298.582 C 284.672 296.369 285.306 294.256 285.943 292.042 C 285.997 291.84 286.047 291.74 286.098 291.539 C 286.177 291.237 286.257 290.934 286.339 290.735 C 286.38 290.532 286.424 290.433 286.466 290.23 C 286.492 290.23 286.518 290.131 286.545 290.03 C 286.569 289.928 286.589 289.828 286.612 289.828 C 286.674 289.525 286.734 289.426 286.799 289.124 C 286.817 289.124 286.837 289.023 286.858 289.023 C 286.872 288.923 286.888 288.923 286.9 288.822 C 293.291 288.822 299.682 288.822 306.66 288.822 C 306.759 288.822 306.858 288.822 306.956 288.822 C 309.022 288.822 311.089 288.822 313.158 288.822 C 314.194 288.822 315.232 288.822 316.27 288.822 C 316.427 288.822 316.585 288.822 316.742 288.822 C 319.153 288.822 321.563 288.822 323.975 288.822 C 324.027 288.822 324.078 288.822 324.131 288.822 C 324.967 288.822 325.803 288.822 326.638 288.822 C 329.045 288.822 331.452 288.822 333.859 288.822 C 333.908 288.822 333.959 288.822 334.009 288.822 C 335.096 288.822 336.185 288.822 337.272 288.822 C 337.709 288.822 338.146 288.822 338.584 288.822 C 338.657 288.822 338.657 288.822 338.73 288.822 C 340.318 288.822 341.907 288.822 343.498 288.822 C 345.047 288.822 346.595 288.822 348.145 288.822 C 349.066 288.822 349.985 288.822 350.905 288.822 C 351.521 288.822 352.135 288.822 352.75 288.822 C 353.102 288.822 353.451 288.822 353.802 288.822 C 354.121 288.822 354.44 288.822 354.76 288.822 C 354.873 288.822 354.988 288.822 355.102 288.822 C 356.104 288.822 357.07 288.923 358.036 289.225 C 358.089 289.225 358.142 289.225 358.197 289.326 C 359.459 289.728 360.624 290.331 361.616 291.237 C 361.676 291.337 361.735 291.438 361.796 291.438 C 363.609 293.15 364.746 295.462 365.13 297.979 C 365.144 298.079 365.158 298.079 365.17 298.18 C 365.356 299.891 365.134 301.501 364.629 303.11 C 364.601 303.212 364.574 303.313 364.547 303.412 C 364.06 304.822 363.2 306.03 362.218 307.136 C 362.081 307.337 361.946 307.439 361.815 307.639 C 361.377 308.142 360.926 308.646 360.476 309.149 C 360.244 309.451 360.011 309.652 359.779 309.953 C 359.736 310.055 359.692 310.055 359.647 310.155 C 359.18 310.658 358.713 311.161 358.246 311.664 C 357.687 312.369 357.129 312.973 356.57 313.576 C 356.269 313.979 355.967 314.28 355.666 314.682 C 355.319 315.085 354.974 315.488 354.625 315.89 C 354.112 316.394 353.598 316.997 353.085 317.6 C 352.526 318.205 351.969 318.908 351.408 319.512 C 350.938 320.016 350.471 320.621 350.001 321.123 C 349.444 321.727 348.884 322.432 348.324 323.035 C 347.854 323.538 347.386 324.14 346.918 324.645 C 346.359 325.249 345.8 325.954 345.241 326.558 C 344.939 326.858 344.638 327.26 344.336 327.563 C 343.991 327.965 343.643 328.367 343.297 328.77 C 342.782 329.374 342.27 329.978 341.755 330.482 C 341.197 331.185 340.636 331.788 340.077 332.493 C 339.609 332.997 339.138 333.501 338.672 334.002 C 338.113 334.707 337.555 335.311 336.994 335.915 C 336.526 336.52 336.056 337.021 335.589 337.526 C 335.031 338.229 334.471 338.834 333.912 339.437 C 333.609 339.839 333.308 340.141 333.007 340.544 C 332.662 340.946 332.314 341.35 331.967 341.753 C 331.452 342.254 330.938 342.858 330.425 343.46 C 329.866 344.065 329.308 344.771 328.748 345.373 C 328.278 345.877 327.811 346.481 327.342 346.984 C 326.784 347.587 326.225 348.292 325.664 348.896 C 325.195 349.398 324.727 350.002 324.258 350.505 C 323.7 351.111 323.142 351.811 322.581 352.418 C 322.28 352.72 321.978 353.121 321.678 353.423 C 321.332 353.826 320.986 354.229 320.639 354.631 C 320.124 355.236 319.61 355.839 319.097 356.342 C 318.538 357.046 317.98 357.649 317.419 358.355 C 316.949 358.857 316.482 359.362 316.013 359.863 C 315.455 360.569 314.897 361.172 314.336 361.875 C 314.035 362.178 313.733 362.481 313.43 362.883 C 313.086 363.286 312.74 363.688 312.391 364.09 C 311.877 364.593 311.364 365.198 310.851 365.801 C 310.292 366.404 309.734 367.108 309.173 367.713 C 308.704 368.218 308.234 368.821 307.767 369.323 C 307.209 369.926 306.648 370.631 306.09 371.235 C 305.621 371.737 305.152 372.342 304.683 372.844 C 304.125 373.449 303.567 374.153 303.007 374.756 C 302.705 375.059 302.402 375.461 302.103 375.763 C 301.756 376.166 301.409 376.569 301.063 376.97 C 300.548 377.575 300.034 378.177 299.521 378.782 C 298.962 379.385 298.402 379.989 297.844 380.695 C 297.375 381.195 296.906 381.701 296.438 382.303 C 295.879 382.907 295.32 383.511 294.76 384.216 C 294.292 384.718 293.821 385.222 293.354 385.723 C 292.797 386.429 292.237 387.033 291.676 387.736 C 291.373 388.04 291.075 388.34 290.772 388.743 C 290.429 389.146 290.079 389.549 289.733 389.952 C 289.22 390.454 288.705 391.059 288.191 391.662 C 287.632 392.266 287.074 392.971 286.515 393.573 C 286.045 394.077 285.577 394.681 285.107 395.184 C 284.551 395.787 283.991 396.492 283.431 397.097 C 283.13 397.499 282.829 397.799 282.527 398.102 C 282.182 398.505 281.833 398.906 281.487 399.309 C 280.971 399.913 280.458 400.517 279.945 401.121 C 279.388 401.725 278.829 402.328 278.269 403.032 C 277.798 403.536 277.331 404.04 276.863 404.643 C 276.303 405.246 275.745 405.85 275.187 406.556 C 274.715 407.057 274.247 407.561 273.778 408.166 C 273.221 408.769 272.663 409.373 272.101 410.076 C 271.799 410.379 271.498 410.681 271.198 411.084 C 270.853 411.485 270.505 411.888 270.157 412.291 C 269.644 412.793 269.129 413.397 268.618 414.001 C 268.057 414.704 267.499 415.31 266.938 415.912 C 266.47 416.417 266.002 417.018 265.535 417.523 C 264.976 418.126 264.415 418.831 263.855 419.435 C 263.386 419.937 262.916 420.541 262.45 421.044 C 261.893 421.648 261.333 422.354 260.772 422.957 C 260.47 423.36 260.169 423.66 259.87 423.963 C 259.523 424.366 259.175 424.768 258.83 425.17 C 258.314 425.775 257.801 426.378 257.287 426.981 C 256.727 427.586 256.168 428.189 255.61 428.894 C 255.141 429.396 254.672 429.9 254.204 430.504 C 253.644 431.108 253.087 431.711 252.525 432.416 C 252.056 432.919 251.589 433.421 251.119 434.026 C 250.562 434.63 250.002 435.234 249.443 435.938 C 249.14 436.239 248.841 436.54 248.537 436.943 C 248.193 437.346 247.847 437.748 247.498 438.151 C 246.986 438.655 246.472 439.257 245.957 439.862 C 245.399 440.566 244.84 441.169 244.281 441.774 C 243.811 442.276 243.34 442.882 242.873 443.383 C 242.316 444.088 241.757 444.692 241.197 445.296 C 240.893 445.698 240.594 445.998 240.293 446.303 C 239.948 446.705 239.598 447.108 239.254 447.51 C 238.738 448.114 238.226 448.716 237.711 449.321 C 237.153 449.924 236.593 450.528 236.035 451.233 C 235.566 451.734 235.096 452.239 234.63 452.841 C 234.07 453.446 233.511 454.049 232.951 454.753 C 232.484 455.258 232.012 455.76 231.544 456.364 C 230.988 456.968 230.428 457.572 229.866 458.275 C 229.566 458.577 229.265 458.98 228.964 459.283 C 228.618 459.686 228.27 460.089 227.923 460.492 C 227.409 460.992 226.896 461.597 226.382 462.2 C 225.823 462.803 225.265 463.51 224.705 464.112 C 224.235 464.617 223.768 465.219 223.298 465.723 C 222.741 466.326 222.181 467.03 221.621 467.635 C 221.15 468.137 220.683 468.742 220.216 469.243 C 219.657 469.848 219.097 470.553 218.537 471.156 C 218.237 471.559 217.935 471.861 217.634 472.163 C 217.286 472.566 216.942 472.969 216.593 473.372 C 216.081 473.974 215.567 474.579 215.054 475.182 C 214.495 475.785 213.936 476.389 213.375 477.094 C 212.906 477.597 212.437 478.099 211.969 478.704 C 211.412 479.307 210.852 479.91 210.292 480.616 C 209.822 481.118 209.355 481.623 208.885 482.225 C 208.327 482.83 207.768 483.433 207.209 484.136 C 206.908 484.439 206.605 484.74 206.305 485.144 C 205.958 485.547 205.612 485.949 205.264 486.35 C 204.749 486.854 204.238 487.457 203.724 488.061 C 203.165 488.663 202.608 489.37 202.045 489.973 C 201.576 490.477 201.109 491.081 200.64 491.583 C 200.557 491.683 200.474 491.785 200.392 491.885 C 200.351 491.885 200.31 491.986 200.269 491.986 C 200.14 492.187 200.016 492.288 199.889 492.489 C 199.722 492.59 199.556 492.79 199.388 492.992 C 198.888 493.596 198.375 494.199 197.858 494.703 C 197.757 494.803 197.657 494.904 197.558 495.005 C 197.126 495.508 196.675 495.911 196.195 496.314 C 196.136 496.414 196.079 496.414 196.022 496.514 C 195.146 497.219 194.241 497.824 193.255 498.426 C 193.203 498.426 193.153 498.426 193.1 498.527 C 191.704 499.232 190.094 499.835 188.532 500.037 C 188.469 500.037 188.408 500.037 188.346 500.037 C 187.83 500.136 187.319 500.237 186.802 500.237 C 186.732 500.237 186.663 500.237 186.594 500.237 C 184.865 500.337 183.123 500.037 181.496 499.433 C 181.449 499.331 181.404 499.331 181.358 499.331 C 178.076 498.124 175.239 495.608 173.537 492.389 C 173.49 492.288 173.44 492.187 173.391 492.187 C 171.144 488.061 171.199 483.232 172.265 478.704 C 172.527 477.597 172.776 476.489 173.015 475.382 C 173.054 475.182 173.094 475.08 173.13 474.88 C 173.224 474.377 173.318 473.974 173.412 473.571 C 173.521 473.068 173.631 472.464 173.743 471.962 C 173.799 471.762 173.857 471.459 173.915 471.156 C 173.924 471.156 173.936 471.056 173.949 471.056 C 174.032 470.653 174.11 470.251 174.193 469.848 C 174.21 469.848 174.21 469.848 174.229 469.748 C 174.239 469.646 174.251 469.646 174.262 469.547 C 174.678 467.635 175.095 465.723 175.513 463.81 C 175.617 463.308 175.721 462.803 175.829 462.302 C 176.382 459.686 176.938 457.169 177.494 454.553 C 178.08 451.836 178.665 449.12 179.249 446.401 C 179.27 446.303 179.292 446.201 179.314 446.101 C 179.537 445.095 179.764 443.988 179.988 442.98 C 180.393 441.069 180.799 439.157 181.204 437.346 C 181.246 437.146 181.285 436.943 181.327 436.742 C 182.105 433.119 182.882 429.497 183.661 425.874 C 183.671 425.874 183.684 425.775 183.695 425.775 C 183.801 425.27 183.907 424.768 184.01 424.265 C 184.332 422.755 184.656 421.245 184.976 419.837 C 185.202 418.73 185.428 417.724 185.655 416.618 C 185.665 416.618 185.678 416.517 185.688 416.417 C 186.316 413.599 186.939 410.681 187.568 407.763 C 188.167 404.944 188.763 402.227 189.361 399.41 C 189.381 399.309 189.401 399.208 189.423 399.109 C 189.651 398.102 189.874 396.994 190.096 395.988 C 191.24 390.655 192.384 385.322 193.527 380.09 C 193.54 379.989 193.551 379.889 193.564 379.889 C 194.211 376.87 194.856 373.851 195.506 370.833 C 196.086 368.218 196.667 365.5 197.247 362.783 C 197.268 362.682 197.289 362.581 197.312 362.481 C 197.537 361.472 197.761 360.367 197.984 359.362 C 199.128 354.028 200.273 348.695 201.416 343.363 C 201.427 343.363 201.44 343.261 201.453 343.261 C 202.099 340.242 202.746 337.224 203.391 334.204 C 204.098 330.984 204.8 327.663 205.503 324.443 C 205.601 323.941 205.7 323.437 205.8 323.035 C 205.993 322.128 206.181 321.224 206.372 320.419 C 206.453 320.016 206.536 319.613 206.618 319.21 C 206.685 318.908 206.753 318.606 206.819 318.306 C 206.87 318.003 206.921 317.802 206.972 317.6 C 206.991 317.501 207.009 317.399 207.03 317.298 C 207.046 317.199 207.063 317.098 207.079 317.098 C 207.103 316.997 207.103 316.997 207.126 316.897 C 207.166 316.695 207.166 316.695 207.236 316.494 C 207.126 316.494 207.126 316.494 207.013 316.494 C 203.741 316.494 200.468 316.595 197.197 316.595 C 197.145 316.595 197.097 316.595 197.045 316.595 C 195.968 316.595 194.89 316.595 193.812 316.595 C 193.281 316.595 192.754 316.595 192.224 316.595 C 192.172 316.595 192.119 316.595 192.065 316.595 C 190.361 316.595 188.659 316.595 186.956 316.595 C 185.205 316.595 183.453 316.595 181.702 316.595 C 181.454 316.595 181.205 316.595 180.956 316.595 C 180.909 316.595 180.86 316.595 180.809 316.595 C 180.029 316.595 179.245 316.595 178.461 316.595 C 177.674 316.595 176.886 316.595 176.097 316.595 C 175.671 316.595 175.245 316.595 174.819 316.595 C 174.427 316.595 174.036 316.595 173.645 316.595 C 173.503 316.595 173.361 316.595 173.222 316.595 C 171.905 316.595 170.597 316.494 169.317 316.091 C 169.244 316.091 169.168 316.091 169.092 315.991 C 166.934 315.488 164.88 314.381 163.138 312.973 C 163.075 312.871 163.01 312.871 162.944 312.771 C 161.357 311.462 160.026 309.853 158.991 307.94 C 158.935 307.841 158.881 307.739 158.826 307.639 C 156.544 303.714 156.048 298.684 156.77 294.156 C 156.781 294.156 156.794 294.053 156.807 293.955 C 157.095 292.244 157.669 290.633 158.174 289.023 C 158.262 288.721 158.355 288.419 158.447 288.119 C 158.578 287.716 158.709 287.211 158.841 286.808 C 159.074 286.105 159.306 285.301 159.536 284.595 C 159.553 284.495 159.571 284.495 159.587 284.393 C 159.673 284.092 159.756 283.892 159.841 283.59 C 160.013 282.985 160.185 282.484 160.357 281.979 C 160.39 281.777 160.425 281.678 160.458 281.576 C 160.886 280.168 161.314 278.859 161.741 277.451 C 162.267 275.74 162.792 274.03 163.316 272.32 C 163.898 270.407 164.476 268.596 165.057 266.685 C 165.6 264.873 166.144 263.162 166.688 261.352 C 167.268 259.44 167.847 257.629 168.429 255.716 C 168.971 253.905 169.515 252.194 170.057 250.384 C 170.637 248.572 171.217 246.66 171.799 244.748 C 172.341 243.037 172.886 241.226 173.427 239.515 C 174.006 237.603 174.588 235.691 175.169 233.88 C 175.71 232.068 176.255 230.358 176.798 228.547 C 177.377 226.635 177.958 224.824 178.537 222.913 C 179.082 221.101 179.625 219.389 180.168 217.579 C 180.748 215.768 181.327 213.856 181.906 211.944 C 182.451 210.233 182.995 208.422 183.54 206.712 C 184.119 204.799 184.699 202.889 185.277 201.075 C 185.684 199.668 186.091 198.359 186.498 197.051 C 186.515 196.949 186.533 196.949 186.55 196.851 C 186.719 196.346 186.891 195.742 187.06 195.241 C 187.419 194.033 187.775 192.925 188.133 191.718 C 188.249 191.414 188.364 191.014 188.481 190.611 C 188.572 190.308 188.662 190.006 188.754 189.706 C 188.77 189.706 188.789 189.604 188.807 189.604 C 188.852 189.404 188.899 189.303 188.946 189.102 C 188.983 189.001 189.022 188.899 189.059 188.699 C 189.086 188.699 189.114 188.599 189.141 188.498 C 189.386 187.692 189.631 186.888 189.874 186.081 C 189.91 185.982 189.945 185.88 189.982 185.68 C 190.069 185.478 190.155 185.178 190.242 184.875 C 190.119 184.875 190.119 184.875 189.993 184.875 C 186.343 184.875 182.697 184.875 179.049 184.875 C 178.994 184.875 178.938 184.875 178.88 184.875 C 177.677 184.875 176.477 184.875 175.272 184.875 C 174.684 184.875 174.095 184.875 173.503 184.875 C 173.416 184.875 173.416 184.875 173.324 184.875 C 171.427 184.875 169.526 184.875 167.631 184.875 C 165.677 184.875 163.723 184.875 161.771 184.875 C 161.494 184.875 161.219 184.875 160.94 184.875 C 160.86 184.875 160.86 184.875 160.778 184.875 C 159.905 184.875 159.033 184.875 158.16 184.875 C 157.281 184.875 156.401 184.875 155.524 184.875 C 155.047 184.875 154.572 184.875 154.095 184.875 C 148.575 184.875 143.696 183.567 139.668 179.34 C 139.239 178.837 138.84 178.436 138.473 177.931 C 138.441 177.831 138.41 177.831 138.378 177.73 C 136.599 175.214 135.417 172.397 134.962 169.277 C 134.942 169.077 134.942 169.077 134.925 168.978 C 134.798 168.172 134.779 167.265 134.798 166.361 C 134.798 166.258 134.798 166.258 134.798 166.16 C 134.798 165.052 134.835 163.945 135.034 162.939 C 135.034 162.837 135.052 162.737 135.07 162.737 C 135.216 161.832 135.435 161.027 135.672 160.121 C 135.726 160.021 135.726 160.021 135.761 159.817 C 136.072 158.812 136.399 157.707 136.709 156.701 C 136.802 156.397 136.89 156.097 136.964 155.794 C 137.092 155.392 137.219 154.989 137.346 154.587 C 137.565 153.883 137.783 153.178 138.01 152.373 C 138.025 152.373 138.043 152.272 138.058 152.272 C 138.141 151.971 138.221 151.669 138.302 151.466 C 138.45 150.965 138.598 150.461 138.745 149.957 C 138.828 149.758 138.911 149.455 138.992 149.151 C 139.025 149.053 139.057 148.951 139.091 148.85 C 139.107 148.749 139.124 148.749 139.141 148.65 C 140.765 143.317 142.393 137.983 158.218 85.759 C 158.242 85.658 158.242 85.658 158.266 85.557 C 158.3 85.457 158.333 85.356 158.366 85.255 C 158.449 84.952 158.529 84.751 158.612 84.451 C 158.761 83.947 158.909 83.445 159.056 83.042 C 159.137 82.739 159.221 82.437 159.304 82.135 C 159.328 82.135 159.328 82.135 159.351 82.036 C 159.581 81.231 159.809 80.525 160.039 79.721 C 160.743 77.407 161.446 75.093 162.15 72.778 C 162.675 71.066 163.194 69.357 163.719 67.646 C 163.732 67.545 163.75 67.545 163.767 67.445 C 163.913 66.941 164.06 66.538 164.207 66.037 C 164.437 65.232 164.665 64.527 164.895 63.722 C 164.911 63.722 164.928 63.621 164.945 63.52 C 165.027 63.318 165.108 63.017 165.19 62.715 C 165.339 62.313 165.487 61.809 165.635 61.307 C 165.716 61.005 165.799 60.803 165.881 60.501 C 165.913 60.4 165.948 60.3 165.981 60.199 C 167.606 54.766 169.233 49.432 175.643 28.302 C 175.667 28.2 175.667 28.2 175.69 28.101 C 175.723 27.999 175.756 27.9 175.789 27.798 C 175.871 27.596 175.955 27.295 176.038 26.992 C 176.185 26.49 176.331 25.986 176.48 25.583 C 176.561 25.283 176.644 24.98 176.722 24.678 C 176.742 24.678 176.758 24.578 176.774 24.578 C 176.958 23.974 177.141 23.371 177.326 22.766 C 177.343 22.666 177.36 22.666 177.379 22.566 C 177.447 22.364 177.517 22.163 177.583 21.862 C 177.771 21.258 177.955 20.654 178.141 20.05 C 178.205 19.849 178.269 19.648 178.335 19.446 C 178.358 19.345 178.358 19.345 178.382 19.245 C 178.568 18.641 178.752 18.038 178.936 17.434 C 179.895 14.214 181.028 11.296 183 8.578 C 183.056 8.476 183.11 8.476 183.167 8.378 C 184.175 6.969 185.319 5.66 186.616 4.654 C 186.724 4.554 186.832 4.554 186.939 4.452 C 190.256 1.735 194.595 -0.076 198.809 -0.076 Z" fill="#B21A1A" style="stroke-width: 1;"/>
  <path d="M 198.809 -0.076 C 198.888 -0.076 198.967 -0.076 199.048 -0.076 C 199.31 -0.076 199.574 -0.076 199.835 -0.076 C 200.026 -0.076 200.218 -0.076 200.409 -0.076 C 200.826 -0.076 201.242 -0.076 201.659 -0.076 C 202.282 -0.076 202.907 -0.076 203.532 -0.076 C 204.595 -0.076 205.658 -0.076 206.721 -0.076 C 207.799 -0.076 208.878 -0.076 209.956 -0.076 C 210.056 -0.076 210.056 -0.076 210.162 -0.076 C 210.438 -0.076 210.715 -0.076 210.993 -0.076 C 214.352 -0.076 217.714 -0.076 221.075 -0.076 C 222.163 -0.076 223.252 -0.076 224.343 -0.076 C 224.459 -0.076 224.459 -0.076 224.576 -0.076 C 224.888 -0.076 225.198 -0.076 225.508 -0.076 C 230.831 -0.076 236.151 -0.076 241.47 -0.076 C 241.891 -0.076 242.308 -0.076 242.727 -0.076 C 242.85 -0.076 242.85 -0.076 242.977 -0.076 C 243.816 -0.076 244.657 -0.076 245.495 -0.076 C 245.665 -0.076 245.832 -0.076 246.001 -0.076 C 251.41 -0.076 256.817 -0.076 262.226 -0.076 C 266.111 -0.076 269.997 -0.076 273.882 -0.076 C 274.003 -0.076 274.003 -0.076 274.124 -0.076 C 275.879 -0.076 277.634 -0.076 279.391 -0.076 C 280.094 -0.076 280.8 -0.076 281.508 -0.076 C 281.623 -0.076 281.623 -0.076 281.742 -0.076 C 284.23 -0.076 286.719 -0.076 289.205 -0.076 C 291.714 -0.076 294.218 -0.076 296.726 -0.076 C 297.072 -0.076 297.42 -0.076 297.765 -0.076 C 297.867 -0.076 297.867 -0.076 297.971 -0.076 C 299.046 -0.076 300.12 -0.076 301.195 -0.076 C 302.252 -0.076 303.309 -0.076 304.366 -0.076 C 304.986 -0.076 305.605 -0.076 306.223 -0.076 C 306.635 -0.076 307.05 -0.076 307.461 -0.076 C 307.693 -0.076 307.927 -0.076 308.16 -0.076 C 310.34 -0.076 312.401 0.226 314.364 1.333 C 314.444 1.333 314.444 1.333 314.524 1.433 C 315.183 1.735 315.794 2.137 316.371 2.642 C 316.434 2.642 316.498 2.742 316.562 2.742 C 316.74 2.943 316.914 3.044 317.088 3.245 C 317.157 3.245 317.157 3.245 317.228 3.345 C 317.5 3.547 317.732 3.849 317.959 4.151 C 318.049 4.252 318.142 4.351 318.237 4.452 C 320.44 6.867 321.332 10.389 321.268 13.71 C 321.2 15.823 320.575 17.836 319.898 19.849 C 319.831 20.05 319.765 20.251 319.696 20.452 C 319.545 20.855 319.391 21.358 319.238 21.76 C 319.087 22.265 318.935 22.666 318.781 23.068 C 318.586 23.672 318.391 24.275 318.195 24.881 C 317.849 25.885 317.505 26.892 317.161 27.9 C 317.077 28.2 316.993 28.401 316.91 28.602 C 316.809 28.905 316.708 29.206 316.606 29.509 C 316.369 30.314 316.131 30.919 315.893 31.621 C 315.289 33.433 314.683 35.243 314.077 37.056 C 313.438 38.968 312.797 40.879 312.157 42.691 C 311.924 43.395 311.692 44.1 311.459 44.803 C 311.434 44.904 311.434 44.904 311.41 44.904 C 311.295 45.307 311.18 45.608 311.067 46.011 C 310.934 46.312 310.804 46.715 310.672 47.119 C 310.649 47.218 310.649 47.218 310.623 47.218 C 310.39 47.923 310.157 48.628 309.922 49.331 C 309.772 49.734 309.621 50.238 309.469 50.64 C 309.453 50.74 309.436 50.74 309.419 50.84 C 308.964 52.149 308.509 53.559 308.054 54.866 C 307.713 55.873 307.373 56.877 307.034 57.884 C 307.017 57.986 307.001 57.986 306.984 57.986 C 306.803 58.59 306.622 59.093 306.44 59.597 C 306.374 59.797 306.306 60 306.24 60.199 C 306.216 60.3 306.216 60.3 306.192 60.4 C 305.96 61.105 305.73 61.708 305.499 62.413 C 305.37 62.816 305.244 63.218 305.115 63.52 C 305.011 63.923 304.907 64.225 304.803 64.527 C 304.723 64.727 304.644 64.928 304.564 65.232 C 304.534 65.331 304.506 65.331 304.478 65.433 C 304.452 65.533 304.425 65.634 304.397 65.733 C 304.374 65.733 304.352 65.835 304.328 65.934 C 304.244 66.136 304.14 66.337 304.038 66.538 C 294.762 66.538 285.486 66.538 275.931 66.538 C 275.993 66.237 276.075 65.934 276.184 65.634 C 276.202 65.533 276.222 65.533 276.24 65.433 C 276.302 65.232 276.365 65.13 276.427 64.928 C 276.474 64.829 276.517 64.627 276.563 64.527 C 276.997 63.218 277.434 61.91 277.875 60.704 C 278.245 59.597 278.61 58.59 278.976 57.482 C 279.445 56.073 279.913 54.766 280.384 53.357 C 280.83 52.048 281.272 50.74 281.717 49.533 C 282.123 48.326 282.532 47.119 282.938 45.91 C 283.437 44.503 283.932 42.992 284.425 41.584 C 284.947 40.074 285.469 38.565 285.995 37.056 C 286.403 35.849 286.815 34.64 287.224 33.433 C 287.663 32.126 288.101 30.919 288.541 29.609 C 288.598 29.409 288.654 29.308 288.71 29.106 C 288.789 28.905 288.869 28.602 288.948 28.401 C 288.97 28.401 288.993 28.302 289.018 28.2 C 289.039 28.2 289.06 28.101 289.082 27.999 C 289.109 27.999 289.109 27.999 289.139 27.9 C 289.203 27.698 289.27 27.496 289.339 27.295 C 261.226 27.295 233.118 27.295 204.153 27.295 C 204.047 27.698 204.047 27.698 203.937 28.2 C 203.889 28.302 203.84 28.502 203.787 28.705 C 203.76 28.803 203.731 28.803 203.703 28.905 C 203.673 29.005 203.645 29.106 203.613 29.206 C 203.581 29.308 203.549 29.409 203.516 29.509 C 203.449 29.71 203.381 30.011 203.315 30.213 C 203.135 30.816 202.954 31.321 202.773 31.924 C 202.758 32.025 202.738 32.025 202.719 32.126 C 202.406 33.131 202.096 34.137 201.793 35.144 C 201.315 36.752 200.827 38.363 200.337 39.974 C 199.882 41.483 199.432 42.892 198.996 44.4 C 198.508 46.011 198.005 47.62 197.5 49.231 C 197.01 50.84 196.525 52.451 196.053 54.061 C 195.602 55.571 195.135 57.08 194.672 58.59 C 194.218 60 193.769 61.507 193.33 62.916 C 192.844 64.627 192.341 66.237 191.835 67.847 C 191.369 69.357 190.908 70.866 190.458 72.376 C 189.99 73.985 189.508 75.495 189.025 77.104 C 188.515 78.714 188.011 80.426 187.521 82.036 C 187.069 83.545 186.602 85.054 186.137 86.563 C 185.684 88.073 185.236 89.481 184.796 90.991 C 184.312 92.601 183.807 94.211 183.302 95.922 C 182.815 97.431 182.328 99.041 181.855 100.651 C 181.404 102.161 180.939 103.669 180.472 105.179 C 180.021 106.587 179.571 108.098 179.132 109.606 C 178.646 111.216 178.142 112.827 177.638 114.436 C 177.149 116.046 176.664 117.657 176.189 119.167 C 175.739 120.777 175.274 122.285 174.807 123.795 C 174.356 125.204 173.908 126.713 173.468 128.122 C 172.98 129.833 172.477 131.443 171.973 133.053 C 171.509 134.563 171.046 136.072 170.597 137.58 C 170.128 139.191 169.646 140.701 169.161 142.31 C 168.674 143.819 168.193 145.43 167.723 147.04 C 167.208 148.749 166.678 150.461 166.145 152.171 C 166.079 152.373 166.012 152.574 165.944 152.876 C 165.898 152.976 165.853 153.077 165.806 153.279 C 165.464 154.385 165.127 155.493 164.789 156.599 C 176.099 156.599 187.409 156.701 199.064 156.701 C 198.347 159.215 198.347 159.215 198.086 160.021 C 198.005 160.221 197.932 160.524 197.858 160.726 C 197.702 161.329 197.535 161.832 197.371 162.336 C 197.337 162.434 197.306 162.536 197.275 162.637 C 197.162 163.039 197.047 163.442 196.931 163.743 C 196.839 164.045 196.741 164.448 196.643 164.749 C 196.599 164.851 196.556 165.052 196.509 165.154 C 196.351 165.655 196.199 166.16 196.051 166.662 C 195.927 167.166 195.795 167.568 195.662 167.97 C 195.632 168.07 195.602 168.172 195.572 168.271 C 195.508 168.473 195.443 168.674 195.381 168.875 C 194.855 170.587 194.336 172.297 193.829 174.006 C 193.366 175.517 192.892 177.127 192.416 178.636 C 192.37 178.837 192.324 178.938 192.278 179.139 C 192.224 179.239 192.17 179.441 192.115 179.642 C 192 180.045 191.883 180.347 191.774 180.75 C 191.543 181.555 191.296 182.36 191.049 183.164 C 190.998 183.265 190.947 183.465 190.898 183.667 C 190.775 184.07 190.653 184.472 190.53 184.875 C 186.771 184.875 183.012 184.875 179.254 184.875 C 179.168 184.875 179.168 184.875 179.085 184.875 C 177.873 184.875 176.662 184.875 175.45 184.875 C 174.857 184.875 174.261 184.875 173.669 184.875 C 173.578 184.875 173.578 184.875 173.49 184.875 C 171.576 184.875 169.663 184.875 167.75 184.875 C 165.783 184.875 163.816 184.875 161.85 184.875 C 161.571 184.875 161.292 184.875 161.014 184.875 C 160.933 184.875 160.933 184.875 160.847 184.875 C 159.968 184.875 159.091 184.875 158.212 184.875 C 157.326 184.875 156.442 184.875 155.554 184.875 C 155.076 184.875 154.598 184.875 154.117 184.875 C 148.588 184.875 143.703 183.667 139.668 179.34 C 139.239 178.837 138.84 178.436 138.473 177.931 C 138.441 177.831 138.41 177.831 138.378 177.73 C 136.599 175.214 135.417 172.397 134.962 169.277 C 134.942 169.077 134.942 169.077 134.925 168.978 C 134.798 168.172 134.779 167.265 134.798 166.361 C 134.798 166.258 134.798 166.258 134.798 166.16 C 134.798 165.052 134.835 163.945 135.034 162.939 C 135.034 162.837 135.052 162.737 135.07 162.737 C 135.216 161.832 135.435 161.027 135.672 160.121 C 135.726 160.021 135.726 160.021 135.761 159.817 C 136.072 158.812 136.399 157.707 136.709 156.701 C 136.802 156.397 136.89 156.097 136.964 155.794 C 137.092 155.392 137.219 154.989 137.346 154.587 C 137.565 153.883 137.783 153.178 138.01 152.373 C 138.025 152.373 138.043 152.272 138.058 152.272 C 138.141 151.971 138.221 151.669 138.302 151.466 C 138.45 150.965 138.598 150.461 138.745 149.957 C 138.828 149.758 138.911 149.455 138.992 149.151 C 139.025 149.053 139.057 148.951 139.091 148.85 C 139.107 148.749 139.124 148.749 139.141 148.65 C 140.765 143.317 142.393 137.983 158.218 85.759 C 158.242 85.658 158.242 85.658 158.266 85.557 C 158.3 85.457 158.333 85.356 158.366 85.255 C 158.449 84.952 158.529 84.751 158.612 84.451 C 158.761 83.947 158.909 83.445 159.056 83.042 C 159.137 82.739 159.221 82.437 159.304 82.135 C 159.328 82.135 159.328 82.135 159.351 82.036 C 159.581 81.231 159.809 80.525 160.039 79.721 C 160.743 77.407 161.446 75.093 162.15 72.778 C 162.675 71.066 163.194 69.357 163.719 67.646 C 163.732 67.545 163.75 67.545 163.767 67.445 C 163.913 66.941 164.06 66.538 164.207 66.037 C 164.437 65.232 164.665 64.527 164.895 63.722 C 164.911 63.722 164.928 63.621 164.945 63.52 C 165.027 63.318 165.108 63.017 165.19 62.715 C 165.339 62.313 165.487 61.809 165.635 61.307 C 165.716 61.005 165.799 60.803 165.881 60.501 C 165.913 60.4 165.948 60.3 165.981 60.199 C 167.606 54.766 169.233 49.432 175.643 28.302 C 175.667 28.2 175.667 28.2 175.69 28.101 C 175.723 27.999 175.756 27.9 175.789 27.798 C 175.871 27.596 175.955 27.295 176.038 26.992 C 176.185 26.49 176.331 25.986 176.48 25.583 C 176.561 25.283 176.644 24.98 176.722 24.678 C 176.742 24.678 176.758 24.578 176.774 24.578 C 176.958 23.974 177.141 23.371 177.326 22.766 C 177.343 22.666 177.36 22.666 177.379 22.566 C 177.447 22.364 177.517 22.163 177.583 21.862 C 177.771 21.258 177.955 20.654 178.141 20.05 C 178.205 19.849 178.269 19.648 178.335 19.446 C 178.358 19.345 178.358 19.345 178.382 19.245 C 178.568 18.641 178.752 18.038 178.936 17.434 C 179.895 14.214 181.028 11.296 183 8.578 C 183.056 8.476 183.11 8.476 183.167 8.378 C 184.175 6.969 185.319 5.66 186.616 4.654 C 186.724 4.554 186.832 4.554 186.939 4.452 C 190.256 1.735 194.595 -0.076 198.809 -0.076 Z" fill="#212121" style="stroke-width: 1;"/>
</svg>