<?xml version="1.0" encoding="utf-8"?>
<svg xmlns="http://www.w3.org/2000/svg" viewBox="0 0 500 500">
  <g transform="matrix(0.374539, 0, 0, 0.382388, 57.043093, 73.513683)" style="">
    <path d="M 369.377 -192.56 C 370.505 -192.56 371.632 -192.56 372.794 -192.57 C 374.033 -192.56 375.272 -192.56 376.548 -192.56 C 377.865 -192.57 379.181 -192.57 380.536 -192.57 C 384.193 -192.58 387.849 -192.58 391.505 -192.58 C 395.448 -192.59 399.39 -192.59 403.332 -192.6 C 411.954 -192.61 420.576 -192.62 429.198 -192.62 C 434.582 -192.63 439.966 -192.63 445.35 -192.63 C 460.256 -192.65 475.163 -192.66 490.07 -192.66 C 491.024 -192.66 491.978 -192.66 492.961 -192.66 C 493.918 -192.66 494.874 -192.66 495.859 -192.66 C 497.797 -192.66 499.735 -192.66 501.674 -192.66 C 502.635 -192.66 503.596 -192.66 504.587 -192.66 C 520.161 -192.67 535.736 -192.69 551.311 -192.71 C 567.302 -192.73 583.293 -192.75 599.284 -192.75 C 608.262 -192.75 617.24 -192.75 626.218 -192.77 C 633.864 -192.79 641.509 -192.79 649.155 -192.78 C 653.055 -192.78 656.955 -192.78 660.854 -192.79 C 664.428 -192.81 668.001 -192.81 671.575 -192.79 C 673.473 -192.79 675.371 -192.8 677.269 -192.81 C 689.107 -192.75 696.954 -189.94 705.557 -181.83 C 711.825 -175.17 714.855 -166.51 714.866 -157.42 C 713.912 -147.41 710.17 -138.07 706.803 -128.67 C 706.181 -126.92 705.559 -125.16 704.938 -123.41 C 702.928 -117.74 700.898 -112.08 698.866 -106.42 C 698.523 -105.47 698.18 -104.51 697.826 -103.53 C 692.9 -89.801 687.932 -76.091 682.944 -62.388 C 681.85 -59.381 680.758 -56.373 679.666 -53.365 C 677.902 -48.507 676.135 -43.649 674.365 -38.793 C 673.702 -36.973 673.04 -35.152 672.379 -33.331 C 671.471 -30.832 670.559 -28.335 669.647 -25.837 C 669.378 -25.095 669.109 -24.353 668.832 -23.588 C 666.98 -18.538 666.98 -18.538 665.866 -17.423 C 663.401 -17.328 660.965 -17.298 658.5 -17.31 C 657.73 -17.31 656.959 -17.309 656.165 -17.309 C 653.605 -17.31 651.046 -17.318 648.487 -17.326 C 646.717 -17.328 644.947 -17.329 643.177 -17.33 C 638.51 -17.334 633.843 -17.344 629.176 -17.355 C 624.417 -17.365 619.658 -17.369 614.899 -17.374 C 605.554 -17.385 596.21 -17.402 586.866 -17.423 C 588.79 -24.056 590.917 -30.575 593.28 -37.064 C 593.612 -37.984 593.945 -38.904 594.288 -39.852 C 594.998 -41.812 595.709 -43.772 596.421 -45.731 C 597.442 -48.54 598.459 -51.351 599.475 -54.162 C 607.497 -76.289 615.706 -98.345 623.866 -120.42 C 545.986 -120.09 468.106 -119.76 387.866 -119.42 C 370.87 -67.684 370.87 -67.684 354.186 -15.853 C 348.6 1.628 342.821 19.046 337.075 36.475 C 330.253 57.168 323.488 77.877 316.888 98.643 C 309.961 120.427 302.814 142.139 295.654 163.848 C 294.7 166.74 293.747 169.632 292.794 172.524 C 292.153 174.466 291.512 176.407 290.87 178.348 C 286.787 190.733 282.841 203.155 278.866 215.577 C 325.396 216.072 325.396 216.072 372.866 216.577 C 373.856 212.617 374.846 208.657 375.866 204.577 C 382.087 184.677 389.55 166.145 408.901 155.909 C 421.305 150.336 434.685 150.427 448.067 150.43 C 449.223 150.426 450.379 150.422 451.569 150.418 C 455.403 150.407 459.236 150.404 463.07 150.4 C 465.834 150.394 468.597 150.387 471.361 150.38 C 479.619 150.36 487.876 150.35 496.133 150.341 C 499.248 150.338 502.363 150.333 505.477 150.329 C 519.225 150.311 532.972 150.295 546.72 150.287 C 550.073 150.285 553.427 150.283 556.78 150.282 C 558.031 150.281 558.031 150.281 559.306 150.28 C 572.826 150.272 586.347 150.246 599.867 150.214 C 613.773 150.181 627.68 150.163 641.586 150.16 C 649.384 150.158 657.182 150.149 664.98 150.123 C 671.615 150.101 678.25 150.093 684.884 150.103 C 688.266 150.108 691.647 150.104 695.029 150.086 C 698.701 150.069 702.372 150.076 706.045 150.089 C 707.634 150.073 707.634 150.073 709.255 150.056 C 719.037 150.14 726.868 152.814 734.045 159.585 C 741.153 167.363 745.034 175.954 744.866 186.577 C 743.805 195.982 740.1 204.815 736.866 213.639 C 736.245 215.348 735.625 217.056 735.006 218.765 C 733.323 223.399 731.63 228.03 729.934 232.659 C 728.856 235.604 727.779 238.55 726.703 241.496 C 716.202 270.231 705.555 298.911 694.866 327.577 C 669.456 327.577 644.046 327.577 617.866 327.577 C 621.24 316.328 621.24 316.328 622.712 312.486 C 623.045 311.614 623.377 310.741 623.719 309.842 C 624.072 308.927 624.424 308.012 624.788 307.069 C 625.165 306.08 625.542 305.092 625.931 304.074 C 627.156 300.865 628.386 297.658 629.616 294.452 C 631.328 289.971 633.038 285.488 634.748 281.006 C 635.178 279.882 635.607 278.757 636.05 277.599 C 640.895 264.901 645.656 252.172 650.408 239.439 C 650.704 238.646 651 237.853 651.306 237.036 C 651.855 235.566 652.403 234.096 652.951 232.625 C 654.753 227.801 654.753 227.801 655.866 225.577 C 586.896 225.577 517.926 225.577 446.866 225.577 C 446.206 228.547 445.546 231.517 444.866 234.577 C 444.437 236.076 443.984 237.57 443.484 239.047 C 443.228 239.81 442.973 240.573 442.71 241.359 C 442.436 242.161 442.163 242.962 441.881 243.788 C 441.589 244.657 441.297 245.526 440.996 246.421 C 440.368 248.291 439.737 250.16 439.105 252.028 C 437.401 257.065 435.712 262.106 434.022 267.147 C 433.675 268.181 433.328 269.216 432.97 270.281 C 428.914 282.383 424.977 294.524 421.05 306.668 C 415.757 323.007 410.298 339.28 404.866 355.577 C 444.136 355.577 483.406 355.577 523.866 355.577 C 523.153 360.563 522.465 364.254 520.872 368.876 C 520.461 370.077 520.051 371.279 519.628 372.516 C 519.179 373.809 518.729 375.101 518.28 376.393 C 517.817 377.736 517.355 379.079 516.893 380.423 C 515.927 383.229 514.957 386.034 513.983 388.837 C 512.739 392.418 511.505 396.002 510.274 399.586 C 509.322 402.358 508.365 405.128 507.407 407.897 C 506.951 409.217 506.496 410.538 506.041 411.859 C 505.404 413.71 504.761 415.559 504.118 417.407 C 503.755 418.456 503.391 419.505 503.017 420.586 C 501.831 423.667 500.342 426.624 498.866 429.577 C 459.596 429.577 420.326 429.577 379.866 429.577 C 379.206 432.547 378.546 435.517 377.866 438.577 C 377.307 440.503 376.717 442.421 376.088 444.325 C 375.746 445.37 375.403 446.415 375.05 447.492 C 374.679 448.605 374.309 449.719 373.928 450.866 C 373.535 452.059 373.143 453.252 372.738 454.482 C 371.892 457.052 371.044 459.622 370.193 462.191 C 368.852 466.241 367.517 470.292 366.183 474.345 C 364.803 478.535 363.422 482.725 362.04 486.914 C 358.883 496.481 355.74 506.052 352.608 515.627 C 352.4 516.264 352.192 516.9 351.977 517.556 C 350.958 520.671 349.94 523.787 348.921 526.902 C 347.047 532.637 345.171 538.37 343.295 544.104 C 342.975 545.083 342.655 546.061 342.326 547.069 C 342.029 547.975 341.733 548.881 341.428 549.815 C 341.173 550.594 340.918 551.374 340.655 552.178 C 339.733 554.98 338.799 557.778 337.866 560.577 C 390.336 560.907 442.806 561.237 496.866 561.577 C 494.55 571.417 492.23 581.201 489.617 590.958 C 483.764 612.89 478.231 634.902 472.722 656.923 C 472.513 657.758 472.305 658.593 472.089 659.453 C 469.417 670.136 466.749 680.82 464.082 691.504 C 461.713 700.995 459.341 710.485 456.969 719.975 C 452.742 736.889 448.517 753.803 444.293 770.718 C 440.198 787.116 436.102 803.514 432.005 819.911 C 431.751 820.928 431.497 821.944 431.235 822.991 C 429.96 828.093 428.686 833.194 427.411 838.295 C 416.893 880.388 406.378 922.482 395.866 964.577 C 399.749 961.535 403.129 958.295 406.428 954.639 C 407.491 953.475 408.553 952.311 409.616 951.147 C 410.154 950.554 410.693 949.962 411.248 949.351 C 413.794 946.559 416.362 943.787 418.928 941.014 C 423.204 936.385 427.466 931.744 431.721 927.096 C 435.598 922.864 439.49 918.647 443.385 914.432 C 446.72 910.821 450.046 907.202 453.366 903.577 C 457.189 899.401 461.023 895.235 464.866 891.077 C 470.549 884.925 476.21 878.754 481.866 872.577 C 488.025 865.849 494.195 859.132 500.385 852.432 C 503.72 848.821 507.046 845.202 510.366 841.577 C 514.693 836.85 519.036 832.139 523.385 827.432 C 526.72 823.821 530.046 820.202 533.366 816.577 C 537.693 811.85 542.036 807.139 546.385 802.432 C 549.72 798.821 553.046 795.202 556.366 791.577 C 560.693 786.85 565.036 782.139 569.385 777.432 C 572.72 773.821 576.046 770.202 579.366 766.577 C 583.693 761.85 588.036 757.139 592.385 752.432 C 595.72 748.821 599.046 745.202 602.366 741.577 C 606.693 736.85 611.036 732.139 615.385 727.432 C 618.72 723.821 622.046 720.202 625.366 716.577 C 629.693 711.85 634.036 707.139 638.385 702.432 C 641.72 698.821 645.046 695.202 648.366 691.577 C 652.189 687.401 656.023 683.235 659.866 679.077 C 665.549 672.925 671.21 666.754 676.866 660.577 C 684.512 652.225 692.185 643.898 699.866 635.577 C 665.546 635.247 631.226 634.917 595.866 634.577 C 596.576 629.608 597.33 625.616 598.799 620.923 C 598.993 620.299 599.186 619.676 599.386 619.033 C 600.02 616.996 600.661 614.962 601.303 612.928 C 601.748 611.506 602.193 610.083 602.637 608.661 C 603.565 605.693 604.497 602.726 605.431 599.76 C 606.631 595.952 607.823 592.141 609.012 588.33 C 609.928 585.399 610.846 582.469 611.766 579.539 C 612.207 578.133 612.647 576.727 613.087 575.321 C 613.699 573.364 614.315 571.409 614.932 569.454 C 615.282 568.341 615.632 567.227 615.993 566.08 C 616.866 563.577 616.866 563.577 617.866 562.577 C 620.385 562.47 622.877 562.429 625.398 562.43 C 626.595 562.424 626.595 562.424 627.816 562.418 C 630.512 562.407 633.208 562.404 635.904 562.4 C 637.829 562.393 639.754 562.387 641.679 562.38 C 646.925 562.362 652.171 562.352 657.418 562.344 C 660.696 562.338 663.973 562.332 667.251 562.326 C 677.506 562.307 687.761 562.293 698.015 562.284 C 709.852 562.275 721.689 562.248 733.526 562.208 C 742.673 562.178 751.819 562.163 760.966 562.16 C 766.429 562.157 771.892 562.148 777.355 562.123 C 782.501 562.1 787.646 562.096 792.792 562.106 C 794.676 562.106 796.56 562.1 798.444 562.086 C 819.938 561.938 819.938 561.938 828.741 569.827 C 834.807 576.479 837.306 583.9 837.123 592.807 C 836.149 603.274 830.68 609.686 823.525 616.889 C 821.136 619.318 818.82 621.814 816.497 624.307 C 814.591 626.354 812.676 628.394 810.76 630.432 C 806.939 634.499 803.12 638.568 799.303 642.639 C 798.373 643.631 798.373 643.631 797.424 644.644 C 790.893 651.611 784.379 658.593 777.866 665.577 C 770.078 673.927 762.283 682.269 754.471 690.596 C 750.263 695.083 746.062 699.578 741.866 704.077 C 737.04 709.251 732.206 714.417 727.366 719.577 C 720.186 727.231 713.023 734.902 705.866 742.577 C 698.078 750.927 690.283 759.269 682.471 767.596 C 678.263 772.083 674.062 776.578 669.866 781.077 C 665.04 786.251 660.206 791.417 655.366 796.577 C 648.186 804.231 641.023 811.902 633.866 819.577 C 626.078 827.927 618.283 836.269 610.471 844.596 C 606.263 849.083 602.062 853.578 597.866 858.077 C 593.04 863.251 588.206 868.417 583.366 873.577 C 576.186 881.231 569.023 888.902 561.866 896.577 C 554.079 904.926 546.284 913.267 538.474 921.594 C 531.925 928.576 525.395 935.576 518.866 942.577 C 511.078 950.927 503.283 959.269 495.471 967.596 C 491.263 972.083 487.062 976.578 482.866 981.077 C 478.04 986.251 473.206 991.417 468.366 996.577 C 461.186 1004.23 454.023 1011.9 446.866 1019.58 C 439.078 1027.93 431.283 1036.27 423.471 1044.6 C 419.263 1049.08 415.062 1053.58 410.866 1058.08 C 405.415 1063.92 399.952 1069.76 394.482 1075.58 C 391.366 1078.9 388.256 1082.23 385.159 1085.57 C 382.259 1088.69 379.349 1091.81 376.428 1094.91 C 375.432 1095.97 374.438 1097.04 373.448 1098.1 C 364.424 1107.78 354.757 1114.81 341.252 1115.86 C 328.453 1116.17 319.005 1113.57 308.866 1105.58 C 300.474 1097.34 295.874 1085.74 295.523 1074.07 C 295.618 1064.37 298.121 1055.14 300.35 1045.75 C 300.835 1043.66 301.318 1041.58 301.8 1039.49 C 302.841 1034.99 303.891 1030.49 304.948 1025.99 C 306.648 1018.76 308.328 1011.52 310.006 1004.29 C 311.783 996.621 313.562 988.955 315.349 981.292 C 319.585 963.116 323.783 944.932 327.952 926.741 C 328.242 925.473 328.532 924.206 328.832 922.9 C 330.005 917.781 331.178 912.662 332.35 907.542 C 335.586 893.413 338.829 879.286 342.073 865.159 C 342.653 862.63 343.234 860.101 343.814 857.572 C 351.725 823.118 359.65 788.666 367.577 754.215 C 371.187 738.526 374.796 722.837 378.405 707.147 C 378.81 705.385 378.81 705.385 379.223 703.587 C 380.561 697.77 381.899 691.953 383.237 686.136 C 385.482 676.374 387.728 666.612 389.973 656.849 C 391.022 652.289 392.071 647.729 393.119 643.169 C 393.462 641.68 393.805 640.19 394.147 638.7 C 394.503 637.154 394.503 637.154 394.866 635.577 C 393.614 635.586 392.363 635.594 391.074 635.604 C 379.246 635.685 367.418 635.745 355.59 635.784 C 349.51 635.805 343.43 635.833 337.35 635.878 C 331.476 635.922 325.601 635.946 319.727 635.956 C 317.493 635.964 315.258 635.978 313.024 636 C 295.458 636.163 280.651 634.914 267.116 622.327 C 257.897 612.327 253.937 599.696 253.303 586.264 C 253.559 581.182 254.474 576.436 255.78 571.534 C 255.994 570.725 256.209 569.916 256.43 569.083 C 259.807 556.754 264.032 544.678 268.128 532.574 C 270.12 526.682 272.1 520.785 274.081 514.889 C 274.307 514.217 274.533 513.545 274.766 512.852 C 279.103 499.945 283.326 487.003 287.531 474.053 C 292.02 460.23 296.539 446.418 301.092 432.616 C 301.543 431.251 301.543 431.251 302.002 429.858 C 303.847 424.264 305.694 418.671 307.541 413.078 C 310.484 404.164 313.425 395.249 316.366 386.335 C 316.688 385.358 317.01 384.382 317.342 383.376 C 321.614 370.424 325.874 357.468 330.116 344.506 C 330.352 343.785 330.588 343.064 330.831 342.321 C 333.2 335.085 335.565 327.848 337.927 320.61 C 338.669 318.339 339.412 316.067 340.155 313.795 C 340.637 312.313 340.637 312.313 341.129 310.8 C 342.672 306.084 344.276 301.4 345.979 296.739 C 346.511 295.281 346.511 295.281 347.054 293.793 C 347.322 293.062 347.59 292.33 347.866 291.577 C 347.295 291.58 346.725 291.584 346.137 291.588 C 332.205 291.677 318.272 291.742 304.339 291.784 C 297.601 291.805 290.863 291.832 284.125 291.878 C 277.615 291.922 271.106 291.946 264.596 291.956 C 262.119 291.964 259.643 291.978 257.167 292 C 237.408 292.166 221.746 291.022 206.616 276.952 C 197.663 267.619 193.529 256.174 193.366 243.389 C 193.324 242.634 193.283 241.88 193.241 241.102 C 193.114 231.198 196.853 221.877 199.866 212.577 C 200.631 210.187 201.396 207.798 202.161 205.408 C 204.627 197.72 207.123 190.041 209.622 182.364 C 210.894 178.452 212.164 174.539 213.434 170.626 C 215.013 165.761 216.592 160.896 218.173 156.03 C 222.985 141.216 227.782 126.397 232.574 111.576 C 233.937 107.363 235.3 103.149 236.663 98.936 C 237.119 97.525 237.575 96.114 238.032 94.703 C 238.258 94.005 238.484 93.306 238.717 92.586 C 239.627 89.771 240.538 86.955 241.449 84.139 C 244.42 74.955 247.391 65.772 250.362 56.588 C 250.702 55.536 250.702 55.536 251.05 54.462 C 252.196 50.918 253.343 47.374 254.49 43.83 C 256.553 37.454 258.615 31.078 260.678 24.702 C 261.824 21.16 262.97 17.618 264.116 14.077 C 264.574 12.66 265.032 11.243 265.491 9.827 C 266.866 5.577 266.866 5.577 268.241 1.327 C 268.468 0.625 268.694 -0.076 268.928 -0.798 C 269.386 -2.215 269.845 -3.631 270.303 -5.048 C 271.449 -8.591 272.596 -12.135 273.742 -15.679 C 275.798 -22.032 277.853 -28.384 279.909 -34.737 C 281.046 -38.25 282.182 -41.762 283.319 -45.275 C 283.544 -45.971 283.77 -46.668 284.002 -47.386 C 287.103 -56.971 290.202 -66.558 293.297 -76.145 C 295.023 -81.487 296.749 -86.829 298.475 -92.171 C 299.64 -95.778 300.805 -99.39 301.969 -102.99 C 302.407 -104.35 302.845 -105.71 303.284 -107.07 C 303.498 -107.73 303.712 -108.39 303.933 -109.08 C 304.988 -112.35 306.046 -115.61 307.113 -118.88 C 307.531 -120.16 307.949 -121.44 308.368 -122.72 C 308.676 -123.66 308.676 -123.66 308.992 -124.63 C 310.283 -128.59 311.539 -132.57 312.772 -136.55 C 313.613 -139.25 314.471 -141.95 315.333 -144.65 C 315.917 -146.5 316.48 -148.36 317.041 -150.22 C 321.981 -165.59 331.931 -178.87 346.498 -186.37 C 353.923 -189.69 361.191 -192.54 369.377 -192.56 Z" fill="#B31A1A" style="stroke-width: 1;"/>
    <path d="M 369.377 -192.56 C 370.505 -192.56 371.632 -192.56 372.794 -192.57 C 374.033 -192.56 375.272 -192.56 376.548 -192.56 C 377.865 -192.57 379.181 -192.57 380.536 -192.57 C 384.193 -192.58 387.849 -192.58 391.505 -192.58 C 395.448 -192.59 399.39 -192.59 403.332 -192.6 C 411.954 -192.61 420.576 -192.62 429.198 -192.62 C 434.582 -192.63 439.966 -192.63 445.35 -192.63 C 460.256 -192.65 475.163 -192.66 490.07 -192.66 C 491.024 -192.66 491.978 -192.66 492.961 -192.66 C 493.918 -192.66 494.874 -192.66 495.859 -192.66 C 497.797 -192.66 499.735 -192.66 501.674 -192.66 C 502.635 -192.66 503.596 -192.66 504.587 -192.66 C 520.161 -192.67 535.736 -192.69 551.311 -192.71 C 567.302 -192.73 583.293 -192.75 599.284 -192.75 C 608.262 -192.75 617.24 -192.75 626.218 -192.77 C 633.864 -192.79 641.509 -192.79 649.155 -192.78 C 653.055 -192.78 656.955 -192.78 660.854 -192.79 C 664.428 -192.81 668.001 -192.81 671.575 -192.79 C 673.473 -192.79 675.371 -192.8 677.269 -192.81 C 689.107 -192.75 696.954 -189.94 705.557 -181.83 C 711.825 -175.17 714.855 -166.51 714.866 -157.42 C 713.912 -147.41 710.17 -138.07 706.803 -128.67 C 706.181 -126.92 705.559 -125.16 704.938 -123.41 C 702.928 -117.74 700.898 -112.08 698.866 -106.42 C 698.523 -105.47 698.18 -104.51 697.826 -103.53 C 692.9 -89.801 687.932 -76.091 682.944 -62.388 C 681.85 -59.381 680.758 -56.373 679.666 -53.365 C 677.902 -48.507 676.135 -43.649 674.365 -38.793 C 673.702 -36.973 673.04 -35.152 672.379 -33.331 C 671.471 -30.832 670.559 -28.335 669.647 -25.837 C 669.378 -25.095 669.109 -24.353 668.832 -23.588 C 666.98 -18.538 666.98 -18.538 665.866 -17.423 C 663.401 -17.328 660.965 -17.298 658.5 -17.31 C 657.73 -17.31 656.959 -17.309 656.165 -17.309 C 653.605 -17.31 651.046 -17.318 648.487 -17.326 C 646.717 -17.328 644.947 -17.329 643.177 -17.33 C 638.51 -17.334 633.843 -17.344 629.176 -17.355 C 624.417 -17.365 619.658 -17.369 614.899 -17.374 C 605.554 -17.385 596.21 -17.402 586.866 -17.423 C 588.79 -24.056 590.917 -30.575 593.28 -37.064 C 593.612 -37.984 593.945 -38.904 594.288 -39.852 C 594.998 -41.812 595.709 -43.772 596.421 -45.731 C 597.442 -48.54 598.459 -51.351 599.475 -54.162 C 607.497 -76.289 615.706 -98.345 623.866 -120.42 C 545.986 -120.09 468.106 -119.76 387.866 -119.42 C 370.87 -67.684 370.87 -67.684 354.186 -15.853 C 348.6 1.628 342.821 19.046 337.075 36.475 C 330.253 57.168 323.488 77.877 316.888 98.643 C 309.961 120.427 302.814 142.139 295.654 163.848 C 294.7 166.74 293.747 169.632 292.794 172.524 C 292.153 174.466 291.512 176.407 290.87 178.348 C 286.787 190.733 282.841 203.155 278.866 215.577 C 325.396 216.072 325.396 216.072 372.866 216.577 C 370.616 226.701 370.616 226.701 369.249 230.843 C 368.793 232.236 368.793 232.236 368.328 233.657 C 368.004 234.632 367.68 235.607 367.346 236.612 C 367.006 237.649 366.665 238.686 366.314 239.754 C 365.231 243.05 364.143 246.345 363.053 249.639 C 361.628 253.963 360.206 258.287 358.784 262.612 C 358.442 263.648 358.1 264.685 357.748 265.753 C 355.334 273.094 353.012 280.46 350.769 287.856 C 349.866 290.577 349.866 290.577 348.866 291.577 C 347.415 291.681 345.959 291.716 344.505 291.724 C 343.563 291.731 342.621 291.738 341.651 291.746 C 340.088 291.75 340.088 291.75 338.494 291.754 C 337.402 291.76 336.311 291.767 335.187 291.774 C 331.554 291.793 327.921 291.805 324.288 291.815 C 322.427 291.821 322.427 291.821 320.528 291.827 C 314.631 291.846 308.734 291.861 302.836 291.869 C 296.051 291.879 289.266 291.905 282.481 291.945 C 276.591 291.979 270.7 291.991 264.809 291.995 C 262.313 292 259.818 292.012 257.322 292.03 C 237.514 292.169 221.785 291.058 206.616 276.952 C 197.663 267.619 193.529 256.174 193.366 243.389 C 193.324 242.634 193.283 241.88 193.241 241.102 C 193.114 231.198 196.853 221.877 199.866 212.577 C 200.631 210.187 201.396 207.798 202.161 205.408 C 204.627 197.72 207.123 190.041 209.622 182.364 C 210.894 178.452 212.164 174.539 213.434 170.626 C 215.013 165.761 216.592 160.896 218.173 156.03 C 222.985 141.216 227.782 126.397 232.574 111.576 C 233.937 107.363 235.3 103.149 236.663 98.936 C 237.119 97.525 237.575 96.114 238.032 94.703 C 238.258 94.005 238.484 93.306 238.717 92.586 C 239.627 89.771 240.538 86.955 241.449 84.139 C 244.42 74.955 247.391 65.772 250.362 56.588 C 250.702 55.536 250.702 55.536 251.05 54.462 C 252.196 50.918 253.343 47.374 254.49 43.83 C 256.553 37.454 258.615 31.078 260.678 24.702 C 261.824 21.16 262.97 17.618 264.116 14.077 C 264.574 12.66 265.032 11.243 265.491 9.827 C 266.866 5.577 266.866 5.577 268.241 1.327 C 268.468 0.625 268.694 -0.076 268.928 -0.798 C 269.386 -2.215 269.845 -3.631 270.303 -5.048 C 271.449 -8.591 272.596 -12.135 273.742 -15.679 C 275.798 -22.032 277.853 -28.384 279.909 -34.737 C 281.046 -38.25 282.182 -41.762 283.319 -45.275 C 283.544 -45.971 283.77 -46.668 284.002 -47.386 C 287.103 -56.971 290.202 -66.558 293.297 -76.145 C 295.023 -81.487 296.749 -86.829 298.475 -92.171 C 299.64 -95.778 300.805 -99.39 301.969 -102.99 C 302.407 -104.35 302.845 -105.71 303.284 -107.07 C 303.498 -107.73 303.712 -108.39 303.933 -109.08 C 304.988 -112.35 306.046 -115.61 307.113 -118.88 C 307.531 -120.16 307.949 -121.44 308.368 -122.72 C 308.676 -123.66 308.676 -123.66 308.992 -124.63 C 310.283 -128.59 311.539 -132.57 312.772 -136.55 C 313.613 -139.25 314.471 -141.95 315.333 -144.65 C 315.917 -146.5 316.48 -148.36 317.041 -150.22 C 321.981 -165.59 331.931 -178.87 346.498 -186.37 C 353.923 -189.69 361.191 -192.54 369.377 -192.56 Z" fill="#FEFEFE" style="stroke-width: 1;"/>
  </g>
</svg>